{
.appVersion = "1352";
DisplayStrings = (
ABCDEFGHIJKLMNOPQRSTUVWXYZ,
"a/Placeholder a/space b/Placeholder b/space c/Placeholder c/space d/Placeholder d/space e/Placeholder e/space f/Placeholder f/space g/Placeholder g/space h/Placeholder h/space i/Placeholder i/space jjj/space k/Placeholder k/space l/Placeholder l/space m/Placeholder m/space n/Placeholder n/space o/Placeholder o/space p/Placeholder p/space q/Placeholder q/space r/Placeholder r/space s/Placeholder s/space t/Placeholder t/space u/Placeholder u/space v/Placeholder v/space w/Placeholder w/space x/Placeholder x/space y/Placeholder y/space z/Placeholder z\012nn/Placeholder no/Placeholder oo\012rabcdqeftglohi/jdotless jkolmnopqnrrostojuvwoxoypz\012fear/space fall/space kilo/space long/space ovoide/space want/space wind/space oxo/space zapato\012Twombli/space Tgmaiwan/space Taiwan/space Tomato/space Temperture/space Tiro/space Twardock/space Walking/space Wonder/space Wc/space Wd/space/space Wrcnder/space/space You/space Family/space Fear/space Furor/space Vocal/space Viajar/space Zusam/space Pearl/space Point/space Pain/space Ayuda/space \012Kilo/space Londres/space Leon/space Lio/space Month",
"aá/brevecomb/abreve/abreveacute/abrevedotbelow/abrevegrave/abrevehookabove/abrevetilde/acaron â/acircumflexacute/acircumflexdotbelow/acircumflexgrave/acircumflexhookabove/acircumflextilde/adblgrave ä/adotbelow à/ahookabove/ainvertedbreve/amacron/aogonek å/aringacute ã",
"/circumflexcomb/circumflexcomb_acutecomb",
"/circumflexcomb_hookabovecomb",
"/tildecomb/circumflexcomb/circumflexcomb_tildecomb",
"aá/abreve/abreveacute/abrevedotbelow/abrevegrave/abrevehookabove/abrevetilde/acaron â/acircumflexacute/acircumflexdotbelow/acircumflexgrave/acircumflexhookabove/acircumflextilde/adblgrave ä/adotbelow à/ahookabove/ainvertedbreve/amacron a/aogonek å/aringacute ãæ/aeacute",

glyphs = (
{
glyphname = .notdef;
lastChange = "2021-11-18 15:18:57 +0000";
layers = (
{
layerId = "F72AA8BB-7F63-4F07-AEAC-030E55A5CABB";
paths = (
{
closed = 1;
nodes = (
"438 15 LINE",
"438 815 LINE",
"63 815 LINE",
"63 15 LINE"
);
},
{
closed = 1;
nodes = (
"166 120 OFFCURVE",
"211 274 OFFCURVE",
"248 387 CURVE",
"251 370 OFFCURVE",
"240 345 OFFCURVE",
"240 328 CURVE SMOOTH",
"240 320 OFFCURVE",
"242 314 OFFCURVE",
"250 312 CURVE SMOOTH",
"274 306 OFFCURVE",
"279 279 OFFCURVE",
"300 237 CURVE SMOOTH",
"318 200 OFFCURVE",
"334 110 OFFCURVE",
"346 78 CURVE",
"298 78 LINE",
"290 84 OFFCURVE",
"282 88 OFFCURVE",
"273 88 CURVE SMOOTH",
"266 88 OFFCURVE",
"258 85 OFFCURVE",
"250 78 CURVE",
"231 78 OFFCURVE",
"215 91 OFFCURVE",
"197 91 CURVE SMOOTH",
"187 91 OFFCURVE",
"178 88 OFFCURVE",
"167 78 CURVE",
"151 78 LINE"
);
},
{
closed = 1;
nodes = (
"125 240 LINE SMOOTH",
"125 263 OFFCURVE",
"135 290 OFFCURVE",
"135 313 CURVE SMOOTH",
"135 324 OFFCURVE",
"133 335 OFFCURVE",
"125 343 CURVE SMOOTH",
"118 351 OFFCURVE",
"115 359 OFFCURVE",
"115 367 CURVE SMOOTH",
"115 379 OFFCURVE",
"121 391 OFFCURVE",
"125 403 CURVE SMOOTH",
"134 433 OFFCURVE",
"138 465 OFFCURVE",
"138 494 CURVE SMOOTH",
"138 534 OFFCURVE",
"131 567 OFFCURVE",
"125 579 CURVE SMOOTH",
"116 597 OFFCURVE",
"113 615 OFFCURVE",
"113 635 CURVE SMOOTH",
"113 651 OFFCURVE",
"115 669 OFFCURVE",
"118 686 CURVE",
"124 676 OFFCURVE",
"132 667 OFFCURVE",
"139 662 CURVE SMOOTH",
"157 649 OFFCURVE",
"200 618 OFFCURVE",
"200 589 CURVE SMOOTH",
"200 577 OFFCURVE",
"198 565 OFFCURVE",
"198 554 CURVE SMOOTH",
"198 513 OFFCURVE",
"209 485 OFFCURVE",
"220 461 CURVE",
"219 459 OFFCURVE",
"219 458 OFFCURVE",
"218 457 CURVE",
"192 401 OFFCURVE",
"173 289 OFFCURVE",
"170 259 CURVE SMOOTH",
"168 236 OFFCURVE",
"144 211 OFFCURVE",
"125 195 CURVE"
);
},
{
closed = 1;
nodes = (
"357 263 OFFCURVE",
"336 310 OFFCURVE",
"323 334 CURVE SMOOTH",
"314 351 OFFCURVE",
"295 404 OFFCURVE",
"275 467 CURVE",
"282 488 OFFCURVE",
"289 503 OFFCURVE",
"293 511 CURVE SMOOTH",
"315 550 OFFCURVE",
"358 651 OFFCURVE",
"382 707 CURVE",
"383 702 OFFCURVE",
"383 696 OFFCURVE",
"383 690 CURVE SMOOTH",
"383 678 OFFCURVE",
"381 665 OFFCURVE",
"375 651 CURVE",
"375 625 OFFCURVE",
"372 601 OFFCURVE",
"372 581 CURVE SMOOTH",
"372 571 OFFCURVE",
"373 561 OFFCURVE",
"375 553 CURVE SMOOTH",
"377 543 OFFCURVE",
"378 532 OFFCURVE",
"378 521 CURVE SMOOTH",
"378 479 OFFCURVE",
"364 433 OFFCURVE",
"364 387 CURVE SMOOTH",
"364 367 OFFCURVE",
"367 347 OFFCURVE",
"375 328 CURVE SMOOTH",
"380 315 OFFCURVE",
"382 300 OFFCURVE",
"382 284 CURVE SMOOTH",
"382 263 OFFCURVE",
"379 240 OFFCURVE",
"377 218 CURVE"
);
},
{
closed = 1;
nodes = (
"232 604 OFFCURVE",
"201 707 OFFCURVE",
"185 753 CURVE",
"312 753 LINE",
"300 714 OFFCURVE",
"286 640 OFFCURVE",
"270 608 CURVE SMOOTH",
"262 593 OFFCURVE",
"261 574 OFFCURVE",
"261 556 CURVE SMOOTH",
"261 539 OFFCURVE",
"262 523 OFFCURVE",
"261 511 CURVE"
);
}
);
width = 500;
}
);
note = .notdef;
},
{
glyphname = A;
lastChange = "2021-11-24 21:20:30 +0000";
layers = (
{
anchors = (
{
name = bottom;
position = "{359, 0}";
},
{
name = ogonek;
position = "{739, 33}";
},
{
name = top;
position = "{320, 650}";
}
);
layerId = "F72AA8BB-7F63-4F07-AEAC-030E55A5CABB";
paths = (
{
closed = 1;
nodes = (
"38 2 OFFCURVE",
"56 4 OFFCURVE",
"69 5 CURVE",
"100 4 OFFCURVE",
"125 3 OFFCURVE",
"142 1 CURVE",
"175 2 OFFCURVE",
"209 6 OFFCURVE",
"242 13 CURVE",
"243 8 OFFCURVE",
"245 5 OFFCURVE",
"249 5 CURVE SMOOTH",
"250 5 LINE SMOOTH",
"268 5 OFFCURVE",
"279 65 OFFCURVE",
"278 80 CURVE SMOOTH",
"277 90 LINE",
"360 90 LINE",
"401 94 OFFCURVE",
"422 105 OFFCURVE",
"422 122 CURVE SMOOTH",
"422 127 OFFCURVE",
"419 128 OFFCURVE",
"409 128 CURVE SMOOTH",
"302 125 LINE SMOOTH",
"291 125 OFFCURVE",
"263 133 OFFCURVE",
"251 132 CURVE SMOOTH",
"235 132 OFFCURVE",
"225 112 OFFCURVE",
"226 96 CURVE SMOOTH",
"230 70 OFFCURVE",
"234 50 OFFCURVE",
"237 36 CURVE",
"194 38 LINE",
"190 44 OFFCURVE",
"178 57 OFFCURVE",
"157 77 CURVE SMOOTH",
"141 92 OFFCURVE",
"134 108 OFFCURVE",
"134 127 CURVE SMOOTH",
"134 145 OFFCURVE",
"140 165 OFFCURVE",
"152 186 CURVE SMOOTH",
"165 209 OFFCURVE",
"171 225 OFFCURVE",
"171 235 CURVE SMOOTH",
"170 262 OFFCURVE",
"158 282 OFFCURVE",
"137 295 CURVE",
"159 371 OFFCURVE",
"175 428 OFFCURVE",
"186 467 CURVE",
"197 481 OFFCURVE",
"218 494 OFFCURVE",
"251 505 CURVE SMOOTH",
"278 514 OFFCURVE",
"294 529 OFFCURVE",
"301 549 CURVE SMOOTH",
"308 574 OFFCURVE",
"312 607 OFFCURVE",
"343 607 CURVE SMOOTH",
"373 608 OFFCURVE",
"402 604 OFFCURVE",
"430 594 CURVE",
"448 573 OFFCURVE",
"476 517 OFFCURVE",
"477 490 CURVE SMOOTH",
"477 485 OFFCURVE",
"476 480 OFFCURVE",
"475 477 CURVE",
"455 503 OFFCURVE",
"436 516 OFFCURVE",
"419 515 CURVE SMOOTH",
"390 513 OFFCURVE",
"380 506 OFFCURVE",
"380 480 CURVE SMOOTH",
"380 455 OFFCURVE",
"391 435 OFFCURVE",
"411 415 CURVE SMOOTH",
"414 412 OFFCURVE",
"434 400 OFFCURVE",
"470 375 CURVE SMOOTH",
"489 362 OFFCURVE",
"504 338 OFFCURVE",
"514 301 CURVE SMOOTH",
"523 269 OFFCURVE",
"532 253 OFFCURVE",
"541 253 CURVE SMOOTH",
"546 253 OFFCURVE",
"558 260 OFFCURVE",
"563 260 CURVE",
"574 245 OFFCURVE",
"615 149 OFFCURVE",
"615 136 CURVE SMOOTH",
"615 130 OFFCURVE",
"613 127 OFFCURVE",
"610 127 CURVE SMOOTH",
"602 127 OFFCURVE",
"574 143 OFFCURVE",
"562 143 CURVE SMOOTH",
"538 141 OFFCURVE",
"528 94 OFFCURVE",
"528 75 CURVE",
"531 53 LINE",
"508 52 OFFCURVE",
"491 51 OFFCURVE",
"480 51 CURVE SMOOTH",
"473 51 OFFCURVE",
"468 52 OFFCURVE",
"467 52 CURVE",
"447 59 OFFCURVE",
"447 92 OFFCURVE",
"439 92 CURVE SMOOTH",
"435 92 OFFCURVE",
"412 68 OFFCURVE",
"412 63 CURVE SMOOTH",
"413 46 OFFCURVE",
"421 32 OFFCURVE",
"436 21 CURVE SMOOTH",
"448 12 OFFCURVE",
"462 7 OFFCURVE",
"478 7 CURVE SMOOTH",
"502 7 OFFCURVE",
"539 10 OFFCURVE",
"589 14 CURVE SMOOTH",
"635 18 OFFCURVE",
"671 21 OFFCURVE",
"695 21 CURVE SMOOTH",
"730 21 LINE",
"740 24 OFFCURVE",
"746 32 OFFCURVE",
"746 46 CURVE SMOOTH",
"746 49 LINE SMOOTH",
"746 64 OFFCURVE",
"735 72 OFFCURVE",
"716 73 CURVE SMOOTH",
"697 74 OFFCURVE",
"665 131 OFFCURVE",
"616 240 CURVE SMOOTH",
"601 273 OFFCURVE",
"575 339 OFFCURVE",
"536 440 CURVE SMOOTH",
"509 509 OFFCURVE",
"487 563 OFFCURVE",
"475 605 CURVE SMOOTH",
"472 615 OFFCURVE",
"470 625 OFFCURVE",
"468 636 CURVE",
"464 646 OFFCURVE",
"456 651 OFFCURVE",
"443 651 CURVE SMOOTH",
"339 644 OFFCURVE",
"261 638 OFFCURVE",
"209 633 CURVE SMOOTH",
"199 632 OFFCURVE",
"192 624 OFFCURVE",
"188 609 CURVE SMOOTH",
"135 411 OFFCURVE",
"98 296 OFFCURVE",
"87 263 CURVE SMOOTH",
"82 249 OFFCURVE",
"72 216 OFFCURVE",
"60 165 CURVE SMOOTH",
"50 123 OFFCURVE",
"41 90 OFFCURVE",
"29 69 CURVE SMOOTH",
"26 64 OFFCURVE",
"16 58 OFFCURVE",
"-3 52 CURVE SMOOTH",
"-17 47 OFFCURVE",
"-25 37 OFFCURVE",
"-25 23 CURVE SMOOTH",
"-25 6 OFFCURVE",
"-12 -2 OFFCURVE",
"14 -1 CURVE SMOOTH"
);
},
{
closed = 1;
nodes = (
"347 157 OFFCURVE",
"382 186 OFFCURVE",
"381 230 CURVE",
"388 229 OFFCURVE",
"393 229 OFFCURVE",
"397 229 CURVE SMOOTH",
"412 229 OFFCURVE",
"420 237 OFFCURVE",
"420 254 CURVE SMOOTH",
"420 265 OFFCURVE",
"415 284 OFFCURVE",
"401 310 CURVE SMOOTH",
"375 360 LINE",
"374 363 OFFCURVE",
"366 384 OFFCURVE",
"354 424 CURVE SMOOTH",
"344 457 OFFCURVE",
"336 475 OFFCURVE",
"331 478 CURVE",
"324 478 OFFCURVE",
"309 432 OFFCURVE",
"309 424 CURVE",
"350 347 OFFCURVE",
"368 294 OFFCURVE",
"368 263 CURVE SMOOTH",
"368 257 LINE",
"349 251 OFFCURVE",
"335 246 OFFCURVE",
"326 241 CURVE",
"320 241 OFFCURVE",
"317 246 OFFCURVE",
"316 255 CURVE SMOOTH",
"316 274 OFFCURVE",
"325 324 OFFCURVE",
"325 347 CURVE SMOOTH",
"325 363 OFFCURVE",
"317 371 OFFCURVE",
"299 371 CURVE SMOOTH",
"279 370 OFFCURVE",
"263 363 OFFCURVE",
"247 351 CURVE SMOOTH",
"230 338 OFFCURVE",
"222 321 OFFCURVE",
"223 302 CURVE SMOOTH",
"224 286 OFFCURVE",
"244 259 OFFCURVE",
"245 243 CURVE SMOOTH",
"245 236 OFFCURVE",
"241 219 OFFCURVE",
"241 210 CURVE SMOOTH",
"241 177 OFFCURVE",
"269 157 OFFCURVE",
"301 157 CURVE SMOOTH"
);
}
);
width = 757;
}
);
leftKerningGroup = A;
note = A;
rightKerningGroup = A;
unicode = 0041;
},
{
glyphname = AE;
lastChange = "2021-11-24 21:20:55 +0000";
layers = (
{
anchors = (
{
name = bottom;
position = "{485, 0}";
},
{
name = top;
position = "{579, 650}";
}
);
layerId = "F72AA8BB-7F63-4F07-AEAC-030E55A5CABB";
paths = (
{
closed = 1;
nodes = (
"946 -1 OFFCURVE",
"955 26 OFFCURVE",
"955 79 CURVE SMOOTH",
"955 99 OFFCURVE",
"940 168 OFFCURVE",
"940 189 CURVE SMOOTH",
"940 208 LINE",
"938 213 OFFCURVE",
"933 216 OFFCURVE",
"924 216 CURVE SMOOTH",
"904 216 OFFCURVE",
"834 205 OFFCURVE",
"813 205 CURVE SMOOTH",
"747 205 LINE",
"746 224 OFFCURVE",
"742 240 OFFCURVE",
"736 253 CURVE",
"747 253 LINE",
"756 237 OFFCURVE",
"802 229 OFFCURVE",
"884 229 CURVE SMOOTH",
"905 229 OFFCURVE",
"915 237 OFFCURVE",
"915 254 CURVE SMOOTH",
"915 261 OFFCURVE",
"913 267 OFFCURVE",
"908 270 CURVE",
"909 275 OFFCURVE",
"914 298 OFFCURVE",
"921 337 CURVE SMOOTH",
"928 376 OFFCURVE",
"931 398 OFFCURVE",
"931 402 CURVE SMOOTH",
"931 416 OFFCURVE",
"918 423 OFFCURVE",
"892 423 CURVE SMOOTH",
"876 423 OFFCURVE",
"851 423 OFFCURVE",
"818 421 CURVE SMOOTH",
"785 419 OFFCURVE",
"760 418 OFFCURVE",
"743 418 CURVE",
"744 449 LINE SMOOTH",
"744 453 OFFCURVE",
"773 455 OFFCURVE",
"830 455 CURVE SMOOTH",
"850 455 OFFCURVE",
"897 450 OFFCURVE",
"916 450 CURVE SMOOTH",
"928 450 OFFCURVE",
"934 456 OFFCURVE",
"934 468 CURVE SMOOTH",
"934 473 OFFCURVE",
"932 477 OFFCURVE",
"929 481 CURVE",
"929 571 LINE SMOOTH",
"929 578 OFFCURVE",
"932 604 OFFCURVE",
"932 616 CURVE SMOOTH",
"932 638 OFFCURVE",
"925 649 OFFCURVE",
"910 649 CURVE SMOOTH",
"885 649 OFFCURVE",
"795 640 OFFCURVE",
"770 640 CURVE SMOOTH",
"402 640 OFFCURVE",
"227 640 OFFCURVE",
"245 641 CURVE",
"235 641 OFFCURVE",
"228 633 OFFCURVE",
"223 618 CURVE SMOOTH",
"198 542 OFFCURVE",
"164 426 OFFCURVE",
"110 276 CURVE SMOOTH",
"105 262 OFFCURVE",
"95 229 OFFCURVE",
"80 178 CURVE SMOOTH",
"68 137 OFFCURVE",
"57 105 OFFCURVE",
"45 84 CURVE SMOOTH",
"42 79 OFFCURVE",
"32 74 OFFCURVE",
"13 68 CURVE SMOOTH",
"-2 63 OFFCURVE",
"-10 53 OFFCURVE",
"-10 37 CURVE SMOOTH",
"-10 22 OFFCURVE",
"3 13 OFFCURVE",
"28 15 CURVE SMOOTH",
"83 19 LINE SMOOTH",
"98 20 OFFCURVE",
"141 12 OFFCURVE",
"156 12 CURVE SMOOTH",
"189 12 OFFCURVE",
"223 15 OFFCURVE",
"256 21 CURVE",
"257 15 OFFCURVE",
"260 12 OFFCURVE",
"264 12 CURVE SMOOTH",
"272 12 OFFCURVE",
"279 23 OFFCURVE",
"286 44 CURVE SMOOTH",
"292 62 OFFCURVE",
"294 76 OFFCURVE",
"294 86 CURVE SMOOTH",
"294 96 LINE",
"343 94 OFFCURVE",
"364 93 OFFCURVE",
"356 93 CURVE SMOOTH",
"412 93 OFFCURVE",
"440 103 OFFCURVE",
"440 124 CURVE SMOOTH",
"440 128 OFFCURVE",
"436 130 OFFCURVE",
"427 130 CURVE SMOOTH",
"320 130 LINE",
"309 131 OFFCURVE",
"281 140 OFFCURVE",
"269 140 CURVE SMOOTH",
"254 140 OFFCURVE",
"243 120 OFFCURVE",
"243 104 CURVE SMOOTH",
"243 92 OFFCURVE",
"252 59 OFFCURVE",
"252 44 CURVE",
"209 47 LINE",
"206 54 OFFCURVE",
"194 67 OFFCURVE",
"174 87 CURVE SMOOTH",
"159 102 OFFCURVE",
"152 118 OFFCURVE",
"152 135 CURVE SMOOTH",
"152 154 OFFCURVE",
"159 174 OFFCURVE",
"173 197 CURVE SMOOTH",
"186 219 OFFCURVE",
"193 235 OFFCURVE",
"193 245 CURVE SMOOTH",
"193 272 OFFCURVE",
"182 292 OFFCURVE",
"161 306 CURVE",
"169 327 OFFCURVE",
"187 384 OFFCURVE",
"216 476 CURVE",
"227 489 OFFCURVE",
"249 502 OFFCURVE",
"282 512 CURVE SMOOTH",
"309 520 OFFCURVE",
"328 534 OFFCURVE",
"334 554 CURVE SMOOTH",
"342 579 OFFCURVE",
"347 611 OFFCURVE",
"378 611 CURVE SMOOTH",
"408 611 OFFCURVE",
"437 606 OFFCURVE",
"464 595 CURVE",
"474 582 OFFCURVE",
"484 564 OFFCURVE",
"494 541 CURVE",
"495 528 OFFCURVE",
"498 508 OFFCURVE",
"501 482 CURVE",
"484 505 OFFCURVE",
"467 516 OFFCURVE",
"451 516 CURVE SMOOTH",
"420 516 OFFCURVE",
"410 509 OFFCURVE",
"410 478 CURVE SMOOTH",
"410 455 OFFCURVE",
"420 434 OFFCURVE",
"439 416 CURVE",
"500 372 LINE",
"498 307 OFFCURVE",
"497 263 OFFCURVE",
"497 241 CURVE SMOOTH",
"497 218 OFFCURVE",
"504 136 OFFCURVE",
"504 113 CURVE SMOOTH",
"504 105 OFFCURVE",
"500 87 OFFCURVE",
"500 80 CURVE SMOOTH",
"500 69 OFFCURVE",
"508 63 OFFCURVE",
"523 63 CURVE SMOOTH",
"530 63 OFFCURVE",
"533 73 OFFCURVE",
"533 92 CURVE SMOOTH",
"533 113 OFFCURVE",
"536 183 OFFCURVE",
"536 203 CURVE SMOOTH",
"536 240 OFFCURVE",
"536 296 OFFCURVE",
"535 370 CURVE",
"544 368 OFFCURVE",
"552 367 OFFCURVE",
"559 367 CURVE SMOOTH",
"595 367 OFFCURVE",
"623 395 OFFCURVE",
"623 431 CURVE SMOOTH",
"623 442 OFFCURVE",
"614 467 OFFCURVE",
"614 478 CURVE SMOOTH",
"614 496 OFFCURVE",
"627 517 OFFCURVE",
"652 541 CURVE SMOOTH",
"681 569 OFFCURVE",
"698 591 OFFCURVE",
"703 608 CURVE",
"714 608 OFFCURVE",
"735 607 OFFCURVE",
"768 606 CURVE SMOOTH",
"783 606 OFFCURVE",
"795 605 OFFCURVE",
"806 605 CURVE SMOOTH",
"818 605 OFFCURVE",
"827 606 OFFCURVE",
"835 606 CURVE SMOOTH",
"860 606 OFFCURVE",
"881 608 OFFCURVE",
"900 612 CURVE",
"894 585 OFFCURVE",
"891 566 OFFCURVE",
"891 553 CURVE SMOOTH",
"891 541 OFFCURVE",
"900 516 OFFCURVE",
"900 504 CURVE SMOOTH",
"900 495 LINE",
"878 492 LINE",
"881 501 OFFCURVE",
"882 509 OFFCURVE",
"882 517 CURVE SMOOTH",
"882 552 OFFCURVE",
"864 569 OFFCURVE",
"829 569 CURVE SMOOTH",
"781 569 OFFCURVE",
"746 530 OFFCURVE",
"745 481 CURVE",
"721 482 OFFCURVE",
"709 474 OFFCURVE",
"709 456 CURVE SMOOTH",
"709 451 OFFCURVE",
"714 437 OFFCURVE",
"723 414 CURVE",
"715 405 LINE",
"715 399 OFFCURVE",
"740 396 OFFCURVE",
"789 396 CURVE",
"797 371 OFFCURVE",
"799 339 OFFCURVE",
"839 339 CURVE SMOOTH",
"862 339 OFFCURVE",
"877 350 OFFCURVE",
"884 373 CURVE",
"883 358 OFFCURVE",
"882 343 OFFCURVE",
"882 330 CURVE SMOOTH",
"882 308 OFFCURVE",
"884 289 OFFCURVE",
"887 272 CURVE",
"875 272 OFFCURVE",
"843 267 OFFCURVE",
"828 267 CURVE SMOOTH",
"823 267 LINE",
"801 290 OFFCURVE",
"788 303 OFFCURVE",
"784 306 CURVE SMOOTH",
"769 317 OFFCURVE",
"753 323 OFFCURVE",
"734 323 CURVE SMOOTH",
"682 323 OFFCURVE",
"573 186 OFFCURVE",
"571 136 CURVE",
"553 126 OFFCURVE",
"545 91 OFFCURVE",
"545 72 CURVE SMOOTH",
"545 65 OFFCURVE",
"546 57 OFFCURVE",
"547 50 CURVE",
"535 50 LINE SMOOTH",
"525 50 OFFCURVE",
"516 51 OFFCURVE",
"508 51 CURVE SMOOTH",
"505 51 OFFCURVE",
"502 51 OFFCURVE",
"499 50 CURVE",
"479 52 OFFCURVE",
"470 54 OFFCURVE",
"465 77 CURVE SMOOTH",
"463 87 OFFCURVE",
"460 92 OFFCURVE",
"456 92 CURVE SMOOTH",
"452 92 OFFCURVE",
"428 70 OFFCURVE",
"428 65 CURVE SMOOTH",
"428 29 OFFCURVE",
"461 6 OFFCURVE",
"496 6 CURVE SMOOTH",
"505 6 LINE",
"509 5 OFFCURVE",
"513 5 OFFCURVE",
"518 5 CURVE SMOOTH",
"538 5 OFFCURVE",
"606 7 OFFCURVE",
"721 12 CURVE",
"736 11 OFFCURVE",
"745 11 OFFCURVE",
"750 13 CURVE",
"774 14 OFFCURVE",
"796 15 OFFCURVE",
"816 15 CURVE SMOOTH",
"831 15 OFFCURVE",
"851 12 OFFCURVE",
"876 7 CURVE SMOOTH",
"901 2 OFFCURVE",
"919 -1 OFFCURVE",
"928 -1 CURVE SMOOTH"
);
},
{
closed = 1;
nodes = (
"367 162 OFFCURVE",
"403 189 OFFCURVE",
"403 233 CURVE",
"410 232 OFFCURVE",
"416 231 OFFCURVE",
"420 231 CURVE SMOOTH",
"435 231 OFFCURVE",
"443 241 OFFCURVE",
"443 261 CURVE SMOOTH",
"443 272 OFFCURVE",
"437 289 OFFCURVE",
"426 312 CURVE SMOOTH",
"401 363 LINE",
"383 427 LINE SMOOTH",
"374 460 OFFCURVE",
"367 479 OFFCURVE",
"362 482 CURVE",
"355 482 OFFCURVE",
"337 438 OFFCURVE",
"337 429 CURVE",
"375 351 OFFCURVE",
"391 297 OFFCURVE",
"391 266 CURVE SMOOTH",
"391 260 LINE",
"379 260 OFFCURVE",
"355 246 OFFCURVE",
"348 246 CURVE SMOOTH",
"342 246 OFFCURVE",
"339 251 OFFCURVE",
"339 260 CURVE SMOOTH",
"339 280 OFFCURVE",
"351 333 OFFCURVE",
"351 354 CURVE SMOOTH",
"351 369 OFFCURVE",
"343 376 OFFCURVE",
"326 376 CURVE SMOOTH",
"286 376 OFFCURVE",
"248 349 OFFCURVE",
"248 310 CURVE SMOOTH",
"248 294 OFFCURVE",
"267 266 OFFCURVE",
"267 250 CURVE SMOOTH",
"267 242 OFFCURVE",
"262 223 OFFCURVE",
"262 215 CURVE SMOOTH",
"262 183 OFFCURVE",
"290 162 OFFCURVE",
"323 162 CURVE SMOOTH"
);
}
);
width = 969;
}
);
leftKerningGroup = A;
note = AE;
rightKerningGroup = E;
unicode = 00C6;
},
{
glyphname = B;
lastChange = "2021-11-18 15:18:57 +0000";
layers = (
{
background = {
paths = (
{
closed = 1;
nodes = (
"22 0 OFFCURVE",
"47 1 OFFCURVE",
"80 3 CURVE SMOOTH",
"113 5 OFFCURVE",
"138 6 OFFCURVE",
"155 6 CURVE SMOOTH",
"173 6 OFFCURVE",
"253 4 OFFCURVE",
"278 4 CURVE SMOOTH",
"418 4 OFFCURVE",
"585 24 OFFCURVE",
"585 202 CURVE SMOOTH",
"585 275 OFFCURVE",
"554 299 OFFCURVE",
"495 334 CURVE",
"545 366 OFFCURVE",
"553 406 OFFCURVE",
"553 462 CURVE SMOOTH",
"553 588 OFFCURVE",
"466 621 OFFCURVE",
"357 628 CURVE SMOOTH",
"277 630 OFFCURVE",
"198 631 OFFCURVE",
"118 638 CURVE SMOOTH",
"81 641 OFFCURVE",
"50 642 OFFCURVE",
"27 642 CURVE SMOOTH",
"2 642 OFFCURVE",
"-11 633 OFFCURVE",
"-11 614 CURVE SMOOTH",
"-11 607 OFFCURVE",
"-3 600 OFFCURVE",
"13 593 CURVE SMOOTH",
"29 586 OFFCURVE",
"38 571 OFFCURVE",
"40 549 CURVE SMOOTH",
"43 516 OFFCURVE",
"44 463 OFFCURVE",
"44 390 CURVE SMOOTH",
"44 179 OFFCURVE",
"36 70 OFFCURVE",
"20 63 CURVE SMOOTH",
"-9 50 OFFCURVE",
"-24 37 OFFCURVE",
"-24 24 CURVE SMOOTH",
"-24 8 OFFCURVE",
"-14 0 OFFCURVE",
"5 0 CURVE SMOOTH"
);
},
{
closed = 1;
nodes = (
"237 165 OFFCURVE",
"244 153 OFFCURVE",
"258 150 CURVE SMOOTH",
"263 149 OFFCURVE",
"277 148 OFFCURVE",
"300 148 CURVE SMOOTH",
"339 148 OFFCURVE",
"365 163 OFFCURVE",
"377 193 CURVE",
"386 194 LINE SMOOTH",
"395 194 OFFCURVE",
"405 187 OFFCURVE",
"417 174 CURVE SMOOTH",
"429 161 OFFCURVE",
"440 154 OFFCURVE",
"450 154 CURVE SMOOTH",
"475 154 OFFCURVE",
"496 175 OFFCURVE",
"496 202 CURVE SMOOTH",
"496 237 OFFCURVE",
"470 241 OFFCURVE",
"450 250 CURVE",
"439 258 OFFCURVE",
"428 290 OFFCURVE",
"413 299 CURVE SMOOTH",
"401 306 OFFCURVE",
"383 310 OFFCURVE",
"358 310 CURVE SMOOTH",
"337 310 OFFCURVE",
"320 306 OFFCURVE",
"308 297 CURVE SMOOTH",
"301 292 OFFCURVE",
"294 289 OFFCURVE",
"287 288 CURVE",
"286 287 OFFCURVE",
"278 287 OFFCURVE",
"264 287 CURVE SMOOTH",
"247 286 OFFCURVE",
"238 281 OFFCURVE",
"238 271 CURVE SMOOTH",
"238 263 OFFCURVE",
"244 233 OFFCURVE",
"251 230 CURVE",
"259 230 OFFCURVE",
"266 255 OFFCURVE",
"279 255 CURVE SMOOTH",
"330 255 OFFCURVE",
"355 243 OFFCURVE",
"355 219 CURVE SMOOTH",
"355 186 OFFCURVE",
"300 176 OFFCURVE",
"275 176 CURVE SMOOTH",
"262 176 OFFCURVE",
"266 203 OFFCURVE",
"258 203 CURVE SMOOTH",
"247 203 OFFCURVE",
"237 191 OFFCURVE",
"237 182 CURVE SMOOTH"
);
},
{
closed = 1;
nodes = (
"135 203 OFFCURVE",
"142 229 OFFCURVE",
"161 279 CURVE SMOOTH",
"170 303 OFFCURVE",
"180 315 OFFCURVE",
"192 315 CURVE SMOOTH",
"231 315 OFFCURVE",
"255 317 OFFCURVE",
"265 320 CURVE SMOOTH",
"288 327 OFFCURVE",
"305 344 OFFCURVE",
"314 373 CURVE",
"333 377 OFFCURVE",
"371 419 OFFCURVE",
"371 438 CURVE SMOOTH",
"371 458 OFFCURVE",
"347 475 OFFCURVE",
"299 488 CURVE",
"299 501 OFFCURVE",
"321 533 OFFCURVE",
"321 556 CURVE SMOOTH",
"321 573 OFFCURVE",
"315 588 OFFCURVE",
"304 600 CURVE",
"332 601 LINE SMOOTH",
"367 602 OFFCURVE",
"405 595 OFFCURVE",
"446 582 CURVE",
"433 572 OFFCURVE",
"420 562 OFFCURVE",
"407 553 CURVE",
"396 543 OFFCURVE",
"391 528 OFFCURVE",
"391 507 CURVE SMOOTH",
"391 449 OFFCURVE",
"430 396 OFFCURVE",
"489 390 CURVE SMOOTH",
"500 389 OFFCURVE",
"505 387 OFFCURVE",
"505 385 CURVE SMOOTH",
"505 380 OFFCURVE",
"492 368 OFFCURVE",
"466 349 CURVE",
"458 352 OFFCURVE",
"451 353 OFFCURVE",
"444 353 CURVE SMOOTH",
"433 353 OFFCURVE",
"427 349 OFFCURVE",
"427 340 CURVE SMOOTH",
"427 336 OFFCURVE",
"430 332 OFFCURVE",
"436 328 CURVE",
"429 325 OFFCURVE",
"425 321 OFFCURVE",
"425 317 CURVE SMOOTH",
"425 314 LINE",
"435 309 LINE",
"443 309 OFFCURVE",
"452 311 OFFCURVE",
"463 316 CURVE",
"524 289 OFFCURVE",
"553 255 OFFCURVE",
"553 186 CURVE SMOOTH",
"553 155 OFFCURVE",
"536 94 OFFCURVE",
"497 94 CURVE SMOOTH",
"478 94 OFFCURVE",
"431 116 OFFCURVE",
"410 116 CURVE SMOOTH",
"395 116 OFFCURVE",
"376 110 OFFCURVE",
"351 99 CURVE SMOOTH",
"326 88 OFFCURVE",
"307 82 OFFCURVE",
"294 82 CURVE SMOOTH",
"279 82 OFFCURVE",
"265 88 OFFCURVE",
"250 100 CURVE SMOOTH",
"235 112 OFFCURVE",
"221 118 OFFCURVE",
"208 118 CURVE SMOOTH",
"190 118 OFFCURVE",
"169 106 OFFCURVE",
"145 81 CURVE SMOOTH",
"120 55 OFFCURVE",
"104 43 OFFCURVE",
"95 43 CURVE SMOOTH",
"80 43 OFFCURVE",
"73 72 OFFCURVE",
"73 130 CURVE",
"99 145 OFFCURVE",
"119 169 OFFCURVE",
"134 202 CURVE"
);
},
{
closed = 1;
nodes = (
"140 602 OFFCURVE",
"177 603 OFFCURVE",
"202 604 CURVE SMOOTH",
"235 603 LINE",
"171 592 OFFCURVE",
"128 552 OFFCURVE",
"106 481 CURVE SMOOTH",
"94 433 LINE SMOOTH",
"87 407 OFFCURVE",
"81 394 OFFCURVE",
"76 394 CURVE SMOOTH",
"73 394 LINE",
"71 583 LINE SMOOTH",
"71 598 OFFCURVE",
"72 604 OFFCURVE",
"91 603 CURVE SMOOTH"
);
},
{
closed = 1;
nodes = (
"265 444 LINE",
"265 454 OFFCURVE",
"269 460 OFFCURVE",
"277 462 CURVE",
"278 463 OFFCURVE",
"287 463 OFFCURVE",
"302 463 CURVE SMOOTH",
"313 463 OFFCURVE",
"322 460 OFFCURVE",
"327 454 CURVE SMOOTH",
"330 450 OFFCURVE",
"333 441 OFFCURVE",
"337 428 CURVE",
"335 415 OFFCURVE",
"329 406 OFFCURVE",
"319 403 CURVE SMOOTH",
"315 402 OFFCURVE",
"304 401 OFFCURVE",
"286 401 CURVE SMOOTH",
"279 401 OFFCURVE",
"273 401 OFFCURVE",
"270 402 CURVE",
"267 409 OFFCURVE",
"265 415 OFFCURVE",
"265 422 CURVE SMOOTH"
);
}
);
};
layerId = "F72AA8BB-7F63-4F07-AEAC-030E55A5CABB";
paths = (
{
closed = 1;
nodes = (
"22 15 OFFCURVE",
"47 16 OFFCURVE",
"80 18 CURVE SMOOTH",
"113 20 OFFCURVE",
"138 21 OFFCURVE",
"155 21 CURVE SMOOTH",
"173 21 OFFCURVE",
"253 19 OFFCURVE",
"278 19 CURVE SMOOTH",
"418 19 OFFCURVE",
"585 39 OFFCURVE",
"585 217 CURVE SMOOTH",
"585 290 OFFCURVE",
"554 314 OFFCURVE",
"495 349 CURVE",
"545 381 OFFCURVE",
"553 421 OFFCURVE",
"553 477 CURVE SMOOTH",
"553 603 OFFCURVE",
"466 636 OFFCURVE",
"357 643 CURVE SMOOTH",
"277 645 OFFCURVE",
"198 646 OFFCURVE",
"118 653 CURVE SMOOTH",
"81 656 OFFCURVE",
"50 657 OFFCURVE",
"27 657 CURVE SMOOTH",
"2 657 OFFCURVE",
"-11 648 OFFCURVE",
"-11 629 CURVE SMOOTH",
"-11 622 OFFCURVE",
"-3 615 OFFCURVE",
"13 608 CURVE SMOOTH",
"29 601 OFFCURVE",
"38 586 OFFCURVE",
"40 564 CURVE SMOOTH",
"43 531 OFFCURVE",
"44 478 OFFCURVE",
"44 405 CURVE SMOOTH",
"44 194 OFFCURVE",
"36 85 OFFCURVE",
"20 78 CURVE SMOOTH",
"-9 65 OFFCURVE",
"-24 52 OFFCURVE",
"-24 39 CURVE SMOOTH",
"-24 23 OFFCURVE",
"-14 15 OFFCURVE",
"5 15 CURVE SMOOTH"
);
},
{
closed = 1;
nodes = (
"339 163 OFFCURVE",
"365 178 OFFCURVE",
"377 208 CURVE",
"386 209 LINE SMOOTH",
"395 209 OFFCURVE",
"405 202 OFFCURVE",
"417 189 CURVE SMOOTH",
"429 176 OFFCURVE",
"440 169 OFFCURVE",
"450 169 CURVE SMOOTH",
"475 169 OFFCURVE",
"496 190 OFFCURVE",
"496 217 CURVE SMOOTH",
"496 252 OFFCURVE",
"470 256 OFFCURVE",
"450 265 CURVE",
"439 273 OFFCURVE",
"428 305 OFFCURVE",
"413 314 CURVE SMOOTH",
"401 321 OFFCURVE",
"383 325 OFFCURVE",
"358 325 CURVE SMOOTH",
"337 325 OFFCURVE",
"320 321 OFFCURVE",
"308 312 CURVE SMOOTH",
"301 307 OFFCURVE",
"294 304 OFFCURVE",
"287 303 CURVE",
"286 302 OFFCURVE",
"278 302 OFFCURVE",
"264 302 CURVE SMOOTH",
"247 301 OFFCURVE",
"238 296 OFFCURVE",
"238 286 CURVE SMOOTH",
"238 278 OFFCURVE",
"244 248 OFFCURVE",
"251 245 CURVE",
"259 245 OFFCURVE",
"266 270 OFFCURVE",
"279 270 CURVE SMOOTH",
"330 270 OFFCURVE",
"355 258 OFFCURVE",
"355 234 CURVE SMOOTH",
"355 201 OFFCURVE",
"300 191 OFFCURVE",
"275 191 CURVE SMOOTH",
"262 191 OFFCURVE",
"266 218 OFFCURVE",
"258 218 CURVE SMOOTH",
"247 218 OFFCURVE",
"237 206 OFFCURVE",
"237 197 CURVE SMOOTH",
"237 180 OFFCURVE",
"244 168 OFFCURVE",
"258 165 CURVE SMOOTH",
"263 164 OFFCURVE",
"277 163 OFFCURVE",
"300 163 CURVE SMOOTH"
);
},
{
closed = 1;
nodes = (
"80 58 OFFCURVE",
"73 87 OFFCURVE",
"73 145 CURVE",
"99 160 OFFCURVE",
"119 184 OFFCURVE",
"134 217 CURVE",
"135 218 OFFCURVE",
"142 244 OFFCURVE",
"161 294 CURVE SMOOTH",
"170 318 OFFCURVE",
"180 330 OFFCURVE",
"192 330 CURVE SMOOTH",
"231 330 OFFCURVE",
"255 332 OFFCURVE",
"265 335 CURVE SMOOTH",
"288 342 OFFCURVE",
"305 359 OFFCURVE",
"314 388 CURVE",
"333 392 OFFCURVE",
"371 434 OFFCURVE",
"371 453 CURVE SMOOTH",
"371 473 OFFCURVE",
"347 490 OFFCURVE",
"299 503 CURVE",
"299 516 OFFCURVE",
"321 548 OFFCURVE",
"321 571 CURVE SMOOTH",
"321 588 OFFCURVE",
"315 603 OFFCURVE",
"304 615 CURVE",
"332 616 LINE SMOOTH",
"367 617 OFFCURVE",
"405 610 OFFCURVE",
"446 597 CURVE",
"433 587 OFFCURVE",
"420 577 OFFCURVE",
"407 568 CURVE",
"396 558 OFFCURVE",
"391 543 OFFCURVE",
"391 522 CURVE SMOOTH",
"391 464 OFFCURVE",
"430 411 OFFCURVE",
"489 405 CURVE SMOOTH",
"500 404 OFFCURVE",
"505 402 OFFCURVE",
"505 400 CURVE SMOOTH",
"505 395 OFFCURVE",
"492 383 OFFCURVE",
"466 364 CURVE",
"458 367 OFFCURVE",
"451 368 OFFCURVE",
"444 368 CURVE SMOOTH",
"433 368 OFFCURVE",
"427 364 OFFCURVE",
"427 355 CURVE SMOOTH",
"427 351 OFFCURVE",
"430 347 OFFCURVE",
"436 343 CURVE",
"429 340 OFFCURVE",
"425 336 OFFCURVE",
"425 332 CURVE SMOOTH",
"425 329 LINE",
"435 324 LINE",
"443 324 OFFCURVE",
"452 326 OFFCURVE",
"463 331 CURVE",
"524 304 OFFCURVE",
"553 270 OFFCURVE",
"553 201 CURVE SMOOTH",
"553 170 OFFCURVE",
"536 109 OFFCURVE",
"497 109 CURVE SMOOTH",
"478 109 OFFCURVE",
"431 131 OFFCURVE",
"410 131 CURVE SMOOTH",
"395 131 OFFCURVE",
"376 125 OFFCURVE",
"351 114 CURVE SMOOTH",
"326 103 OFFCURVE",
"307 97 OFFCURVE",
"294 97 CURVE SMOOTH",
"279 97 OFFCURVE",
"265 103 OFFCURVE",
"250 115 CURVE SMOOTH",
"235 127 OFFCURVE",
"221 133 OFFCURVE",
"208 133 CURVE SMOOTH",
"190 133 OFFCURVE",
"169 121 OFFCURVE",
"145 96 CURVE SMOOTH",
"120 70 OFFCURVE",
"104 58 OFFCURVE",
"95 58 CURVE SMOOTH"
);
},
{
closed = 1;
nodes = (
"71 598 LINE SMOOTH",
"71 612 OFFCURVE",
"72 618 OFFCURVE",
"87 618 CURVE SMOOTH",
"91 618 LINE",
"131 618 LINE SMOOTH",
"161 618 OFFCURVE",
"184 618 OFFCURVE",
"202 619 CURVE SMOOTH",
"235 618 LINE",
"171 607 OFFCURVE",
"128 567 OFFCURVE",
"106 496 CURVE SMOOTH",
"94 448 LINE SMOOTH",
"87 422 OFFCURVE",
"81 409 OFFCURVE",
"76 409 CURVE SMOOTH",
"73 409 LINE"
);
},
{
closed = 1;
nodes = (
"279 416 OFFCURVE",
"273 416 OFFCURVE",
"270 417 CURVE",
"267 424 OFFCURVE",
"265 430 OFFCURVE",
"265 437 CURVE SMOOTH",
"265 459 LINE SMOOTH",
"265 469 OFFCURVE",
"269 475 OFFCURVE",
"277 477 CURVE",
"278 478 OFFCURVE",
"287 478 OFFCURVE",
"302 478 CURVE SMOOTH",
"313 478 OFFCURVE",
"322 475 OFFCURVE",
"327 469 CURVE SMOOTH",
"330 465 OFFCURVE",
"333 456 OFFCURVE",
"337 443 CURVE",
"335 430 OFFCURVE",
"329 421 OFFCURVE",
"319 418 CURVE SMOOTH",
"315 417 OFFCURVE",
"304 416 OFFCURVE",
"286 416 CURVE SMOOTH"
);
}
);
width = 595;
}
);
note = B;
unicode = 0042;
},
{
glyphname = C;
lastChange = "2021-11-24 18:48:43 +0000";
layers = (
{
anchors = (
{
name = bottom;
position = "{337, -12}";
},
{
name = top;
position = "{298, 643}";
}
);
layerId = "F72AA8BB-7F63-4F07-AEAC-030E55A5CABB";
paths = (
{
closed = 1;
nodes = (
"348 -7 OFFCURVE",
"374 -4 OFFCURVE",
"407 2 CURVE SMOOTH",
"444 9 OFFCURVE",
"470 12 OFFCURVE",
"485 13 CURVE SMOOTH",
"520 15 OFFCURVE",
"537 29 OFFCURVE",
"537 54 CURVE SMOOTH",
"537 64 OFFCURVE",
"533 84 OFFCURVE",
"523 115 CURVE SMOOTH",
"513 144 OFFCURVE",
"508 165 OFFCURVE",
"508 181 CURVE SMOOTH",
"508 203 OFFCURVE",
"522 259 OFFCURVE",
"522 279 CURVE SMOOTH",
"522 296 OFFCURVE",
"500 307 OFFCURVE",
"481 307 CURVE SMOOTH",
"464 307 OFFCURVE",
"455 292 OFFCURVE",
"453 261 CURVE",
"421 234 OFFCURVE",
"390 220 OFFCURVE",
"358 220 CURVE SMOOTH",
"308 220 OFFCURVE",
"258 257 OFFCURVE",
"254 307 CURVE SMOOTH",
"249 379 OFFCURVE",
"292 422 OFFCURVE",
"367 422 CURVE SMOOTH",
"389 422 OFFCURVE",
"413 417 OFFCURVE",
"438 407 CURVE SMOOTH",
"467 395 OFFCURVE",
"483 389 OFFCURVE",
"485 389 CURVE SMOOTH",
"494 390 OFFCURVE",
"497 410 OFFCURVE",
"495 450 CURVE SMOOTH",
"494 475 OFFCURVE",
"477 558 OFFCURVE",
"475 581 CURVE SMOOTH",
"475 588 OFFCURVE",
"478 604 OFFCURVE",
"478 611 CURVE SMOOTH",
"477 626 OFFCURVE",
"451 636 OFFCURVE",
"400 640 CURVE SMOOTH",
"382 642 OFFCURVE",
"364 642 OFFCURVE",
"346 642 CURVE SMOOTH",
"332 642 OFFCURVE",
"318 642 OFFCURVE",
"304 641 CURVE SMOOTH",
"263 638 OFFCURVE",
"225 628 OFFCURVE",
"189 612 CURVE SMOOTH",
"142 591 OFFCURVE",
"120 564 OFFCURVE",
"123 531 CURVE SMOOTH",
"124 521 LINE",
"128 524 OFFCURVE",
"130 526 OFFCURVE",
"131 529 CURVE",
"153 563 OFFCURVE",
"191 587 OFFCURVE",
"246 600 CURVE",
"245 592 OFFCURVE",
"244 584 OFFCURVE",
"244 577 CURVE SMOOTH",
"244 524 OFFCURVE",
"281 498 OFFCURVE",
"355 498 CURVE SMOOTH",
"366 498 OFFCURVE",
"386 499 OFFCURVE",
"415 501 CURVE SMOOTH",
"429 502 OFFCURVE",
"440 506 OFFCURVE",
"449 511 CURVE",
"453 485 LINE SMOOTH",
"456 464 OFFCURVE",
"442 454 OFFCURVE",
"414 450 CURVE SMOOTH",
"407 449 OFFCURVE",
"395 449 OFFCURVE",
"380 450 CURVE SMOOTH",
"365 451 OFFCURVE",
"353 451 OFFCURVE",
"345 451 CURVE SMOOTH",
"326 450 OFFCURVE",
"308 444 OFFCURVE",
"289 435 CURVE",
"268 433 OFFCURVE",
"239 442 OFFCURVE",
"203 463 CURVE SMOOTH",
"167 484 OFFCURVE",
"136 493 OFFCURVE",
"110 490 CURVE SMOOTH",
"88 487 LINE",
"102 510 OFFCURVE",
"109 522 OFFCURVE",
"109 525 CURVE SMOOTH",
"108 529 OFFCURVE",
"106 531 OFFCURVE",
"102 531 CURVE SMOOTH",
"100 531 LINE SMOOTH",
"95 531 OFFCURVE",
"90 527 OFFCURVE",
"85 520 CURVE",
"78 513 OFFCURVE",
"34 430 OFFCURVE",
"29 418 CURVE SMOOTH",
"18 391 OFFCURVE",
"12 361 OFFCURVE",
"12 328 CURVE SMOOTH",
"12 263 OFFCURVE",
"30 155 OFFCURVE",
"77 108 CURVE SMOOTH",
"154 31 OFFCURVE",
"238 -7 OFFCURVE",
"329 -7 CURVE SMOOTH"
);
},
{
closed = 1;
nodes = (
"281 9 OFFCURVE",
"217 27 OFFCURVE",
"160 66 CURVE SMOOTH",
"103 105 OFFCURVE",
"63 158 OFFCURVE",
"42 225 CURVE",
"71 214 OFFCURVE",
"96 208 OFFCURVE",
"116 210 CURVE SMOOTH",
"148 213 LINE",
"171 213 OFFCURVE",
"185 204 OFFCURVE",
"189 185 CURVE SMOOTH",
"196 150 OFFCURVE",
"203 125 OFFCURVE",
"212 111 CURVE SMOOTH",
"225 91 OFFCURVE",
"246 81 OFFCURVE",
"273 81 CURVE SMOOTH",
"287 81 OFFCURVE",
"307 85 OFFCURVE",
"331 101 CURVE SMOOTH",
"351 114 OFFCURVE",
"368 120 OFFCURVE",
"381 120 CURVE SMOOTH",
"396 120 OFFCURVE",
"423 112 OFFCURVE",
"438 112 CURVE SMOOTH",
"468 112 OFFCURVE",
"488 128 OFFCURVE",
"499 156 CURVE",
"504 49 LINE",
"472 30 OFFCURVE",
"421 19 OFFCURVE",
"352 14 CURVE SMOOTH"
);
},
{
closed = 1;
nodes = (
"49 250 OFFCURVE",
"35 270 OFFCURVE",
"35 313 CURVE SMOOTH",
"35 329 OFFCURVE",
"38 348 OFFCURVE",
"43 372 CURVE SMOOTH",
"50 407 OFFCURVE",
"61 422 OFFCURVE",
"75 422 CURVE SMOOTH",
"92 422 OFFCURVE",
"110 412 OFFCURVE",
"128 389 CURVE SMOOTH",
"147 366 OFFCURVE",
"157 345 OFFCURVE",
"157 326 CURVE SMOOTH",
"157 308 OFFCURVE",
"149 292 OFFCURVE",
"131 277 CURVE SMOOTH",
"110 261 OFFCURVE",
"92 250 OFFCURVE",
"72 250 CURVE SMOOTH"
);
}
);
width = 546;
}
);
leftKerningGroup = O;
leftMetricsKey = O;
note = C;
rightKerningGroup = C;
unicode = 0043;
},
{
glyphname = D;
lastChange = "2021-11-24 21:21:13 +0000";
layers = (
{
anchors = (
{
name = bottom;
position = "{318, 0}";
},
{
name = center;
position = "{156, 325}";
},
{
name = top;
position = "{318, 650}";
}
);
layerId = "F72AA8BB-7F63-4F07-AEAC-030E55A5CABB";
paths = (
{
closed = 1;
nodes = (
"279 4 OFFCURVE",
"366 9 OFFCURVE",
"415 20 CURVE SMOOTH",
"521 44 OFFCURVE",
"580 96 OFFCURVE",
"592 177 CURVE",
"619 216 OFFCURVE",
"633 266 OFFCURVE",
"633 325 CURVE SMOOTH",
"633 529 OFFCURVE",
"519 616 OFFCURVE",
"328 638 CURVE SMOOTH",
"283 643 OFFCURVE",
"199 646 OFFCURVE",
"74 646 CURVE SMOOTH",
"49 646 OFFCURVE",
"37 636 OFFCURVE",
"37 615 CURVE SMOOTH",
"37 459 OFFCURVE",
"34 304 OFFCURVE",
"20 149 CURVE SMOOTH",
"17 112 OFFCURVE",
"15 81 OFFCURVE",
"15 56 CURVE SMOOTH",
"15 23 OFFCURVE",
"23 7 OFFCURVE",
"40 7 CURVE SMOOTH",
"43 7 OFFCURVE",
"47 8 OFFCURVE",
"52 11 CURVE",
"59 6 OFFCURVE",
"93 4 OFFCURVE",
"156 4 CURVE SMOOTH"
);
},
{
closed = 1;
nodes = (
"260 48 LINE",
"266 62 OFFCURVE",
"269 79 OFFCURVE",
"269 100 CURVE SMOOTH",
"269 134 OFFCURVE",
"257 158 OFFCURVE",
"234 173 CURVE",
"213 182 OFFCURVE",
"191 192 OFFCURVE",
"170 202 CURVE",
"147 216 OFFCURVE",
"136 240 OFFCURVE",
"136 275 CURVE SMOOTH",
"136 280 OFFCURVE",
"137 288 OFFCURVE",
"139 299 CURVE SMOOTH",
"141 310 OFFCURVE",
"141 318 OFFCURVE",
"141 323 CURVE SMOOTH",
"141 361 OFFCURVE",
"108 387 OFFCURVE",
"72 389 CURVE",
"72 410 OFFCURVE",
"71 442 OFFCURVE",
"69 485 CURVE SMOOTH",
"67 528 OFFCURVE",
"65 560 OFFCURVE",
"65 581 CURVE SMOOTH",
"65 604 OFFCURVE",
"88 615 OFFCURVE",
"135 615 CURVE SMOOTH",
"142 615 OFFCURVE",
"152 615 OFFCURVE",
"165 614 CURVE SMOOTH",
"177 613 OFFCURVE",
"185 613 OFFCURVE",
"188 613 CURVE SMOOTH",
"212 613 OFFCURVE",
"231 613 OFFCURVE",
"245 612 CURVE",
"206 569 OFFCURVE",
"187 524 OFFCURVE",
"187 475 CURVE SMOOTH",
"187 431 OFFCURVE",
"206 401 OFFCURVE",
"245 384 CURVE",
"243 361 OFFCURVE",
"243 340 OFFCURVE",
"243 322 CURVE SMOOTH",
"243 265 OFFCURVE",
"251 236 OFFCURVE",
"267 236 CURVE SMOOTH",
"275 236 OFFCURVE",
"279 246 OFFCURVE",
"279 267 CURVE SMOOTH",
"279 414 LINE",
"280 421 OFFCURVE",
"285 424 OFFCURVE",
"294 424 CURVE SMOOTH",
"363 424 OFFCURVE",
"398 387 OFFCURVE",
"398 313 CURVE SMOOTH",
"398 256 OFFCURVE",
"340 221 OFFCURVE",
"288 221 CURVE",
"271 224 LINE SMOOTH",
"267 225 OFFCURVE",
"264 225 OFFCURVE",
"260 225 CURVE SMOOTH",
"256 225 OFFCURVE",
"252 225 OFFCURVE",
"249 224 CURVE SMOOTH",
"242 223 OFFCURVE",
"238 221 OFFCURVE",
"238 217 CURVE SMOOTH",
"238 199 OFFCURVE",
"254 190 OFFCURVE",
"285 190 CURVE SMOOTH",
"349 190 OFFCURVE",
"385 204 OFFCURVE",
"415 263 CURVE",
"442 261 OFFCURVE",
"468 267 OFFCURVE",
"491 281 CURVE SMOOTH",
"505 289 OFFCURVE",
"523 306 OFFCURVE",
"547 330 CURVE SMOOTH",
"571 354 OFFCURVE",
"589 371 OFFCURVE",
"604 380 CURVE",
"606 367 OFFCURVE",
"607 353 OFFCURVE",
"607 339 CURVE SMOOTH",
"607 308 OFFCURVE",
"602 273 OFFCURVE",
"591 236 CURVE",
"588 242 OFFCURVE",
"585 245 OFFCURVE",
"580 245 CURVE SMOOTH",
"575 245 OFFCURVE",
"569 242 OFFCURVE",
"564 237 CURVE",
"565 212 OFFCURVE",
"565 194 OFFCURVE",
"566 182 CURVE",
"545 158 OFFCURVE",
"529 141 OFFCURVE",
"518 131 CURVE SMOOTH",
"515 128 OFFCURVE",
"514 127 OFFCURVE",
"514 126 CURVE SMOOTH",
"514 122 OFFCURVE",
"516 120 OFFCURVE",
"520 120 CURVE SMOOTH",
"531 120 LINE",
"516 102 OFFCURVE",
"495 87 OFFCURVE",
"467 74 CURVE",
"462 83 OFFCURVE",
"460 90 OFFCURVE",
"460 95 CURVE SMOOTH",
"460 104 OFFCURVE",
"466 114 OFFCURVE",
"478 126 CURVE SMOOTH",
"490 138 OFFCURVE",
"496 149 OFFCURVE",
"496 158 CURVE SMOOTH",
"496 183 OFFCURVE",
"475 203 OFFCURVE",
"450 203 CURVE SMOOTH",
"430 203 OFFCURVE",
"418 198 OFFCURVE",
"413 187 CURVE SMOOTH",
"408 176 OFFCURVE",
"404 164 OFFCURVE",
"400 153 CURVE",
"397 149 OFFCURVE",
"390 144 OFFCURVE",
"379 139 CURVE SMOOTH",
"368 134 OFFCURVE",
"360 126 OFFCURVE",
"355 119 CURVE SMOOTH",
"347 108 OFFCURVE",
"346 90 OFFCURVE",
"347 67 CURVE SMOOTH",
"348 45 LINE"
);
}
);
width = 645;
}
);
leftKerningGroup = H;
leftMetricsKey = H;
note = D;
rightKerningGroup = O;
rightMetricsKey = O;
unicode = 0044;
},
{
glyphname = Eth;
lastChange = "2021-11-24 21:21:22 +0000";
layers = (
{
layerId = "F72AA8BB-7F63-4F07-AEAC-030E55A5CABB";
paths = (
{
closed = 1;
nodes = (
"102 242 LINE",
"114 340 LINE",
"66 338 LINE",
"62 339 OFFCURVE",
"41 340 OFFCURVE",
"4 342 CURVE SMOOTH",
"-10 343 OFFCURVE",
"-20 343 OFFCURVE",
"-28 343 CURVE SMOOTH",
"-36 343 OFFCURVE",
"-42 343 OFFCURVE",
"-44 342 CURVE SMOOTH",
"-56 338 OFFCURVE",
"-62 334 OFFCURVE",
"-62 326 CURVE SMOOTH",
"-62 321 OFFCURVE",
"-58 283 OFFCURVE",
"-58 280 CURVE SMOOTH",
"-58 279 OFFCURVE",
"-61 266 OFFCURVE",
"-61 258 CURVE SMOOTH",
"-61 256 LINE SMOOTH",
"-60 251 OFFCURVE",
"-58 249 OFFCURVE",
"-54 248 CURVE SMOOTH",
"-45 247 OFFCURVE",
"-33 247 OFFCURVE",
"-17 248 CURVE SMOOTH",
"-10 249 OFFCURVE",
"-4 253 OFFCURVE",
"0 262 CURVE SMOOTH",
"4 270 OFFCURVE",
"7 274 OFFCURVE",
"11 274 CURVE SMOOTH",
"44 274 OFFCURVE",
"60 270 OFFCURVE",
"60 261 CURVE SMOOTH",
"60 256 OFFCURVE",
"52 246 OFFCURVE",
"52 245 CURVE SMOOTH",
"52 244 OFFCURVE",
"53 244 OFFCURVE",
"54 244 CURVE SMOOTH",
"63 243 OFFCURVE",
"73 242 OFFCURVE",
"84 242 CURVE SMOOTH"
);
},
{
closed = 1;
nodes = (
"366 244 OFFCURVE",
"373 249 OFFCURVE",
"374 259 CURVE SMOOTH",
"374 265 OFFCURVE",
"371 283 OFFCURVE",
"371 285 CURVE SMOOTH",
"371 326 LINE",
"373 338 OFFCURVE",
"364 344 OFFCURVE",
"345 344 CURVE SMOOTH",
"318 344 OFFCURVE",
"297 341 OFFCURVE",
"281 338 CURVE",
"281 280 LINE",
"299 282 OFFCURVE",
"318 286 OFFCURVE",
"338 291 CURVE",
"337 286 OFFCURVE",
"337 283 OFFCURVE",
"337 280 CURVE SMOOTH",
"337 278 LINE SMOOTH",
"337 275 OFFCURVE",
"343 267 OFFCURVE",
"343 265 CURVE SMOOTH",
"343 263 OFFCURVE",
"340 262 OFFCURVE",
"334 262 CURVE SMOOTH",
"318 262 OFFCURVE",
"301 262 OFFCURVE",
"284 263 CURVE",
"284 252 LINE",
"297 252 OFFCURVE",
"309 252 OFFCURVE",
"319 250 CURVE",
"323 250 OFFCURVE",
"333 248 OFFCURVE",
"350 246 CURVE SMOOTH"
);
},
{
closed = 1;
nodes = (
"294 4 OFFCURVE",
"381 9 OFFCURVE",
"430 20 CURVE SMOOTH",
"536 44 OFFCURVE",
"595 96 OFFCURVE",
"607 177 CURVE",
"634 216 OFFCURVE",
"648 266 OFFCURVE",
"648 325 CURVE SMOOTH",
"648 529 OFFCURVE",
"534 616 OFFCURVE",
"343 638 CURVE SMOOTH",
"298 643 OFFCURVE",
"214 646 OFFCURVE",
"89 646 CURVE SMOOTH",
"64 646 OFFCURVE",
"52 636 OFFCURVE",
"52 615 CURVE SMOOTH",
"52 459 OFFCURVE",
"49 304 OFFCURVE",
"35 149 CURVE SMOOTH",
"32 112 OFFCURVE",
"30 81 OFFCURVE",
"30 56 CURVE SMOOTH",
"30 23 OFFCURVE",
"38 7 OFFCURVE",
"55 7 CURVE SMOOTH",
"58 7 OFFCURVE",
"62 8 OFFCURVE",
"67 11 CURVE",
"74 6 OFFCURVE",
"108 4 OFFCURVE",
"171 4 CURVE SMOOTH"
);
},
{
closed = 1;
nodes = (
"275 48 LINE",
"281 62 OFFCURVE",
"284 79 OFFCURVE",
"284 100 CURVE SMOOTH",
"284 134 OFFCURVE",
"272 158 OFFCURVE",
"249 173 CURVE",
"228 182 OFFCURVE",
"206 192 OFFCURVE",
"185 202 CURVE",
"162 216 OFFCURVE",
"151 240 OFFCURVE",
"151 275 CURVE SMOOTH",
"151 280 OFFCURVE",
"152 288 OFFCURVE",
"154 299 CURVE SMOOTH",
"156 310 OFFCURVE",
"156 318 OFFCURVE",
"156 323 CURVE SMOOTH",
"156 361 OFFCURVE",
"123 387 OFFCURVE",
"87 389 CURVE",
"87 410 OFFCURVE",
"86 442 OFFCURVE",
"84 485 CURVE SMOOTH",
"82 528 OFFCURVE",
"80 560 OFFCURVE",
"80 581 CURVE SMOOTH",
"80 604 OFFCURVE",
"103 615 OFFCURVE",
"150 615 CURVE SMOOTH",
"157 615 OFFCURVE",
"167 615 OFFCURVE",
"180 614 CURVE SMOOTH",
"192 613 OFFCURVE",
"200 613 OFFCURVE",
"203 613 CURVE SMOOTH",
"227 613 OFFCURVE",
"246 613 OFFCURVE",
"260 612 CURVE",
"221 569 OFFCURVE",
"202 524 OFFCURVE",
"202 475 CURVE SMOOTH",
"202 431 OFFCURVE",
"221 401 OFFCURVE",
"260 384 CURVE",
"258 361 OFFCURVE",
"258 340 OFFCURVE",
"258 322 CURVE SMOOTH",
"258 265 OFFCURVE",
"266 236 OFFCURVE",
"282 236 CURVE SMOOTH",
"290 236 OFFCURVE",
"294 246 OFFCURVE",
"294 267 CURVE SMOOTH",
"294 414 LINE",
"295 421 OFFCURVE",
"300 424 OFFCURVE",
"309 424 CURVE SMOOTH",
"378 424 OFFCURVE",
"413 387 OFFCURVE",
"413 313 CURVE SMOOTH",
"413 256 OFFCURVE",
"355 221 OFFCURVE",
"303 221 CURVE",
"286 224 LINE SMOOTH",
"282 225 OFFCURVE",
"279 225 OFFCURVE",
"275 225 CURVE SMOOTH",
"271 225 OFFCURVE",
"267 225 OFFCURVE",
"264 224 CURVE SMOOTH",
"257 223 OFFCURVE",
"253 221 OFFCURVE",
"253 217 CURVE SMOOTH",
"253 199 OFFCURVE",
"269 190 OFFCURVE",
"300 190 CURVE SMOOTH",
"364 190 OFFCURVE",
"400 204 OFFCURVE",
"430 263 CURVE",
"457 261 OFFCURVE",
"483 267 OFFCURVE",
"506 281 CURVE SMOOTH",
"520 289 OFFCURVE",
"538 306 OFFCURVE",
"562 330 CURVE SMOOTH",
"586 354 OFFCURVE",
"604 371 OFFCURVE",
"619 380 CURVE",
"621 367 OFFCURVE",
"622 353 OFFCURVE",
"622 339 CURVE SMOOTH",
"622 308 OFFCURVE",
"617 273 OFFCURVE",
"606 236 CURVE",
"603 242 OFFCURVE",
"600 245 OFFCURVE",
"595 245 CURVE SMOOTH",
"590 245 OFFCURVE",
"584 242 OFFCURVE",
"579 237 CURVE",
"580 212 OFFCURVE",
"580 194 OFFCURVE",
"581 182 CURVE",
"560 158 OFFCURVE",
"544 141 OFFCURVE",
"533 131 CURVE SMOOTH",
"530 128 OFFCURVE",
"529 127 OFFCURVE",
"529 126 CURVE SMOOTH",
"529 122 OFFCURVE",
"531 120 OFFCURVE",
"535 120 CURVE SMOOTH",
"546 120 LINE",
"531 102 OFFCURVE",
"510 87 OFFCURVE",
"482 74 CURVE",
"477 83 OFFCURVE",
"475 90 OFFCURVE",
"475 95 CURVE SMOOTH",
"475 104 OFFCURVE",
"481 114 OFFCURVE",
"493 126 CURVE SMOOTH",
"505 138 OFFCURVE",
"511 149 OFFCURVE",
"511 158 CURVE SMOOTH",
"511 183 OFFCURVE",
"490 203 OFFCURVE",
"465 203 CURVE SMOOTH",
"445 203 OFFCURVE",
"433 198 OFFCURVE",
"428 187 CURVE SMOOTH",
"423 176 OFFCURVE",
"419 164 OFFCURVE",
"415 153 CURVE",
"412 149 OFFCURVE",
"405 144 OFFCURVE",
"394 139 CURVE SMOOTH",
"383 134 OFFCURVE",
"375 126 OFFCURVE",
"370 119 CURVE SMOOTH",
"362 108 OFFCURVE",
"361 90 OFFCURVE",
"362 67 CURVE SMOOTH",
"363 45 LINE"
);
}
);
width = 660;
}
);
leftKerningGroup = H;
rightKerningGroup = O;
rightMetricsKey = D;
unicode = 00D0;
},
{
glyphname = Dcroat;
lastChange = "2021-11-24 21:21:31 +0000";
layers = (
{
anchors = (
{
name = bottom;
position = "{333, 0}";
},
{
name = center;
position = "{171, 325}";
},
{
name = top;
position = "{333, 650}";
}
);
layerId = "F72AA8BB-7F63-4F07-AEAC-030E55A5CABB";
paths = (
{
closed = 1;
nodes = (
"102 242 LINE",
"114 340 LINE",
"66 338 LINE",
"62 339 OFFCURVE",
"41 340 OFFCURVE",
"4 342 CURVE SMOOTH",
"-10 343 OFFCURVE",
"-20 343 OFFCURVE",
"-28 343 CURVE SMOOTH",
"-36 343 OFFCURVE",
"-42 343 OFFCURVE",
"-44 342 CURVE SMOOTH",
"-56 338 OFFCURVE",
"-62 334 OFFCURVE",
"-62 326 CURVE SMOOTH",
"-62 321 OFFCURVE",
"-58 283 OFFCURVE",
"-58 280 CURVE SMOOTH",
"-58 279 OFFCURVE",
"-61 266 OFFCURVE",
"-61 258 CURVE SMOOTH",
"-61 256 LINE SMOOTH",
"-60 251 OFFCURVE",
"-58 249 OFFCURVE",
"-54 248 CURVE SMOOTH",
"-45 247 OFFCURVE",
"-33 247 OFFCURVE",
"-17 248 CURVE SMOOTH",
"-10 249 OFFCURVE",
"-4 253 OFFCURVE",
"0 262 CURVE SMOOTH",
"4 270 OFFCURVE",
"7 274 OFFCURVE",
"11 274 CURVE SMOOTH",
"44 274 OFFCURVE",
"60 270 OFFCURVE",
"60 261 CURVE SMOOTH",
"60 256 OFFCURVE",
"52 246 OFFCURVE",
"52 245 CURVE SMOOTH",
"52 244 OFFCURVE",
"53 244 OFFCURVE",
"54 244 CURVE SMOOTH",
"63 243 OFFCURVE",
"73 242 OFFCURVE",
"84 242 CURVE SMOOTH"
);
},
{
closed = 1;
nodes = (
"366 244 OFFCURVE",
"373 249 OFFCURVE",
"374 259 CURVE SMOOTH",
"374 265 OFFCURVE",
"371 283 OFFCURVE",
"371 285 CURVE SMOOTH",
"371 326 LINE",
"373 338 OFFCURVE",
"364 344 OFFCURVE",
"345 344 CURVE SMOOTH",
"318 344 OFFCURVE",
"297 341 OFFCURVE",
"281 338 CURVE",
"281 280 LINE",
"299 282 OFFCURVE",
"318 286 OFFCURVE",
"338 291 CURVE",
"337 286 OFFCURVE",
"337 283 OFFCURVE",
"337 280 CURVE SMOOTH",
"337 278 LINE SMOOTH",
"337 275 OFFCURVE",
"343 267 OFFCURVE",
"343 265 CURVE SMOOTH",
"343 263 OFFCURVE",
"340 262 OFFCURVE",
"334 262 CURVE SMOOTH",
"318 262 OFFCURVE",
"301 262 OFFCURVE",
"284 263 CURVE",
"284 252 LINE",
"297 252 OFFCURVE",
"309 252 OFFCURVE",
"319 250 CURVE",
"323 250 OFFCURVE",
"333 248 OFFCURVE",
"350 246 CURVE SMOOTH"
);
},
{
closed = 1;
nodes = (
"294 4 OFFCURVE",
"381 9 OFFCURVE",
"430 20 CURVE SMOOTH",
"536 44 OFFCURVE",
"595 96 OFFCURVE",
"607 177 CURVE",
"634 216 OFFCURVE",
"648 266 OFFCURVE",
"648 325 CURVE SMOOTH",
"648 529 OFFCURVE",
"534 616 OFFCURVE",
"343 638 CURVE SMOOTH",
"298 643 OFFCURVE",
"214 646 OFFCURVE",
"89 646 CURVE SMOOTH",
"64 646 OFFCURVE",
"52 636 OFFCURVE",
"52 615 CURVE SMOOTH",
"52 459 OFFCURVE",
"49 304 OFFCURVE",
"35 149 CURVE SMOOTH",
"32 112 OFFCURVE",
"30 81 OFFCURVE",
"30 56 CURVE SMOOTH",
"30 23 OFFCURVE",
"38 7 OFFCURVE",
"55 7 CURVE SMOOTH",
"58 7 OFFCURVE",
"62 8 OFFCURVE",
"67 11 CURVE",
"74 6 OFFCURVE",
"108 4 OFFCURVE",
"171 4 CURVE SMOOTH"
);
},
{
closed = 1;
nodes = (
"275 48 LINE",
"281 62 OFFCURVE",
"284 79 OFFCURVE",
"284 100 CURVE SMOOTH",
"284 134 OFFCURVE",
"272 158 OFFCURVE",
"249 173 CURVE",
"228 182 OFFCURVE",
"206 192 OFFCURVE",
"185 202 CURVE",
"162 216 OFFCURVE",
"151 240 OFFCURVE",
"151 275 CURVE SMOOTH",
"151 280 OFFCURVE",
"152 288 OFFCURVE",
"154 299 CURVE SMOOTH",
"156 310 OFFCURVE",
"156 318 OFFCURVE",
"156 323 CURVE SMOOTH",
"156 361 OFFCURVE",
"123 387 OFFCURVE",
"87 389 CURVE",
"87 410 OFFCURVE",
"86 442 OFFCURVE",
"84 485 CURVE SMOOTH",
"82 528 OFFCURVE",
"80 560 OFFCURVE",
"80 581 CURVE SMOOTH",
"80 604 OFFCURVE",
"103 615 OFFCURVE",
"150 615 CURVE SMOOTH",
"157 615 OFFCURVE",
"167 615 OFFCURVE",
"180 614 CURVE SMOOTH",
"192 613 OFFCURVE",
"200 613 OFFCURVE",
"203 613 CURVE SMOOTH",
"227 613 OFFCURVE",
"246 613 OFFCURVE",
"260 612 CURVE",
"221 569 OFFCURVE",
"202 524 OFFCURVE",
"202 475 CURVE SMOOTH",
"202 431 OFFCURVE",
"221 401 OFFCURVE",
"260 384 CURVE",
"258 361 OFFCURVE",
"258 340 OFFCURVE",
"258 322 CURVE SMOOTH",
"258 265 OFFCURVE",
"266 236 OFFCURVE",
"282 236 CURVE SMOOTH",
"290 236 OFFCURVE",
"294 246 OFFCURVE",
"294 267 CURVE SMOOTH",
"294 414 LINE",
"295 421 OFFCURVE",
"300 424 OFFCURVE",
"309 424 CURVE SMOOTH",
"378 424 OFFCURVE",
"413 387 OFFCURVE",
"413 313 CURVE SMOOTH",
"413 256 OFFCURVE",
"355 221 OFFCURVE",
"303 221 CURVE",
"286 224 LINE SMOOTH",
"282 225 OFFCURVE",
"279 225 OFFCURVE",
"275 225 CURVE SMOOTH",
"271 225 OFFCURVE",
"267 225 OFFCURVE",
"264 224 CURVE SMOOTH",
"257 223 OFFCURVE",
"253 221 OFFCURVE",
"253 217 CURVE SMOOTH",
"253 199 OFFCURVE",
"269 190 OFFCURVE",
"300 190 CURVE SMOOTH",
"364 190 OFFCURVE",
"400 204 OFFCURVE",
"430 263 CURVE",
"457 261 OFFCURVE",
"483 267 OFFCURVE",
"506 281 CURVE SMOOTH",
"520 289 OFFCURVE",
"538 306 OFFCURVE",
"562 330 CURVE SMOOTH",
"586 354 OFFCURVE",
"604 371 OFFCURVE",
"619 380 CURVE",
"621 367 OFFCURVE",
"622 353 OFFCURVE",
"622 339 CURVE SMOOTH",
"622 308 OFFCURVE",
"617 273 OFFCURVE",
"606 236 CURVE",
"603 242 OFFCURVE",
"600 245 OFFCURVE",
"595 245 CURVE SMOOTH",
"590 245 OFFCURVE",
"584 242 OFFCURVE",
"579 237 CURVE",
"580 212 OFFCURVE",
"580 194 OFFCURVE",
"581 182 CURVE",
"560 158 OFFCURVE",
"544 141 OFFCURVE",
"533 131 CURVE SMOOTH",
"530 128 OFFCURVE",
"529 127 OFFCURVE",
"529 126 CURVE SMOOTH",
"529 122 OFFCURVE",
"531 120 OFFCURVE",
"535 120 CURVE SMOOTH",
"546 120 LINE",
"531 102 OFFCURVE",
"510 87 OFFCURVE",
"482 74 CURVE",
"477 83 OFFCURVE",
"475 90 OFFCURVE",
"475 95 CURVE SMOOTH",
"475 104 OFFCURVE",
"481 114 OFFCURVE",
"493 126 CURVE SMOOTH",
"505 138 OFFCURVE",
"511 149 OFFCURVE",
"511 158 CURVE SMOOTH",
"511 183 OFFCURVE",
"490 203 OFFCURVE",
"465 203 CURVE SMOOTH",
"445 203 OFFCURVE",
"433 198 OFFCURVE",
"428 187 CURVE SMOOTH",
"423 176 OFFCURVE",
"419 164 OFFCURVE",
"415 153 CURVE",
"412 149 OFFCURVE",
"405 144 OFFCURVE",
"394 139 CURVE SMOOTH",
"383 134 OFFCURVE",
"375 126 OFFCURVE",
"370 119 CURVE SMOOTH",
"362 108 OFFCURVE",
"361 90 OFFCURVE",
"362 67 CURVE SMOOTH",
"363 45 LINE"
);
}
);
width = 666;
}
);
leftKerningGroup = H;
rightKerningGroup = O;
unicode = 0110;
},
{
glyphname = E;
lastChange = "2021-11-24 21:21:42 +0000";
layers = (
{
anchors = (
{
name = bottom;
position = "{300, 15}";
},
{
name = ogonek;
position = "{451, 37}";
},
{
name = top;
position = "{247, 650}";
},
{
name = topleft;
position = "{10, 650}";
}
);
layerId = "F72AA8BB-7F63-4F07-AEAC-030E55A5CABB";
paths = (
{
closed = 1;
nodes = (
"119 -3 OFFCURVE",
"168 1 OFFCURVE",
"234 8 CURVE SMOOTH",
"302 15 OFFCURVE",
"353 20 OFFCURVE",
"385 20 CURVE SMOOTH",
"412 20 OFFCURVE",
"482 10 OFFCURVE",
"495 10 CURVE SMOOTH",
"510 11 OFFCURVE",
"519 30 OFFCURVE",
"519 68 CURVE SMOOTH",
"519 75 OFFCURVE",
"519 83 OFFCURVE",
"518 91 CURVE SMOOTH",
"517 104 OFFCURVE",
"514 122 OFFCURVE",
"508 146 CURVE SMOOTH",
"496 195 OFFCURVE",
"496 219 OFFCURVE",
"496 220 CURVE",
"494 225 OFFCURVE",
"489 227 OFFCURVE",
"480 227 CURVE",
"431 221 OFFCURVE",
"394 215 OFFCURVE",
"369 210 CURVE",
"303 207 LINE",
"301 226 OFFCURVE",
"297 241 OFFCURVE",
"290 254 CURVE",
"301 255 LINE",
"309 242 OFFCURVE",
"339 237 OFFCURVE",
"391 237 CURVE SMOOTH",
"406 237 OFFCURVE",
"422 237 OFFCURVE",
"440 238 CURVE SMOOTH",
"459 239 OFFCURVE",
"468 247 OFFCURVE",
"468 263 CURVE SMOOTH",
"468 271 OFFCURVE",
"467 277 OFFCURVE",
"461 280 CURVE",
"462 285 OFFCURVE",
"465 308 OFFCURVE",
"470 348 CURVE SMOOTH",
"475 388 OFFCURVE",
"477 410 OFFCURVE",
"477 413 CURVE SMOOTH",
"477 426 OFFCURVE",
"465 432 OFFCURVE",
"442 432 CURVE SMOOTH",
"427 432 OFFCURVE",
"400 429 OFFCURVE",
"363 426 CURVE SMOOTH",
"330 423 OFFCURVE",
"305 420 OFFCURVE",
"288 419 CURVE",
"288 450 LINE SMOOTH",
"288 455 OFFCURVE",
"317 455 OFFCURVE",
"374 461 CURVE SMOOTH",
"383 462 OFFCURVE",
"398 462 OFFCURVE",
"417 461 CURVE SMOOTH",
"430 460 OFFCURVE",
"442 460 OFFCURVE",
"451 460 CURVE SMOOTH",
"468 460 OFFCURVE",
"477 464 OFFCURVE",
"477 475 CURVE SMOOTH",
"477 479 LINE SMOOTH",
"476 484 OFFCURVE",
"474 488 OFFCURVE",
"471 492 CURVE",
"466 581 LINE SMOOTH",
"465 598 OFFCURVE",
"466 614 OFFCURVE",
"467 630 CURVE",
"465 649 OFFCURVE",
"458 659 OFFCURVE",
"445 659 CURVE SMOOTH",
"423 659 OFFCURVE",
"330 644 OFFCURVE",
"304 643 CURVE SMOOTH",
"285 642 OFFCURVE",
"256 641 OFFCURVE",
"218 640 CURVE SMOOTH",
"179 639 OFFCURVE",
"151 637 OFFCURVE",
"132 636 CURVE SMOOTH",
"117 636 OFFCURVE",
"83 642 OFFCURVE",
"65 642 CURVE SMOOTH",
"40 642 OFFCURVE",
"24 621 OFFCURVE",
"24 596 CURVE SMOOTH",
"24 574 OFFCURVE",
"44 476 OFFCURVE",
"45 448 CURVE SMOOTH",
"46 424 OFFCURVE",
"48 388 OFFCURVE",
"49 339 CURVE SMOOTH",
"50 290 OFFCURVE",
"51 254 OFFCURVE",
"52 230 CURVE SMOOTH",
"53 205 OFFCURVE",
"64 126 OFFCURVE",
"66 102 CURVE SMOOTH",
"66 94 OFFCURVE",
"63 76 OFFCURVE",
"63 71 CURVE SMOOTH",
"63 59 OFFCURVE",
"69 53 OFFCURVE",
"82 53 CURVE SMOOTH",
"87 53 LINE SMOOTH",
"93 54 OFFCURVE",
"95 61 OFFCURVE",
"95 75 CURVE SMOOTH",
"95 83 LINE SMOOTH",
"95 173 OFFCURVE",
"90 262 OFFCURVE",
"83 352 CURVE",
"103 350 OFFCURVE",
"123 357 OFFCURVE",
"142 373 CURVE SMOOTH",
"160 389 OFFCURVE",
"169 407 OFFCURVE",
"168 426 CURVE SMOOTH",
"168 438 OFFCURVE",
"156 465 OFFCURVE",
"156 475 CURVE SMOOTH",
"156 492 OFFCURVE",
"168 513 OFFCURVE",
"191 538 CURVE SMOOTH",
"218 567 OFFCURVE",
"234 590 OFFCURVE",
"238 607 CURVE",
"337 610 LINE SMOOTH",
"377 611 OFFCURVE",
"410 615 OFFCURVE",
"435 621 CURVE",
"430 594 OFFCURVE",
"428 575 OFFCURVE",
"429 562 CURVE SMOOTH",
"433 540 OFFCURVE",
"437 524 OFFCURVE",
"440 514 CURVE",
"441 504 LINE",
"433 503 OFFCURVE",
"426 502 OFFCURVE",
"419 500 CURVE",
"421 507 OFFCURVE",
"422 515 OFFCURVE",
"422 522 CURVE SMOOTH",
"422 557 OFFCURVE",
"406 575 OFFCURVE",
"372 575 CURVE SMOOTH",
"320 575 OFFCURVE",
"286 533 OFFCURVE",
"287 482 CURVE",
"275 483 OFFCURVE",
"267 481 OFFCURVE",
"262 478 CURVE SMOOTH",
"256 475 OFFCURVE",
"253 468 OFFCURVE",
"253 459 CURVE SMOOTH",
"253 455 LINE",
"258 437 OFFCURVE",
"263 423 OFFCURVE",
"268 414 CURVE",
"261 405 LINE",
"261 401 OFFCURVE",
"273 399 OFFCURVE",
"296 399 CURVE SMOOTH",
"307 399 OFFCURVE",
"320 399 OFFCURVE",
"335 400 CURVE",
"344 376 OFFCURVE",
"349 346 OFFCURVE",
"384 346 CURVE SMOOTH",
"410 346 OFFCURVE",
"425 358 OFFCURVE",
"431 382 CURVE",
"431 341 OFFCURVE",
"434 308 OFFCURVE",
"440 281 CURVE",
"428 280 OFFCURVE",
"395 273 OFFCURVE",
"382 273 CURVE SMOOTH",
"376 273 LINE",
"353 294 OFFCURVE",
"340 306 OFFCURVE",
"336 309 CURVE SMOOTH",
"322 320 OFFCURVE",
"306 324 OFFCURVE",
"289 324 CURVE SMOOTH",
"229 324 OFFCURVE",
"210 298 OFFCURVE",
"196 247 CURVE SMOOTH",
"191 227 OFFCURVE",
"186 215 OFFCURVE",
"179 212 CURVE SMOOTH",
"147 198 OFFCURVE",
"132 169 OFFCURVE",
"132 129 CURVE SMOOTH",
"132 88 OFFCURVE",
"146 57 OFFCURVE",
"173 37 CURVE",
"129 38 OFFCURVE",
"96 40 OFFCURVE",
"73 41 CURVE",
"61 40 OFFCURVE",
"54 34 OFFCURVE",
"54 21 CURVE SMOOTH",
"54 18 LINE SMOOTH",
"55 2 OFFCURVE",
"65 -6 OFFCURVE",
"86 -5 CURVE SMOOTH"
);
}
);
width = 529;
}
);
leftKerningGroup = H;
note = E;
rightKerningGroup = E;
unicode = 0045;
},
{
glyphname = F;
lastChange = "2021-11-24 18:19:04 +0000";
layers = (
{
layerId = "F72AA8BB-7F63-4F07-AEAC-030E55A5CABB";
paths = (
{
closed = 1;
nodes = (
"283 -10 OFFCURVE",
"294 3 OFFCURVE",
"294 28 CURVE SMOOTH",
"294 19 OFFCURVE",
"291 79 OFFCURVE",
"286 208 CURVE",
"383 213 OFFCURVE",
"433 220 OFFCURVE",
"441 226 CURVE SMOOTH",
"447 231 OFFCURVE",
"450 239 OFFCURVE",
"450 248 CURVE SMOOTH",
"450 294 OFFCURVE",
"450 318 OFFCURVE",
"449 319 CURVE",
"448 350 OFFCURVE",
"442 372 OFFCURVE",
"433 385 CURVE",
"433 387 LINE",
"429 387 LINE",
"420 393 OFFCURVE",
"389 396 OFFCURVE",
"337 396 CURVE SMOOTH",
"308 396 OFFCURVE",
"296 395 OFFCURVE",
"303 394 CURVE",
"291 395 OFFCURVE",
"285 402 OFFCURVE",
"285 415 CURVE SMOOTH",
"285 423 OFFCURVE",
"290 429 OFFCURVE",
"301 436 CURVE SMOOTH",
"317 446 OFFCURVE",
"326 451 OFFCURVE",
"327 452 CURVE",
"327 461 OFFCURVE",
"285 469 OFFCURVE",
"276 469 CURVE SMOOTH",
"260 469 OFFCURVE",
"252 452 OFFCURVE",
"252 419 CURVE SMOOTH",
"252 400 OFFCURVE",
"253 387 OFFCURVE",
"256 380 CURVE SMOOTH",
"261 369 OFFCURVE",
"271 364 OFFCURVE",
"288 364 CURVE SMOOTH",
"347 367 LINE",
"333 360 OFFCURVE",
"326 349 OFFCURVE",
"326 335 CURVE SMOOTH",
"326 314 OFFCURVE",
"355 294 OFFCURVE",
"414 275 CURVE",
"414 271 OFFCURVE",
"416 261 OFFCURVE",
"416 258 CURVE SMOOTH",
"416 253 OFFCURVE",
"412 251 OFFCURVE",
"403 251 CURVE SMOOTH",
"377 251 OFFCURVE",
"298 272 OFFCURVE",
"275 272 CURVE SMOOTH",
"254 272 OFFCURVE",
"244 263 OFFCURVE",
"244 246 CURVE SMOOTH",
"244 236 OFFCURVE",
"249 226 OFFCURVE",
"258 217 CURVE",
"255 172 OFFCURVE",
"253 146 OFFCURVE",
"253 140 CURVE SMOOTH",
"253 83 OFFCURVE",
"254 64 OFFCURVE",
"255 82 CURVE SMOOTH",
"253 54 OFFCURVE",
"246 41 OFFCURVE",
"233 41 CURVE SMOOTH",
"172 42 LINE",
"188 59 OFFCURVE",
"196 78 OFFCURVE",
"196 101 CURVE SMOOTH",
"196 121 OFFCURVE",
"169 171 OFFCURVE",
"169 187 CURVE SMOOTH",
"169 213 OFFCURVE",
"184 238 OFFCURVE",
"214 261 CURVE SMOOTH",
"243 284 OFFCURVE",
"258 305 OFFCURVE",
"258 326 CURVE SMOOTH",
"258 382 OFFCURVE",
"195 416 OFFCURVE",
"145 416 CURVE SMOOTH",
"111 416 OFFCURVE",
"86 403 OFFCURVE",
"70 377 CURVE",
"69 384 OFFCURVE",
"67 391 OFFCURVE",
"63 398 CURVE",
"61 398 LINE SMOOTH",
"54 398 OFFCURVE",
"50 383 OFFCURVE",
"48 352 CURVE SMOOTH",
"40 232 OFFCURVE",
"39 117 OFFCURVE",
"39 8 CURVE SMOOTH",
"39 -3 OFFCURVE",
"43 -9 OFFCURVE",
"51 -9 CURVE SMOOTH",
"73 -9 OFFCURVE",
"146 -3 OFFCURVE",
"168 -3 CURVE SMOOTH",
"188 -3 OFFCURVE",
"241 -10 OFFCURVE",
"262 -10 CURVE SMOOTH"
);
},
{
closed = 1;
nodes = (
"446 428 OFFCURVE",
"456 429 OFFCURVE",
"460 431 CURVE SMOOTH",
"467 434 OFFCURVE",
"470 443 OFFCURVE",
"470 456 CURVE SMOOTH",
"470 479 OFFCURVE",
"468 557 OFFCURVE",
"468 580 CURVE SMOOTH",
"468 591 OFFCURVE",
"476 617 OFFCURVE",
"476 628 CURVE SMOOTH",
"476 641 OFFCURVE",
"464 648 OFFCURVE",
"439 648 CURVE SMOOTH",
"416 648 OFFCURVE",
"382 646 OFFCURVE",
"335 641 CURVE SMOOTH",
"288 636 OFFCURVE",
"252 633 OFFCURVE",
"228 633 CURVE SMOOTH",
"210 633 OFFCURVE",
"183 637 OFFCURVE",
"147 644 CURVE SMOOTH",
"111 651 OFFCURVE",
"84 654 OFFCURVE",
"67 654 CURVE SMOOTH",
"39 654 OFFCURVE",
"25 643 OFFCURVE",
"25 621 CURVE SMOOTH",
"25 603 OFFCURVE",
"48 527 OFFCURVE",
"61 516 CURVE",
"64 519 OFFCURVE",
"66 523 OFFCURVE",
"66 526 CURVE SMOOTH",
"67 541 OFFCURVE",
"69 556 OFFCURVE",
"70 571 CURVE SMOOTH",
"72 582 OFFCURVE",
"82 589 OFFCURVE",
"101 591 CURVE",
"98 574 OFFCURVE",
"96 564 OFFCURVE",
"96 559 CURVE SMOOTH",
"96 514 OFFCURVE",
"160 476 OFFCURVE",
"201 476 CURVE SMOOTH",
"228 476 OFFCURVE",
"253 486 OFFCURVE",
"276 505 CURVE SMOOTH",
"299 524 OFFCURVE",
"318 533 OFFCURVE",
"333 533 CURVE SMOOTH",
"344 533 OFFCURVE",
"371 526 OFFCURVE",
"383 526 CURVE SMOOTH",
"400 526 OFFCURVE",
"419 531 OFFCURVE",
"439 540 CURVE",
"439 523 OFFCURVE",
"441 496 OFFCURVE",
"441 491 CURVE SMOOTH",
"441 470 OFFCURVE",
"436 469 OFFCURVE",
"391 458 CURVE",
"383 450 LINE",
"383 434 OFFCURVE",
"418 428 OFFCURVE",
"430 428 CURVE SMOOTH"
);
}
);
width = 482;
}
);
note = F;
unicode = 0046;
},
{
glyphname = G;
lastChange = "2021-11-24 18:27:08 +0000";
layers = (
{
anchors = (
{
name = bottom;
position = "{379, 17}";
},
{
name = top;
position = "{341, 650}";
}
);
layerId = "F72AA8BB-7F63-4F07-AEAC-030E55A5CABB";
paths = (
{
closed = 1;
nodes = (
"391 188 OFFCURVE",
"452 214 OFFCURVE",
"452 261 CURVE SMOOTH",
"452 264 OFFCURVE",
"452 267 OFFCURVE",
"451 268 CURVE",
"448 268 OFFCURVE",
"438 259 OFFCURVE",
"419 240 CURVE SMOOTH",
"399 220 OFFCURVE",
"379 212 OFFCURVE",
"356 212 CURVE SMOOTH",
"288 212 OFFCURVE",
"248 258 OFFCURVE",
"248 327 CURVE SMOOTH",
"248 386 OFFCURVE",
"292 456 OFFCURVE",
"357 456 CURVE SMOOTH",
"374 456 OFFCURVE",
"389 450 OFFCURVE",
"401 438 CURVE SMOOTH",
"414 425 OFFCURVE",
"423 419 OFFCURVE",
"432 419 CURVE SMOOTH",
"447 419 OFFCURVE",
"477 427 OFFCURVE",
"520 443 CURVE SMOOTH",
"563 459 OFFCURVE",
"594 466 OFFCURVE",
"613 466 CURVE SMOOTH",
"628 466 OFFCURVE",
"638 467 OFFCURVE",
"641 468 CURVE SMOOTH",
"650 471 OFFCURVE",
"654 478 OFFCURVE",
"654 491 CURVE SMOOTH",
"654 595 OFFCURVE",
"442 660 OFFCURVE",
"357 660 CURVE SMOOTH",
"167 660 OFFCURVE",
"12 544 OFFCURVE",
"12 344 CURVE SMOOTH",
"12 276 OFFCURVE",
"17 240 OFFCURVE",
"27 235 CURVE",
"34 235 OFFCURVE",
"38 243 OFFCURVE",
"38 259 CURVE SMOOTH",
"38 275 OFFCURVE",
"33 316 OFFCURVE",
"33 332 CURVE SMOOTH",
"33 420 OFFCURVE",
"74 522 OFFCURVE",
"149 573 CURVE",
"160 550 OFFCURVE",
"166 534 OFFCURVE",
"166 526 CURVE SMOOTH",
"166 501 OFFCURVE",
"153 477 OFFCURVE",
"126 454 CURVE SMOOTH",
"98 431 OFFCURVE",
"85 409 OFFCURVE",
"85 389 CURVE SMOOTH",
"85 331 OFFCURVE",
"146 302 OFFCURVE",
"197 302 CURVE SMOOTH",
"208 302 OFFCURVE",
"219 304 OFFCURVE",
"229 307 CURVE",
"238 236 OFFCURVE",
"282 188 OFFCURVE",
"351 188 CURVE SMOOTH"
);
},
{
closed = 1;
nodes = (
"555 15 OFFCURVE",
"701 151 OFFCURVE",
"701 362 CURVE SMOOTH",
"701 389 OFFCURVE",
"688 402 OFFCURVE",
"661 402 CURVE SMOOTH",
"636 402 OFFCURVE",
"597 401 OFFCURVE",
"546 397 CURVE SMOOTH",
"494 393 OFFCURVE",
"455 391 OFFCURVE",
"430 391 CURVE SMOOTH",
"422 391 OFFCURVE",
"393 394 OFFCURVE",
"378 394 CURVE SMOOTH",
"341 394 OFFCURVE",
"323 382 OFFCURVE",
"323 357 CURVE SMOOTH",
"323 351 OFFCURVE",
"325 344 OFFCURVE",
"330 337 CURVE",
"329 331 OFFCURVE",
"329 323 OFFCURVE",
"330 312 CURVE SMOOTH",
"331 299 OFFCURVE",
"331 291 OFFCURVE",
"331 286 CURVE SMOOTH",
"331 278 OFFCURVE",
"326 261 OFFCURVE",
"326 254 CURVE SMOOTH",
"326 245 OFFCURVE",
"335 241 OFFCURVE",
"353 241 CURVE SMOOTH",
"364 241 OFFCURVE",
"420 248 OFFCURVE",
"420 259 CURVE SMOOTH",
"420 260 OFFCURVE",
"418 261 OFFCURVE",
"415 261 CURVE SMOOTH",
"384 261 OFFCURVE",
"366 268 OFFCURVE",
"361 268 CURVE",
"354 273 OFFCURVE",
"351 282 OFFCURVE",
"351 296 CURVE SMOOTH",
"351 323 LINE",
"357 320 OFFCURVE",
"367 319 OFFCURVE",
"381 319 CURVE SMOOTH",
"392 319 OFFCURVE",
"405 320 OFFCURVE",
"420 321 CURVE",
"428 312 LINE SMOOTH",
"441 298 OFFCURVE",
"459 288 OFFCURVE",
"482 282 CURVE SMOOTH",
"505 276 OFFCURVE",
"521 269 OFFCURVE",
"529 261 CURVE SMOOTH",
"534 256 OFFCURVE",
"543 241 OFFCURVE",
"555 218 CURVE SMOOTH",
"565 199 OFFCURVE",
"581 183 OFFCURVE",
"603 170 CURVE",
"580 141 OFFCURVE",
"557 117 OFFCURVE",
"532 100 CURVE",
"505 125 OFFCURVE",
"468 137 OFFCURVE",
"420 137 CURVE SMOOTH",
"404 137 OFFCURVE",
"367 130 OFFCURVE",
"352 130 CURVE SMOOTH",
"327 130 OFFCURVE",
"299 146 OFFCURVE",
"270 177 CURVE SMOOTH",
"241 209 OFFCURVE",
"210 224 OFFCURVE",
"180 224 CURVE SMOOTH",
"137 224 OFFCURVE",
"103 194 OFFCURVE",
"98 151 CURVE",
"81 170 OFFCURVE",
"70 180 OFFCURVE",
"64 180 CURVE SMOOTH",
"61 180 OFFCURVE",
"59 178 OFFCURVE",
"59 173 CURVE SMOOTH",
"59 170 OFFCURVE",
"61 165 OFFCURVE",
"63 160 CURVE SMOOTH",
"95 79 OFFCURVE",
"263 15 OFFCURVE",
"346 15 CURVE SMOOTH"
);
},
{
closed = 1;
nodes = (
"406 476 OFFCURVE",
"391 483 OFFCURVE",
"376 483 CURVE SMOOTH",
"366 483 OFFCURVE",
"354 482 OFFCURVE",
"341 479 CURVE",
"364 503 OFFCURVE",
"376 538 OFFCURVE",
"376 584 CURVE SMOOTH",
"376 601 OFFCURVE",
"374 616 OFFCURVE",
"370 631 CURVE",
"411 630 OFFCURVE",
"452 620 OFFCURVE",
"493 600 CURVE",
"486 579 OFFCURVE",
"482 560 OFFCURVE",
"482 543 CURVE SMOOTH",
"482 513 OFFCURVE",
"480 495 OFFCURVE",
"473 488 CURVE SMOOTH",
"471 486 OFFCURVE",
"454 477 OFFCURVE",
"423 461 CURVE"
);
}
);
width = 713;
}
);
leftKerningGroup = O;
leftMetricsKey = O;
note = G;
rightKerningGroup = O;
rightMetricsKey = O;
unicode = 0047;
},
{
glyphname = H;
lastChange = "2021-11-24 21:22:26 +0000";
layers = (
{
anchors = (
{
name = bottom;
position = "{335, 0}";
},
{
name = center;
position = "{335, 325}";
},
{
name = top;
position = "{387, 650}";
},
{
name = topleft;
position = "{24, 650}";
}
);
layerId = "F72AA8BB-7F63-4F07-AEAC-030E55A5CABB";
paths = (
{
closed = 1;
nodes = (
"599 1 OFFCURVE",
"605 1 OFFCURVE",
"607 2 CURVE SMOOTH",
"615 7 OFFCURVE",
"621 44 OFFCURVE",
"624 111 CURVE SMOOTH",
"626 150 OFFCURVE",
"629 210 OFFCURVE",
"631 289 CURVE SMOOTH",
"633 368 OFFCURVE",
"635 427 OFFCURVE",
"637 466 CURVE SMOOTH",
"638 493 OFFCURVE",
"650 593 OFFCURVE",
"650 611 CURVE SMOOTH",
"650 627 OFFCURVE",
"643 635 OFFCURVE",
"628 636 CURVE SMOOTH",
"606 637 OFFCURVE",
"529 635 OFFCURVE",
"507 636 CURVE SMOOTH",
"498 637 OFFCURVE",
"459 644 OFFCURVE",
"443 644 CURVE SMOOTH",
"419 644 OFFCURVE",
"407 635 OFFCURVE",
"406 616 CURVE SMOOTH",
"405 597 OFFCURVE",
"404 570 OFFCURVE",
"404 534 CURVE SMOOTH",
"404 498 OFFCURVE",
"404 471 OFFCURVE",
"403 453 CURVE SMOOTH",
"402 442 OFFCURVE",
"396 437 OFFCURVE",
"384 437 CURVE SMOOTH",
"380 437 LINE SMOOTH",
"374 437 OFFCURVE",
"361 437 OFFCURVE",
"341 441 CURVE SMOOTH",
"325 444 OFFCURVE",
"312 445 OFFCURVE",
"302 444 CURVE",
"306 572 LINE SMOOTH",
"306 584 OFFCURVE",
"317 617 OFFCURVE",
"317 629 CURVE SMOOTH",
"317 641 OFFCURVE",
"300 649 OFFCURVE",
"267 653 CURVE",
"199 656 LINE SMOOTH",
"177 657 OFFCURVE",
"103 667 OFFCURVE",
"86 667 CURVE SMOOTH",
"71 667 OFFCURVE",
"65 656 OFFCURVE",
"63 636 CURVE SMOOTH",
"62 625 OFFCURVE",
"72 617 OFFCURVE",
"92 617 CURVE SMOOTH",
"128 617 LINE",
"154 590 OFFCURVE",
"168 568 OFFCURVE",
"168 554 CURVE SMOOTH",
"168 540 OFFCURVE",
"161 520 OFFCURVE",
"150 493 CURVE SMOOTH",
"137 462 OFFCURVE",
"132 439 OFFCURVE",
"132 423 CURVE SMOOTH",
"132 358 OFFCURVE",
"189 297 OFFCURVE",
"255 297 CURVE SMOOTH",
"276 297 OFFCURVE",
"301 302 OFFCURVE",
"330 312 CURVE SMOOTH",
"361 323 OFFCURVE",
"379 329 OFFCURVE",
"382 329 CURVE SMOOTH",
"393 328 OFFCURVE",
"410 322 OFFCURVE",
"432 310 CURVE SMOOTH",
"457 296 OFFCURVE",
"480 290 OFFCURVE",
"500 290 CURVE SMOOTH",
"540 290 OFFCURVE",
"575 302 OFFCURVE",
"606 327 CURVE",
"603 236 LINE SMOOTH",
"602 218 OFFCURVE",
"599 191 OFFCURVE",
"595 156 CURVE SMOOTH",
"591 120 OFFCURVE",
"588 93 OFFCURVE",
"587 75 CURVE",
"588 64 OFFCURVE",
"589 56 OFFCURVE",
"590 51 CURVE",
"589 44 OFFCURVE",
"572 41 OFFCURVE",
"540 41 CURVE SMOOTH",
"530 41 OFFCURVE",
"519 42 OFFCURVE",
"506 42 CURVE SMOOTH",
"437 45 LINE SMOOTH",
"427 45 OFFCURVE",
"421 72 OFFCURVE",
"420 124 CURVE SMOOTH",
"419 156 OFFCURVE",
"419 188 OFFCURVE",
"419 221 CURVE",
"428 223 OFFCURVE",
"434 228 OFFCURVE",
"434 236 CURVE SMOOTH",
"434 250 OFFCURVE",
"413 260 OFFCURVE",
"370 265 CURVE SMOOTH",
"366 265 OFFCURVE",
"338 266 OFFCURVE",
"286 269 CURVE SMOOTH",
"267 270 OFFCURVE",
"259 263 OFFCURVE",
"259 245 CURVE SMOOTH",
"259 240 OFFCURVE",
"260 236 OFFCURVE",
"262 232 CURVE",
"257 220 OFFCURVE",
"251 187 OFFCURVE",
"251 132 CURVE SMOOTH",
"251 81 LINE",
"249 60 OFFCURVE",
"239 51 OFFCURVE",
"222 52 CURVE SMOOTH",
"160 57 LINE",
"197 88 LINE",
"208 100 OFFCURVE",
"213 116 OFFCURVE",
"213 138 CURVE SMOOTH",
"213 179 OFFCURVE",
"185 211 OFFCURVE",
"141 211 CURVE SMOOTH",
"118 211 OFFCURVE",
"92 212 OFFCURVE",
"77 229 CURVE",
"78 252 OFFCURVE",
"78 274 OFFCURVE",
"79 296 CURVE SMOOTH",
"78 335 OFFCURVE",
"73 352 OFFCURVE",
"64 352 CURVE SMOOTH",
"53 352 OFFCURVE",
"48 342 OFFCURVE",
"48 324 CURVE SMOOTH",
"48 309 OFFCURVE",
"55 271 OFFCURVE",
"55 263 CURVE SMOOTH",
"54 240 OFFCURVE",
"47 205 OFFCURVE",
"35 160 CURVE SMOOTH",
"23 113 OFFCURVE",
"15 80 OFFCURVE",
"15 59 CURVE SMOOTH",
"15 42 OFFCURVE",
"43 28 OFFCURVE",
"98 21 CURVE SMOOTH",
"112 19 OFFCURVE",
"149 17 OFFCURVE",
"210 14 CURVE SMOOTH",
"261 11 OFFCURVE",
"288 22 OFFCURVE",
"289 46 CURVE SMOOTH",
"289 62 OFFCURVE",
"282 97 OFFCURVE",
"282 109 CURVE SMOOTH",
"282 124 OFFCURVE",
"282 143 OFFCURVE",
"283 167 CURVE SMOOTH",
"285 195 OFFCURVE",
"286 214 OFFCURVE",
"286 224 CURVE",
"311 226 OFFCURVE",
"329 228 OFFCURVE",
"340 228 CURVE SMOOTH",
"354 228 OFFCURVE",
"372 226 OFFCURVE",
"394 224 CURVE",
"391 175 OFFCURVE",
"388 139 OFFCURVE",
"387 114 CURVE SMOOTH",
"386 94 OFFCURVE",
"372 43 OFFCURVE",
"372 24 CURVE SMOOTH",
"371 15 OFFCURVE",
"389 9 OFFCURVE",
"426 7 CURVE SMOOTH",
"506 3 OFFCURVE",
"559 1 OFFCURVE",
"587 1 CURVE SMOOTH"
);
},
{
closed = 1;
nodes = (
"60 373 OFFCURVE",
"64 378 OFFCURVE",
"65 388 CURVE SMOOTH",
"74 492 LINE SMOOTH",
"78 539 OFFCURVE",
"79 575 OFFCURVE",
"82 599 CURVE SMOOTH",
"83 606 OFFCURVE",
"78 609 OFFCURVE",
"69 609 CURVE SMOOTH",
"61 609 OFFCURVE",
"56 606 OFFCURVE",
"56 600 CURVE SMOOTH",
"56 577 OFFCURVE",
"53 540 OFFCURVE",
"51 489 CURVE SMOOTH",
"49 437 OFFCURVE",
"52 400 OFFCURVE",
"47 379 CURVE SMOOTH",
"46 375 OFFCURVE",
"48 373 OFFCURVE",
"51 373 CURVE SMOOTH"
);
},
{
closed = 1;
nodes = (
"551 74 OFFCURVE",
"573 101 OFFCURVE",
"573 134 CURVE SMOOTH",
"573 149 OFFCURVE",
"564 170 OFFCURVE",
"545 197 CURVE SMOOTH",
"523 228 OFFCURVE",
"504 239 OFFCURVE",
"489 239 CURVE SMOOTH",
"469 239 OFFCURVE",
"457 223 OFFCURVE",
"456 194 CURVE SMOOTH",
"455 175 OFFCURVE",
"455 162 OFFCURVE",
"455 156 CURVE SMOOTH",
"455 102 OFFCURVE",
"477 74 OFFCURVE",
"519 74 CURVE SMOOTH"
);
},
{
closed = 1;
nodes = (
"470 545 OFFCURVE",
"456 562 OFFCURVE",
"453 594 CURVE",
"459 598 OFFCURVE",
"475 600 OFFCURVE",
"504 600 CURVE SMOOTH",
"525 600 OFFCURVE",
"551 598 OFFCURVE",
"585 598 CURVE SMOOTH",
"590 598 OFFCURVE",
"595 598 OFFCURVE",
"600 597 CURVE SMOOTH",
"612 594 OFFCURVE",
"618 591 OFFCURVE",
"618 584 CURVE SMOOTH",
"618 582 LINE",
"615 550 LINE",
"602 557 OFFCURVE",
"587 561 OFFCURVE",
"572 561 CURVE SMOOTH",
"554 561 OFFCURVE",
"513 545 OFFCURVE",
"496 545 CURVE SMOOTH"
);
}
);
width = 665;
}
);
leftKerningGroup = H;
note = H;
rightKerningGroup = H;
unicode = 0048;
},
{
glyphname = Hbar;
lastChange = "2021-11-24 21:22:29 +0000";
layers = (
{
layerId = "F72AA8BB-7F63-4F07-AEAC-030E55A5CABB";
paths = (
{
closed = 1;
nodes = (
"608 1 OFFCURVE",
"614 1 OFFCURVE",
"616 2 CURVE SMOOTH",
"624 7 OFFCURVE",
"630 44 OFFCURVE",
"633 111 CURVE SMOOTH",
"635 150 OFFCURVE",
"638 210 OFFCURVE",
"640 289 CURVE SMOOTH",
"642 363 OFFCURVE",
"644 420 OFFCURVE",
"646 459 CURVE",
"650 459 OFFCURVE",
"655 458 OFFCURVE",
"659 458 CURVE SMOOTH",
"666 457 OFFCURVE",
"685 454 OFFCURVE",
"712 451 CURVE SMOOTH",
"722 450 LINE SMOOTH",
"739 449 OFFCURVE",
"753 450 OFFCURVE",
"754 460 CURVE SMOOTH",
"754 464 OFFCURVE",
"750 476 OFFCURVE",
"750 479 CURVE SMOOTH",
"752 501 OFFCURVE",
"752 511 OFFCURVE",
"752 511 CURVE",
"753 513 OFFCURVE",
"753 515 OFFCURVE",
"754 516 CURVE",
"754 523 OFFCURVE",
"739 527 OFFCURVE",
"709 529 CURVE SMOOTH",
"688 531 OFFCURVE",
"669 531 OFFCURVE",
"652 532 CURVE",
"659 608 LINE SMOOTH",
"660 626 OFFCURVE",
"653 635 OFFCURVE",
"637 636 CURVE SMOOTH",
"615 637 OFFCURVE",
"538 635 OFFCURVE",
"516 636 CURVE SMOOTH",
"507 637 OFFCURVE",
"468 644 OFFCURVE",
"452 644 CURVE SMOOTH",
"428 644 OFFCURVE",
"416 635 OFFCURVE",
"415 616 CURVE SMOOTH",
"414 599 OFFCURVE",
"413 577 OFFCURVE",
"413 547 CURVE",
"409 548 OFFCURVE",
"404 548 OFFCURVE",
"399 548 CURVE SMOOTH",
"382 550 OFFCURVE",
"353 552 OFFCURVE",
"314 554 CURVE",
"315 560 OFFCURVE",
"315 566 OFFCURVE",
"315 572 CURVE SMOOTH",
"315 584 OFFCURVE",
"326 617 OFFCURVE",
"326 629 CURVE SMOOTH",
"326 641 OFFCURVE",
"309 649 OFFCURVE",
"276 653 CURVE",
"208 656 LINE SMOOTH",
"186 657 OFFCURVE",
"112 667 OFFCURVE",
"95 667 CURVE SMOOTH",
"80 667 OFFCURVE",
"74 656 OFFCURVE",
"72 636 CURVE SMOOTH",
"71 625 OFFCURVE",
"81 618 OFFCURVE",
"101 617 CURVE SMOOTH",
"137 617 LINE",
"163 590 OFFCURVE",
"177 568 OFFCURVE",
"177 554 CURVE SMOOTH",
"177 540 OFFCURVE",
"170 520 OFFCURVE",
"159 493 CURVE SMOOTH",
"146 462 OFFCURVE",
"141 439 OFFCURVE",
"141 423 CURVE SMOOTH",
"141 358 OFFCURVE",
"198 297 OFFCURVE",
"264 297 CURVE SMOOTH",
"285 297 OFFCURVE",
"310 302 OFFCURVE",
"339 312 CURVE SMOOTH",
"370 323 OFFCURVE",
"388 329 OFFCURVE",
"391 329 CURVE SMOOTH",
"402 328 OFFCURVE",
"419 322 OFFCURVE",
"441 310 CURVE SMOOTH",
"466 296 OFFCURVE",
"489 290 OFFCURVE",
"509 290 CURVE SMOOTH",
"549 290 OFFCURVE",
"584 302 OFFCURVE",
"615 327 CURVE",
"612 236 LINE SMOOTH",
"611 218 OFFCURVE",
"608 191 OFFCURVE",
"604 156 CURVE SMOOTH",
"600 120 OFFCURVE",
"597 93 OFFCURVE",
"596 75 CURVE",
"597 64 OFFCURVE",
"598 56 OFFCURVE",
"599 51 CURVE",
"598 44 OFFCURVE",
"581 41 OFFCURVE",
"549 41 CURVE SMOOTH",
"539 41 OFFCURVE",
"528 42 OFFCURVE",
"515 42 CURVE SMOOTH",
"446 45 LINE SMOOTH",
"436 45 OFFCURVE",
"430 72 OFFCURVE",
"429 124 CURVE SMOOTH",
"428 156 OFFCURVE",
"428 188 OFFCURVE",
"428 221 CURVE",
"437 223 OFFCURVE",
"443 228 OFFCURVE",
"443 236 CURVE SMOOTH",
"443 250 OFFCURVE",
"422 260 OFFCURVE",
"379 265 CURVE SMOOTH",
"375 265 OFFCURVE",
"347 266 OFFCURVE",
"295 269 CURVE SMOOTH",
"276 270 OFFCURVE",
"268 263 OFFCURVE",
"268 245 CURVE SMOOTH",
"268 240 OFFCURVE",
"269 236 OFFCURVE",
"271 232 CURVE",
"266 220 OFFCURVE",
"263 187 OFFCURVE",
"260 132 CURVE SMOOTH",
"260 81 LINE",
"258 60 OFFCURVE",
"248 51 OFFCURVE",
"231 52 CURVE SMOOTH",
"169 57 LINE",
"206 88 LINE",
"217 100 OFFCURVE",
"222 116 OFFCURVE",
"222 138 CURVE SMOOTH",
"222 179 OFFCURVE",
"194 211 OFFCURVE",
"150 211 CURVE SMOOTH",
"127 211 OFFCURVE",
"101 212 OFFCURVE",
"86 229 CURVE",
"87 252 OFFCURVE",
"87 274 OFFCURVE",
"88 296 CURVE SMOOTH",
"87 335 OFFCURVE",
"82 352 OFFCURVE",
"73 352 CURVE SMOOTH",
"62 352 OFFCURVE",
"57 342 OFFCURVE",
"57 324 CURVE SMOOTH",
"57 309 OFFCURVE",
"64 271 OFFCURVE",
"64 263 CURVE SMOOTH",
"63 240 OFFCURVE",
"56 205 OFFCURVE",
"44 160 CURVE SMOOTH",
"32 113 OFFCURVE",
"24 80 OFFCURVE",
"24 59 CURVE SMOOTH",
"24 42 OFFCURVE",
"52 28 OFFCURVE",
"107 21 CURVE SMOOTH",
"121 19 OFFCURVE",
"158 17 OFFCURVE",
"219 14 CURVE SMOOTH",
"270 11 OFFCURVE",
"297 22 OFFCURVE",
"298 46 CURVE SMOOTH",
"298 62 OFFCURVE",
"291 97 OFFCURVE",
"291 109 CURVE SMOOTH",
"291 124 OFFCURVE",
"291 143 OFFCURVE",
"292 167 CURVE SMOOTH",
"294 195 OFFCURVE",
"295 214 OFFCURVE",
"295 224 CURVE",
"320 226 OFFCURVE",
"338 228 OFFCURVE",
"349 228 CURVE SMOOTH",
"363 228 OFFCURVE",
"381 226 OFFCURVE",
"403 224 CURVE",
"400 175 OFFCURVE",
"397 139 OFFCURVE",
"396 114 CURVE SMOOTH",
"395 94 OFFCURVE",
"381 43 OFFCURVE",
"381 24 CURVE SMOOTH",
"380 15 OFFCURVE",
"398 9 OFFCURVE",
"435 7 CURVE SMOOTH",
"515 3 OFFCURVE",
"568 1 OFFCURVE",
"596 1 CURVE SMOOTH"
);
},
{
closed = 1;
nodes = (
"69 373 OFFCURVE",
"73 378 OFFCURVE",
"74 388 CURVE SMOOTH",
"83 492 LINE SMOOTH",
"87 539 OFFCURVE",
"88 575 OFFCURVE",
"91 599 CURVE SMOOTH",
"92 606 OFFCURVE",
"87 609 OFFCURVE",
"78 609 CURVE SMOOTH",
"70 609 OFFCURVE",
"65 606 OFFCURVE",
"65 600 CURVE SMOOTH",
"65 592 OFFCURVE",
"65 583 OFFCURVE",
"64 573 CURVE",
"45 573 LINE SMOOTH",
"34 572 OFFCURVE",
"27 572 OFFCURVE",
"25 572 CURVE SMOOTH",
"18 571 OFFCURVE",
"14 568 OFFCURVE",
"14 563 CURVE SMOOTH",
"14 559 OFFCURVE",
"15 553 OFFCURVE",
"16 544 CURVE SMOOTH",
"18 526 LINE",
"17 524 OFFCURVE",
"11 514 OFFCURVE",
"11 509 CURVE SMOOTH",
"11 505 OFFCURVE",
"14 502 OFFCURVE",
"23 501 CURVE SMOOTH",
"33 499 OFFCURVE",
"45 498 OFFCURVE",
"60 498 CURVE",
"60 489 LINE SMOOTH",
"58 437 OFFCURVE",
"61 400 OFFCURVE",
"56 379 CURVE SMOOTH",
"55 375 OFFCURVE",
"57 373 OFFCURVE",
"60 373 CURVE SMOOTH"
);
},
{
closed = 1;
nodes = (
"560 74 OFFCURVE",
"582 101 OFFCURVE",
"582 134 CURVE SMOOTH",
"582 149 OFFCURVE",
"573 170 OFFCURVE",
"554 197 CURVE SMOOTH",
"532 228 OFFCURVE",
"513 239 OFFCURVE",
"498 239 CURVE SMOOTH",
"478 239 OFFCURVE",
"466 223 OFFCURVE",
"465 194 CURVE SMOOTH",
"464 175 OFFCURVE",
"464 162 OFFCURVE",
"464 156 CURVE SMOOTH",
"464 102 OFFCURVE",
"486 74 OFFCURVE",
"528 74 CURVE SMOOTH"
);
},
{
closed = 1;
nodes = (
"383 437 OFFCURVE",
"370 437 OFFCURVE",
"350 441 CURVE SMOOTH",
"334 444 OFFCURVE",
"321 445 OFFCURVE",
"311 444 CURVE",
"311 455 OFFCURVE",
"312 466 OFFCURVE",
"312 476 CURVE",
"336 474 OFFCURVE",
"357 474 OFFCURVE",
"375 474 CURVE SMOOTH",
"390 474 OFFCURVE",
"403 474 OFFCURVE",
"413 475 CURVE",
"413 467 OFFCURVE",
"412 459 OFFCURVE",
"412 453 CURVE SMOOTH",
"411 442 OFFCURVE",
"405 437 OFFCURVE",
"393 437 CURVE SMOOTH",
"389 437 LINE SMOOTH"
);
},
{
closed = 1;
nodes = (
"479 545 OFFCURVE",
"465 562 OFFCURVE",
"462 594 CURVE",
"468 598 OFFCURVE",
"484 600 OFFCURVE",
"513 600 CURVE SMOOTH",
"534 600 OFFCURVE",
"560 598 OFFCURVE",
"594 598 CURVE SMOOTH",
"599 598 OFFCURVE",
"604 598 OFFCURVE",
"609 597 CURVE SMOOTH",
"621 594 OFFCURVE",
"627 591 OFFCURVE",
"627 584 CURVE SMOOTH",
"627 582 LINE",
"624 550 LINE",
"611 557 OFFCURVE",
"596 561 OFFCURVE",
"581 561 CURVE SMOOTH",
"563 561 OFFCURVE",
"522 545 OFFCURVE",
"505 545 CURVE SMOOTH"
);
},
{
closed = 1;
nodes = (
"671 467 OFFCURVE",
"658 468 OFFCURVE",
"646 470 CURVE",
"646 474 OFFCURVE",
"647 480 OFFCURVE",
"647 486 CURVE",
"662 486 OFFCURVE",
"678 487 OFFCURVE",
"694 488 CURVE",
"692 484 OFFCURVE",
"691 482 OFFCURVE",
"691 479 CURVE SMOOTH",
"691 478 OFFCURVE",
"692 478 OFFCURVE",
"692 477 CURVE",
"693 475 OFFCURVE",
"701 468 OFFCURVE",
"701 467 CURVE SMOOTH",
"701 465 OFFCURVE",
"697 465 OFFCURVE",
"691 465 CURVE SMOOTH",
"686 465 LINE SMOOTH"
);
}
);
width = 764;
}
);
leftKerningGroup = H;
rightKerningGroup = H;
unicode = 0126;
},
{
glyphname = I;
lastChange = "2021-11-24 18:19:21 +0000";
layers = (
{
anchors = (
{
name = bottom;
position = "{173, 15}";
},
{
name = ogonek;
position = "{311, 29}";
},
{
name = top;
position = "{159, 650}";
},
{
name = topleft;
position = "{11, 650}";
}
);
layerId = "F72AA8BB-7F63-4F07-AEAC-030E55A5CABB";
paths = (
{
closed = 1;
nodes = (
"111 -1 OFFCURVE",
"207 18 OFFCURVE",
"231 18 CURVE SMOOTH",
"250 18 OFFCURVE",
"275 1 OFFCURVE",
"283 1 CURVE SMOOTH",
"299 1 OFFCURVE",
"326 30 OFFCURVE",
"326 46 CURVE SMOOTH",
"325 58 OFFCURVE",
"316 68 OFFCURVE",
"297 75 CURVE",
"296 169 OFFCURVE",
"295 246 OFFCURVE",
"295 306 CURVE SMOOTH",
"295 365 LINE SMOOTH",
"294 379 OFFCURVE",
"289 387 OFFCURVE",
"278 387 CURVE SMOOTH",
"276 387 LINE SMOOTH",
"264 387 OFFCURVE",
"258 379 OFFCURVE",
"258 364 CURVE SMOOTH",
"258 360 LINE SMOOTH",
"259 343 OFFCURVE",
"266 299 OFFCURVE",
"267 280 CURVE SMOOTH",
"270 204 OFFCURVE",
"271 149 OFFCURVE",
"271 116 CURVE SMOOTH",
"271 99 OFFCURVE",
"271 87 OFFCURVE",
"270 81 CURVE",
"247 78 OFFCURVE",
"229 74 OFFCURVE",
"218 71 CURVE",
"211 80 OFFCURVE",
"208 89 OFFCURVE",
"207 98 CURVE SMOOTH",
"207 104 OFFCURVE",
"215 118 OFFCURVE",
"230 139 CURVE SMOOTH",
"245 159 OFFCURVE",
"253 180 OFFCURVE",
"252 199 CURVE SMOOTH",
"249 249 OFFCURVE",
"223 263 OFFCURVE",
"181 277 CURVE SMOOTH",
"157 285 OFFCURVE",
"139 292 OFFCURVE",
"130 300 CURVE SMOOTH",
"124 305 OFFCURVE",
"118 316 OFFCURVE",
"108 333 CURVE SMOOTH",
"100 347 OFFCURVE",
"89 357 OFFCURVE",
"74 363 CURVE",
"73 408 OFFCURVE",
"71 440 OFFCURVE",
"70 457 CURVE",
"90 445 OFFCURVE",
"108 439 OFFCURVE",
"125 440 CURVE SMOOTH",
"137 440 OFFCURVE",
"164 449 OFFCURVE",
"175 449 CURVE SMOOTH",
"188 449 OFFCURVE",
"218 440 OFFCURVE",
"231 440 CURVE SMOOTH",
"238 441 OFFCURVE",
"246 443 OFFCURVE",
"255 448 CURVE",
"256 435 OFFCURVE",
"264 424 OFFCURVE",
"281 417 CURVE",
"287 418 OFFCURVE",
"290 425 OFFCURVE",
"290 439 CURVE SMOOTH",
"290 446 LINE SMOOTH",
"289 465 OFFCURVE",
"279 514 OFFCURVE",
"279 534 CURVE SMOOTH",
"279 547 OFFCURVE",
"287 578 OFFCURVE",
"286 587 CURVE SMOOTH",
"286 598 OFFCURVE",
"270 607 OFFCURVE",
"259 607 CURVE SMOOTH",
"250 606 OFFCURVE",
"245 602 OFFCURVE",
"245 593 CURVE SMOOTH",
"245 591 LINE SMOOTH",
"246 582 OFFCURVE",
"247 576 OFFCURVE",
"248 572 CURVE",
"207 576 OFFCURVE",
"177 587 OFFCURVE",
"158 604 CURVE",
"182 605 OFFCURVE",
"293 622 OFFCURVE",
"293 635 CURVE SMOOTH",
"293 644 OFFCURVE",
"275 670 OFFCURVE",
"266 670 CURVE SMOOTH",
"246 669 OFFCURVE",
"205 649 OFFCURVE",
"186 647 CURVE SMOOTH",
"136 642 OFFCURVE",
"104 639 OFFCURVE",
"89 638 CURVE SMOOTH",
"82 638 OFFCURVE",
"59 642 OFFCURVE",
"51 642 CURVE SMOOTH",
"35 642 OFFCURVE",
"27 635 OFFCURVE",
"27 621 CURVE SMOOTH",
"27 602 OFFCURVE",
"40 519 OFFCURVE",
"40 495 CURVE SMOOTH",
"42 452 OFFCURVE",
"45 410 OFFCURVE",
"47 367 CURVE SMOOTH",
"50 304 OFFCURVE",
"51 254 OFFCURVE",
"51 216 CURVE SMOOTH",
"51 168 OFFCURVE",
"50 120 OFFCURVE",
"34 75 CURVE SMOOTH",
"27 56 OFFCURVE",
"24 41 OFFCURVE",
"24 31 CURVE SMOOTH",
"25 8 OFFCURVE",
"45 -4 OFFCURVE",
"84 -2 CURVE SMOOTH"
);
}
);
width = 338;
}
);
leftMetricsKey = E;
note = I;
unicode = 0049;
},
{
glyphname = J;
lastChange = "2021-11-24 21:22:39 +0000";
layers = (
{
anchors = (
{
name = bottom;
position = "{203, 0}";
},
{
name = top;
position = "{300, 650}";
}
);
layerId = "F72AA8BB-7F63-4F07-AEAC-030E55A5CABB";
paths = (
{
closed = 1;
nodes = (
"325 2 OFFCURVE",
"404 90 OFFCURVE",
"404 266 CURVE SMOOTH",
"404 303 LINE SMOOTH",
"404 320 OFFCURVE",
"403 333 OFFCURVE",
"403 340 CURVE SMOOTH",
"403 366 OFFCURVE",
"406 410 OFFCURVE",
"413 472 CURVE SMOOTH",
"418 515 OFFCURVE",
"420 550 OFFCURVE",
"420 578 CURVE SMOOTH",
"420 588 OFFCURVE",
"420 596 OFFCURVE",
"419 604 CURVE SMOOTH",
"418 620 LINE",
"429 627 OFFCURVE",
"435 633 OFFCURVE",
"435 637 CURVE SMOOTH",
"435 650 OFFCURVE",
"422 656 OFFCURVE",
"396 656 CURVE SMOOTH",
"379 656 OFFCURVE",
"334 650 OFFCURVE",
"317 650 CURVE SMOOTH",
"300 650 OFFCURVE",
"276 654 OFFCURVE",
"244 660 CURVE SMOOTH",
"212 666 OFFCURVE",
"188 669 OFFCURVE",
"173 669 CURVE SMOOTH",
"154 669 OFFCURVE",
"144 659 OFFCURVE",
"144 640 CURVE SMOOTH",
"144 619 OFFCURVE",
"152 604 OFFCURVE",
"167 593 CURVE",
"168 346 LINE SMOOTH",
"168 269 OFFCURVE",
"162 227 OFFCURVE",
"149 219 CURVE",
"143 219 OFFCURVE",
"134 233 OFFCURVE",
"121 262 CURVE SMOOTH",
"108 291 OFFCURVE",
"97 304 OFFCURVE",
"88 304 CURVE SMOOTH",
"71 304 OFFCURVE",
"61 274 OFFCURVE",
"61 260 CURVE SMOOTH",
"61 254 OFFCURVE",
"62 250 OFFCURVE",
"63 247 CURVE",
"53 231 OFFCURVE",
"-5 102 OFFCURVE",
"-5 91 CURVE SMOOTH",
"-5 26 OFFCURVE",
"116 2 OFFCURVE",
"166 2 CURVE SMOOTH"
);
},
{
closed = 1;
nodes = (
"71 53 OFFCURVE",
"43 71 OFFCURVE",
"30 95 CURVE",
"51 134 OFFCURVE",
"71 170 OFFCURVE",
"92 205 CURVE",
"109 192 OFFCURVE",
"127 186 OFFCURVE",
"146 186 CURVE SMOOTH",
"197 186 OFFCURVE",
"208 267 OFFCURVE",
"208 305 CURVE SMOOTH",
"208 327 OFFCURVE",
"201 403 OFFCURVE",
"201 425 CURVE SMOOTH",
"201 429 LINE",
"210 431 OFFCURVE",
"218 432 OFFCURVE",
"224 432 CURVE SMOOTH",
"235 432 OFFCURVE",
"261 426 OFFCURVE",
"272 426 CURVE SMOOTH",
"308 426 OFFCURVE",
"336 461 OFFCURVE",
"336 497 CURVE SMOOTH",
"336 531 OFFCURVE",
"323 561 OFFCURVE",
"298 587 CURVE",
"335 590 OFFCURVE",
"364 596 OFFCURVE",
"384 605 CURVE",
"382 600 OFFCURVE",
"381 553 OFFCURVE",
"381 464 CURVE SMOOTH",
"381 362 LINE",
"308 367 OFFCURVE",
"254 327 OFFCURVE",
"254 252 CURVE SMOOTH",
"254 249 OFFCURVE",
"254 239 OFFCURVE",
"257 222 CURVE SMOOTH",
"258 217 OFFCURVE",
"258 212 OFFCURVE",
"258 208 CURVE SMOOTH",
"258 202 OFFCURVE",
"258 197 OFFCURVE",
"256 192 CURVE SMOOTH",
"249 171 OFFCURVE",
"234 156 OFFCURVE",
"208 146 CURVE SMOOTH",
"185 139 OFFCURVE",
"163 131 OFFCURVE",
"141 124 CURVE",
"118 113 OFFCURVE",
"107 96 OFFCURVE",
"107 72 CURVE SMOOTH",
"107 61 OFFCURVE",
"109 51 OFFCURVE",
"114 42 CURVE"
);
}
);
width = 441;
}
);
leftKerningGroup = J;
note = J;
rightKerningGroup = J;
unicode = 004A;
},
{
glyphname = K;
lastChange = "2021-11-24 21:23:02 +0000";
layers = (
{
anchors = (
{
name = bottom;
position = "{334, 19}";
},
{
name = top;
position = "{297, 651}";
}
);
layerId = "F72AA8BB-7F63-4F07-AEAC-030E55A5CABB";
paths = (
{
closed = 1;
nodes = (
"98 8 OFFCURVE",
"127 10 OFFCURVE",
"131 10 CURVE SMOOTH",
"152 10 OFFCURVE",
"224 19 OFFCURVE",
"246 19 CURVE SMOOTH",
"254 19 OFFCURVE",
"260 19 OFFCURVE",
"265 18 CURVE",
"274 19 OFFCURVE",
"278 51 OFFCURVE",
"277 114 CURVE SMOOTH",
"277 130 OFFCURVE",
"273 200 OFFCURVE",
"273 219 CURVE",
"278 210 OFFCURVE",
"296 183 OFFCURVE",
"324 140 CURVE SMOOTH",
"347 105 OFFCURVE",
"362 79 OFFCURVE",
"368 63 CURVE SMOOTH",
"376 43 OFFCURVE",
"380 32 OFFCURVE",
"381 31 CURVE SMOOTH",
"387 22 OFFCURVE",
"397 16 OFFCURVE",
"411 15 CURVE SMOOTH",
"422 14 OFFCURVE",
"444 14 OFFCURVE",
"478 15 CURVE SMOOTH",
"604 17 LINE",
"669 22 OFFCURVE",
"702 33 OFFCURVE",
"702 51 CURVE SMOOTH",
"702 70 OFFCURVE",
"666 116 OFFCURVE",
"590 189 CURVE SMOOTH",
"514 262 OFFCURVE",
"477 310 OFFCURVE",
"476 336 CURVE SMOOTH",
"476 349 OFFCURVE",
"504 404 OFFCURVE",
"559 499 CURVE SMOOTH",
"641 642 LINE",
"641 655 OFFCURVE",
"627 661 OFFCURVE",
"598 660 CURVE SMOOTH",
"574 660 OFFCURVE",
"491 649 OFFCURVE",
"467 648 CURVE SMOOTH",
"455 648 OFFCURVE",
"426 650 OFFCURVE",
"417 650 CURVE SMOOTH",
"378 650 OFFCURVE",
"352 634 OFFCURVE",
"340 603 CURVE SMOOTH",
"315 537 OFFCURVE",
"294 492 OFFCURVE",
"278 468 CURVE",
"239 426 LINE SMOOTH",
"222 407 OFFCURVE",
"213 391 OFFCURVE",
"214 379 CURVE SMOOTH",
"214 363 OFFCURVE",
"243 348 OFFCURVE",
"260 348 CURVE SMOOTH",
"272 348 OFFCURVE",
"282 359 OFFCURVE",
"290 380 CURVE",
"324 453 OFFCURVE",
"351 508 OFFCURVE",
"370 544 CURVE",
"388 531 OFFCURVE",
"406 524 OFFCURVE",
"423 524 CURVE SMOOTH",
"455 525 OFFCURVE",
"473 549 OFFCURVE",
"473 580 CURVE SMOOTH",
"472 591 OFFCURVE",
"469 602 OFFCURVE",
"464 614 CURVE",
"529 614 LINE SMOOTH",
"563 614 OFFCURVE",
"583 613 OFFCURVE",
"588 610 CURVE",
"563 572 OFFCURVE",
"539 535 OFFCURVE",
"514 500 CURVE",
"427 502 OFFCURVE",
"318 403 OFFCURVE",
"318 314 CURVE SMOOTH",
"318 289 OFFCURVE",
"325 267 OFFCURVE",
"344 252 CURVE SMOOTH",
"353 245 OFFCURVE",
"371 233 OFFCURVE",
"400 218 CURVE SMOOTH",
"445 195 OFFCURVE",
"456 181 OFFCURVE",
"474 135 CURVE SMOOTH",
"489 96 OFFCURVE",
"507 84 OFFCURVE",
"551 84 CURVE SMOOTH",
"563 85 OFFCURVE",
"573 87 OFFCURVE",
"582 91 CURVE",
"589 75 OFFCURVE",
"595 63 OFFCURVE",
"598 54 CURVE",
"489 53 LINE SMOOTH",
"474 53 OFFCURVE",
"438 54 OFFCURVE",
"423 53 CURVE SMOOTH",
"410 53 OFFCURVE",
"401 62 OFFCURVE",
"397 79 CURVE SMOOTH",
"389 112 OFFCURVE",
"301 262 OFFCURVE",
"276 273 CURVE",
"270 294 OFFCURVE",
"263 304 OFFCURVE",
"254 304 CURVE SMOOTH",
"237 304 OFFCURVE",
"222 268 OFFCURVE",
"223 249 CURVE",
"224 245 LINE",
"213 249 OFFCURVE",
"202 251 OFFCURVE",
"192 251 CURVE SMOOTH",
"169 249 LINE SMOOTH",
"163 248 OFFCURVE",
"157 248 OFFCURVE",
"152 248 CURVE SMOOTH",
"147 248 LINE SMOOTH",
"136 248 OFFCURVE",
"108 261 OFFCURVE",
"93 261 CURVE SMOOTH",
"86 261 OFFCURVE",
"77 259 OFFCURVE",
"65 255 CURVE",
"66 351 LINE",
"137 363 OFFCURVE",
"186 428 OFFCURVE",
"186 502 CURVE SMOOTH",
"186 538 OFFCURVE",
"175 574 OFFCURVE",
"153 607 CURVE",
"182 606 OFFCURVE",
"198 605 OFFCURVE",
"201 604 CURVE SMOOTH",
"218 598 OFFCURVE",
"228 590 OFFCURVE",
"229 573 CURVE SMOOTH",
"229 561 OFFCURVE",
"236 509 OFFCURVE",
"250 509 CURVE SMOOTH",
"261 510 OFFCURVE",
"265 525 OFFCURVE",
"265 554 CURVE SMOOTH",
"264 622 LINE SMOOTH",
"264 632 OFFCURVE",
"223 637 OFFCURVE",
"141 637 CURVE SMOOTH",
"122 637 OFFCURVE",
"101 637 OFFCURVE",
"77 636 CURVE SMOOTH",
"41 635 OFFCURVE",
"23 623 OFFCURVE",
"24 599 CURVE SMOOTH",
"28 470 OFFCURVE",
"34 374 OFFCURVE",
"35 309 CURVE SMOOTH",
"37 111 LINE",
"35 77 OFFCURVE",
"33 52 OFFCURVE",
"31 35 CURVE SMOOTH",
"31 17 OFFCURVE",
"49 8 OFFCURVE",
"85 8 CURVE SMOOTH"
);
},
{
closed = 1;
nodes = (
"83 42 OFFCURVE",
"66 57 OFFCURVE",
"66 88 CURVE SMOOTH",
"66 132 LINE",
"133 114 OFFCURVE",
"168 88 OFFCURVE",
"165 54 CURVE SMOOTH",
"164 43 LINE",
"138 43 LINE SMOOTH",
"125 43 OFFCURVE",
"117 42 OFFCURVE",
"114 42 CURVE SMOOTH"
);
}
);
width = 662;
}
);
leftKerningGroup = K;
leftMetricsKey = E;
note = K;
rightKerningGroup = K;
unicode = 004B;
},
{
glyphname = L;
lastChange = "2021-11-24 21:23:29 +0000";
layers = (
{
anchors = (
{
name = bottom;
position = "{254, 0}";
},
{
name = center;
position = "{254, 325}";
},
{
name = top;
position = "{159, 651}";
},
{
name = topright;
position = "{382, 700}";
}
);
layerId = "F72AA8BB-7F63-4F07-AEAC-030E55A5CABB";
paths = (
{
closed = 1;
nodes = (
"467 -5 OFFCURVE",
"485 10 OFFCURVE",
"485 41 CURVE SMOOTH",
"485 58 OFFCURVE",
"480 101 OFFCURVE",
"480 120 CURVE SMOOTH",
"480 137 OFFCURVE",
"488 180 OFFCURVE",
"488 197 CURVE SMOOTH",
"488 230 OFFCURVE",
"479 246 OFFCURVE",
"462 246 CURVE SMOOTH",
"455 246 OFFCURVE",
"431 243 OFFCURVE",
"418 243 CURVE SMOOTH",
"406 243 OFFCURVE",
"377 246 OFFCURVE",
"366 246 CURVE SMOOTH",
"357 246 OFFCURVE",
"335 245 OFFCURVE",
"301 242 CURVE",
"302 250 OFFCURVE",
"303 259 OFFCURVE",
"303 269 CURVE SMOOTH",
"303 288 OFFCURVE",
"294 359 OFFCURVE",
"294 377 CURVE SMOOTH",
"294 440 OFFCURVE",
"292 472 OFFCURVE",
"289 474 CURVE",
"281 473 OFFCURVE",
"277 463 OFFCURVE",
"272 447 CURVE SMOOTH",
"271 444 OFFCURVE",
"270 432 OFFCURVE",
"268 411 CURVE",
"259 412 OFFCURVE",
"235 408 OFFCURVE",
"228 408 CURVE SMOOTH",
"203 408 OFFCURVE",
"190 408 OFFCURVE",
"189 407 CURVE",
"174 404 OFFCURVE",
"167 395 OFFCURVE",
"167 379 CURVE SMOOTH",
"167 354 OFFCURVE",
"229 302 OFFCURVE",
"251 293 CURVE",
"242 270 OFFCURVE",
"238 253 OFFCURVE",
"238 243 CURVE SMOOTH",
"238 211 OFFCURVE",
"254 195 OFFCURVE",
"285 195 CURVE SMOOTH",
"304 195 OFFCURVE",
"351 210 OFFCURVE",
"372 210 CURVE SMOOTH",
"427 210 OFFCURVE",
"454 202 OFFCURVE",
"454 187 CURVE SMOOTH",
"454 158 OFFCURVE",
"449 118 OFFCURVE",
"442 68 CURVE SMOOTH",
"440 54 OFFCURVE",
"434 47 OFFCURVE",
"423 46 CURVE",
"422 106 OFFCURVE",
"382 152 OFFCURVE",
"323 152 CURVE SMOOTH",
"302 152 OFFCURVE",
"250 125 OFFCURVE",
"234 125 CURVE SMOOTH",
"216 125 OFFCURVE",
"202 134 OFFCURVE",
"196 151 CURVE SMOOTH",
"191 166 OFFCURVE",
"185 182 OFFCURVE",
"179 197 CURVE",
"168 213 OFFCURVE",
"155 224 OFFCURVE",
"138 231 CURVE SMOOTH",
"98 247 OFFCURVE",
"78 302 OFFCURVE",
"78 395 CURVE SMOOTH",
"78 410 OFFCURVE",
"79 431 OFFCURVE",
"80 456 CURVE SMOOTH",
"81 481 OFFCURVE",
"81 497 OFFCURVE",
"81 504 CURVE SMOOTH",
"81 523 OFFCURVE",
"81 533 OFFCURVE",
"82 536 CURVE",
"79 496 OFFCURVE",
"103 460 OFFCURVE",
"143 460 CURVE SMOOTH",
"182 460 OFFCURVE",
"217 501 OFFCURVE",
"217 538 CURVE SMOOTH",
"217 559 OFFCURVE",
"217 572 OFFCURVE",
"218 575 CURVE SMOOTH",
"219 578 OFFCURVE",
"223 590 OFFCURVE",
"231 610 CURVE",
"240 609 OFFCURVE",
"269 598 OFFCURVE",
"282 598 CURVE SMOOTH",
"299 598 OFFCURVE",
"307 607 OFFCURVE",
"307 625 CURVE SMOOTH",
"307 655 OFFCURVE",
"293 670 OFFCURVE",
"265 670 CURVE SMOOTH",
"249 670 OFFCURVE",
"225 667 OFFCURVE",
"192 659 CURVE SMOOTH",
"159 651 OFFCURVE",
"135 647 OFFCURVE",
"118 647 CURVE SMOOTH",
"110 647 OFFCURVE",
"80 652 OFFCURVE",
"68 652 CURVE SMOOTH",
"47 652 OFFCURVE",
"36 642 OFFCURVE",
"36 622 CURVE SMOOTH",
"36 602 OFFCURVE",
"46 553 OFFCURVE",
"47 536 CURVE SMOOTH",
"49 493 OFFCURVE",
"50 390 OFFCURVE",
"50 226 CURVE SMOOTH",
"50 174 OFFCURVE",
"49 129 OFFCURVE",
"37 91 CURVE SMOOTH",
"32 77 OFFCURVE",
"24 44 OFFCURVE",
"24 29 CURVE SMOOTH",
"24 8 OFFCURVE",
"37 -3 OFFCURVE",
"63 -3 CURVE SMOOTH",
"76 -3 OFFCURVE",
"86 5 OFFCURVE",
"91 21 CURVE",
"137 20 OFFCURVE",
"183 19 OFFCURVE",
"230 17 CURVE SMOOTH",
"285 15 OFFCURVE",
"330 10 OFFCURVE",
"367 4 CURVE SMOOTH",
"402 -2 OFFCURVE",
"423 -5 OFFCURVE",
"432 -5 CURVE SMOOTH"
);
},
{
closed = 1;
nodes = (
"294 490 OFFCURVE",
"301 510 OFFCURVE",
"301 549 CURVE SMOOTH",
"301 570 OFFCURVE",
"296 581 OFFCURVE",
"287 581 CURVE SMOOTH",
"274 581 OFFCURVE",
"268 577 OFFCURVE",
"268 568 CURVE SMOOTH",
"268 558 OFFCURVE",
"274 492 OFFCURVE",
"279 490 CURVE"
);
}
);
width = 506;
}
);
leftKerningGroup = E;
leftMetricsKey = E;
note = L;
rightKerningGroup = L;
unicode = 004C;
},
{
glyphname = Lslash;
lastChange = "2021-11-24 21:23:52 +0000";
layers = (
{
layerId = "F72AA8BB-7F63-4F07-AEAC-030E55A5CABB";
paths = (
{
closed = 1;
nodes = (
"465 -5 OFFCURVE",
"483 10 OFFCURVE",
"483 41 CURVE SMOOTH",
"483 58 OFFCURVE",
"478 101 OFFCURVE",
"478 120 CURVE SMOOTH",
"478 137 OFFCURVE",
"486 180 OFFCURVE",
"486 197 CURVE SMOOTH",
"486 230 OFFCURVE",
"477 246 OFFCURVE",
"460 246 CURVE SMOOTH",
"453 246 OFFCURVE",
"429 243 OFFCURVE",
"416 243 CURVE SMOOTH",
"404 243 OFFCURVE",
"375 246 OFFCURVE",
"364 246 CURVE SMOOTH",
"355 246 OFFCURVE",
"333 245 OFFCURVE",
"299 242 CURVE",
"300 250 OFFCURVE",
"301 259 OFFCURVE",
"301 269 CURVE SMOOTH",
"301 277 OFFCURVE",
"299 293 OFFCURVE",
"298 311 CURVE",
"322 317 OFFCURVE",
"342 326 OFFCURVE",
"358 326 CURVE",
"362 327 OFFCURVE",
"372 327 OFFCURVE",
"389 329 CURVE SMOOTH",
"403 331 OFFCURVE",
"408 336 OFFCURVE",
"408 346 CURVE SMOOTH",
"408 348 OFFCURVE",
"408 351 OFFCURVE",
"407 354 CURVE SMOOTH",
"405 363 OFFCURVE",
"395 387 OFFCURVE",
"394 391 CURVE SMOOTH",
"377 449 LINE",
"375 463 OFFCURVE",
"368 470 OFFCURVE",
"356 470 CURVE SMOOTH",
"352 470 OFFCURVE",
"348 469 OFFCURVE",
"344 468 CURVE SMOOTH",
"322 462 OFFCURVE",
"304 453 OFFCURVE",
"291 444 CURVE",
"290 463 OFFCURVE",
"289 473 OFFCURVE",
"287 474 CURVE",
"279 473 OFFCURVE",
"275 463 OFFCURVE",
"270 447 CURVE SMOOTH",
"269 445 OFFCURVE",
"269 438 OFFCURVE",
"268 428 CURVE",
"261 422 OFFCURVE",
"257 419 OFFCURVE",
"255 418 CURVE SMOOTH",
"251 417 OFFCURVE",
"245 417 OFFCURVE",
"238 417 CURVE SMOOTH",
"229 417 OFFCURVE",
"219 417 OFFCURVE",
"207 419 CURVE SMOOTH",
"199 420 OFFCURVE",
"187 419 OFFCURVE",
"171 414 CURVE SMOOTH",
"155 410 OFFCURVE",
"89 386 OFFCURVE",
"79 383 CURVE",
"78 383 OFFCURVE",
"77 383 OFFCURVE",
"76 382 CURVE",
"76 395 LINE SMOOTH",
"76 410 OFFCURVE",
"77 431 OFFCURVE",
"78 456 CURVE SMOOTH",
"79 481 OFFCURVE",
"79 497 OFFCURVE",
"79 504 CURVE SMOOTH",
"79 523 OFFCURVE",
"79 533 OFFCURVE",
"80 536 CURVE",
"77 496 OFFCURVE",
"101 460 OFFCURVE",
"141 460 CURVE SMOOTH",
"180 460 OFFCURVE",
"215 501 OFFCURVE",
"215 538 CURVE SMOOTH",
"215 559 OFFCURVE",
"215 572 OFFCURVE",
"216 575 CURVE SMOOTH",
"217 578 OFFCURVE",
"221 590 OFFCURVE",
"229 610 CURVE",
"238 609 OFFCURVE",
"267 598 OFFCURVE",
"280 598 CURVE SMOOTH",
"297 598 OFFCURVE",
"305 607 OFFCURVE",
"305 625 CURVE SMOOTH",
"305 655 OFFCURVE",
"291 670 OFFCURVE",
"263 670 CURVE SMOOTH",
"247 670 OFFCURVE",
"223 667 OFFCURVE",
"190 659 CURVE SMOOTH",
"157 651 OFFCURVE",
"133 647 OFFCURVE",
"116 647 CURVE SMOOTH",
"108 647 OFFCURVE",
"78 652 OFFCURVE",
"66 652 CURVE SMOOTH",
"45 652 OFFCURVE",
"34 642 OFFCURVE",
"34 622 CURVE SMOOTH",
"34 602 OFFCURVE",
"44 553 OFFCURVE",
"45 536 CURVE SMOOTH",
"46 508 OFFCURVE",
"47 455 OFFCURVE",
"48 376 CURVE",
"39 375 OFFCURVE",
"29 373 OFFCURVE",
"18 370 CURVE SMOOTH",
"-9 365 OFFCURVE",
"-24 360 OFFCURVE",
"-28 357 CURVE SMOOTH",
"-36 351 OFFCURVE",
"-40 345 OFFCURVE",
"-40 337 CURVE SMOOTH",
"-40 335 OFFCURVE",
"-40 332 OFFCURVE",
"-39 329 CURVE SMOOTH",
"-37 322 OFFCURVE",
"-18 269 OFFCURVE",
"-16 265 CURVE",
"-16 264 OFFCURVE",
"-13 238 OFFCURVE",
"-9 229 CURVE SMOOTH",
"-7 223 OFFCURVE",
"-4 221 OFFCURVE",
"0 221 CURVE SMOOTH",
"10 221 OFFCURVE",
"21 225 OFFCURVE",
"36 231 CURVE SMOOTH",
"39 232 OFFCURVE",
"43 235 OFFCURVE",
"48 238 CURVE",
"48 181 OFFCURVE",
"48 132 OFFCURVE",
"35 91 CURVE SMOOTH",
"30 77 OFFCURVE",
"22 44 OFFCURVE",
"22 29 CURVE SMOOTH",
"22 8 OFFCURVE",
"35 -3 OFFCURVE",
"61 -3 CURVE SMOOTH",
"74 -3 OFFCURVE",
"84 5 OFFCURVE",
"89 21 CURVE",
"135 20 OFFCURVE",
"181 19 OFFCURVE",
"228 17 CURVE SMOOTH",
"283 15 OFFCURVE",
"328 10 OFFCURVE",
"365 4 CURVE SMOOTH",
"400 -2 OFFCURVE",
"421 -5 OFFCURVE",
"430 -5 CURVE SMOOTH"
);
},
{
closed = 1;
nodes = (
"420 106 OFFCURVE",
"380 152 OFFCURVE",
"321 152 CURVE SMOOTH",
"300 152 OFFCURVE",
"248 125 OFFCURVE",
"232 125 CURVE SMOOTH",
"214 125 OFFCURVE",
"200 134 OFFCURVE",
"194 151 CURVE SMOOTH",
"189 166 OFFCURVE",
"183 182 OFFCURVE",
"177 197 CURVE",
"166 213 OFFCURVE",
"153 224 OFFCURVE",
"136 231 CURVE SMOOTH",
"128 234 OFFCURVE",
"121 239 OFFCURVE",
"114 245 CURVE",
"121 246 OFFCURVE",
"128 248 OFFCURVE",
"135 250 CURVE SMOOTH",
"193 266 OFFCURVE",
"224 284 OFFCURVE",
"231 303 CURVE",
"238 299 OFFCURVE",
"244 295 OFFCURVE",
"249 293 CURVE",
"240 270 OFFCURVE",
"236 253 OFFCURVE",
"236 243 CURVE SMOOTH",
"236 211 OFFCURVE",
"252 195 OFFCURVE",
"283 195 CURVE SMOOTH",
"302 195 OFFCURVE",
"349 210 OFFCURVE",
"370 210 CURVE SMOOTH",
"425 210 OFFCURVE",
"452 202 OFFCURVE",
"452 187 CURVE SMOOTH",
"452 158 OFFCURVE",
"447 118 OFFCURVE",
"440 68 CURVE SMOOTH",
"438 54 OFFCURVE",
"432 47 OFFCURVE",
"421 46 CURVE"
);
},
{
closed = 1;
nodes = (
"295 338 OFFCURVE",
"294 346 OFFCURVE",
"294 353 CURVE",
"315 360 OFFCURVE",
"337 372 OFFCURVE",
"359 390 CURVE",
"362 379 OFFCURVE",
"362 373 OFFCURVE",
"364 371 CURVE",
"365 366 OFFCURVE",
"374 357 OFFCURVE",
"375 354 CURVE SMOOTH",
"376 351 OFFCURVE",
"373 349 OFFCURVE",
"367 348 CURVE",
"345 341 OFFCURVE",
"319 335 OFFCURVE",
"296 330 CURVE"
);
},
{
closed = 1;
nodes = (
"292 490 OFFCURVE",
"299 510 OFFCURVE",
"299 549 CURVE SMOOTH",
"299 570 OFFCURVE",
"294 581 OFFCURVE",
"285 581 CURVE SMOOTH",
"272 581 OFFCURVE",
"266 577 OFFCURVE",
"266 568 CURVE SMOOTH",
"266 558 OFFCURVE",
"272 492 OFFCURVE",
"277 490 CURVE"
);
}
);
width = 504;
}
);
leftKerningGroup = E;
rightKerningGroup = L;
unicode = 0141;
},
{
glyphname = M;
lastChange = "2021-11-24 18:19:51 +0000";
layers = (
{
layerId = "F72AA8BB-7F63-4F07-AEAC-030E55A5CABB";
paths = (
{
closed = 1;
nodes = (
"60 -13 OFFCURVE",
"153 -10 OFFCURVE",
"179 -8 CURVE SMOOTH",
"236 -3 OFFCURVE",
"266 10 OFFCURVE",
"266 35 CURVE SMOOTH",
"266 55 OFFCURVE",
"251 65 OFFCURVE",
"223 65 CURVE SMOOTH",
"216 65 OFFCURVE",
"207 65 OFFCURVE",
"195 64 CURVE",
"196 96 OFFCURVE",
"175 133 OFFCURVE",
"175 151 CURVE SMOOTH",
"175 169 OFFCURVE",
"193 205 OFFCURVE",
"191 224 CURVE SMOOTH",
"187 257 OFFCURVE",
"155 283 OFFCURVE",
"122 283 CURVE SMOOTH",
"109 283 OFFCURVE",
"95 279 OFFCURVE",
"81 271 CURVE",
"82 294 OFFCURVE",
"83 314 OFFCURVE",
"83 333 CURVE SMOOTH",
"83 351 OFFCURVE",
"82 368 OFFCURVE",
"81 382 CURVE",
"100 381 OFFCURVE",
"127 351 OFFCURVE",
"143 353 CURVE SMOOTH",
"166 356 OFFCURVE",
"181 374 OFFCURVE",
"181 395 CURVE SMOOTH",
"181 432 OFFCURVE",
"155 433 OFFCURVE",
"134 440 CURVE",
"131 442 OFFCURVE",
"125 450 OFFCURVE",
"117 463 CURVE SMOOTH",
"111 472 OFFCURVE",
"98 478 OFFCURVE",
"79 481 CURVE",
"78 497 OFFCURVE",
"79 516 OFFCURVE",
"80 538 CURVE",
"85 537 OFFCURVE",
"91 536 OFFCURVE",
"96 536 CURVE SMOOTH",
"111 536 OFFCURVE",
"127 542 OFFCURVE",
"144 553 CURVE SMOOTH",
"161 564 OFFCURVE",
"174 570 OFFCURVE",
"183 570 CURVE SMOOTH",
"187 570 LINE SMOOTH",
"202 571 OFFCURVE",
"214 561 OFFCURVE",
"223 540 CURVE SMOOTH",
"236 509 OFFCURVE",
"254 489 OFFCURVE",
"279 479 CURVE SMOOTH",
"304 469 OFFCURVE",
"321 453 OFFCURVE",
"329 431 CURVE SMOOTH",
"340 400 OFFCURVE",
"348 372 OFFCURVE",
"376 347 CURVE",
"385 304 OFFCURVE",
"398 283 OFFCURVE",
"417 283 CURVE SMOOTH",
"432 283 OFFCURVE",
"450 299 OFFCURVE",
"449 314 CURVE",
"444 327 OFFCURVE",
"440 337 OFFCURVE",
"436 343 CURVE",
"467 473 OFFCURVE",
"490 570 OFFCURVE",
"507 635 CURVE",
"516 633 OFFCURVE",
"527 633 OFFCURVE",
"540 633 CURVE SMOOTH",
"559 633 OFFCURVE",
"583 634 OFFCURVE",
"612 638 CURVE",
"603 629 OFFCURVE",
"595 611 OFFCURVE",
"586 585 CURVE SMOOTH",
"577 559 OFFCURVE",
"568 540 OFFCURVE",
"557 529 CURVE",
"525 507 OFFCURVE",
"484 490 OFFCURVE",
"484 444 CURVE SMOOTH",
"484 407 OFFCURVE",
"511 374 OFFCURVE",
"546 364 CURVE",
"541 327 OFFCURVE",
"533 283 OFFCURVE",
"521 234 CURVE SMOOTH",
"489 106 LINE SMOOTH",
"482 76 OFFCURVE",
"468 60 OFFCURVE",
"447 58 CURVE SMOOTH",
"400 55 OFFCURVE",
"371 72 OFFCURVE",
"360 108 CURVE",
"384 106 OFFCURVE",
"403 109 OFFCURVE",
"412 121 CURVE SMOOTH",
"415 125 OFFCURVE",
"422 136 OFFCURVE",
"429 154 CURVE SMOOTH",
"434 167 OFFCURVE",
"442 173 OFFCURVE",
"452 174 CURVE SMOOTH",
"476 177 OFFCURVE",
"489 187 OFFCURVE",
"489 205 CURVE SMOOTH",
"489 238 OFFCURVE",
"469 253 OFFCURVE",
"434 250 CURVE SMOOTH",
"421 249 OFFCURVE",
"400 231 OFFCURVE",
"387 230 CURVE SMOOTH",
"379 230 OFFCURVE",
"361 233 OFFCURVE",
"353 233 CURVE SMOOTH",
"341 232 OFFCURVE",
"331 228 OFFCURVE",
"322 219 CURVE",
"283 310 OFFCURVE",
"264 360 OFFCURVE",
"263 371 CURVE SMOOTH",
"262 375 OFFCURVE",
"264 399 OFFCURVE",
"263 407 CURVE SMOOTH",
"262 414 OFFCURVE",
"260 418 OFFCURVE",
"255 421 CURVE",
"243 420 OFFCURVE",
"232 400 OFFCURVE",
"232 387 CURVE SMOOTH",
"232 366 OFFCURVE",
"234 346 OFFCURVE",
"234 328 CURVE SMOOTH",
"234 284 OFFCURVE",
"230 247 OFFCURVE",
"222 218 CURVE SMOOTH",
"217 201 OFFCURVE",
"214 184 OFFCURVE",
"214 168 CURVE SMOOTH",
"214 132 OFFCURVE",
"225 111 OFFCURVE",
"243 111 CURVE SMOOTH",
"255 111 OFFCURVE",
"256 117 OFFCURVE",
"260 126 CURVE SMOOTH",
"261 128 OFFCURVE",
"260 136 OFFCURVE",
"259 150 CURVE SMOOTH",
"259 203 LINE SMOOTH",
"259 242 OFFCURVE",
"259 273 OFFCURVE",
"260 296 CURVE",
"269 247 OFFCURVE",
"345 4 OFFCURVE",
"373 6 CURVE SMOOTH",
"394 8 OFFCURVE",
"467 7 OFFCURVE",
"486 8 CURVE SMOOTH",
"511 9 OFFCURVE",
"525 25 OFFCURVE",
"525 54 CURVE SMOOTH",
"525 59 OFFCURVE",
"524 63 OFFCURVE",
"524 68 CURVE SMOOTH",
"524 80 OFFCURVE",
"533 131 OFFCURVE",
"548 217 CURVE SMOOTH",
"564 306 OFFCURVE",
"574 357 OFFCURVE",
"579 372 CURVE",
"586 334 OFFCURVE",
"593 281 OFFCURVE",
"599 213 CURVE SMOOTH",
"606 138 OFFCURVE",
"613 85 OFFCURVE",
"618 54 CURVE SMOOTH",
"621 36 OFFCURVE",
"628 27 OFFCURVE",
"640 27 CURVE SMOOTH",
"659 27 OFFCURVE",
"687 30 OFFCURVE",
"725 32 CURVE SMOOTH",
"808 36 LINE SMOOTH",
"838 38 OFFCURVE",
"852 47 OFFCURVE",
"851 64 CURVE",
"846 81 OFFCURVE",
"842 94 OFFCURVE",
"838 103 CURVE SMOOTH",
"834 112 OFFCURVE",
"815 192 OFFCURVE",
"780 341 CURVE SMOOTH",
"745 489 OFFCURVE",
"727 574 OFFCURVE",
"724 593 CURVE",
"720 645 LINE",
"716 669 OFFCURVE",
"708 682 OFFCURVE",
"696 680 CURVE SMOOTH",
"675 677 OFFCURVE",
"620 667 OFFCURVE",
"597 665 CURVE SMOOTH",
"581 664 OFFCURVE",
"560 665 OFFCURVE",
"535 668 CURVE SMOOTH",
"510 671 OFFCURVE",
"495 672 OFFCURVE",
"492 672 CURVE SMOOTH",
"470 671 OFFCURVE",
"459 663 OFFCURVE",
"459 648 CURVE SMOOTH",
"459 643 OFFCURVE",
"466 616 OFFCURVE",
"466 604 CURVE",
"449 511 OFFCURVE",
"434 434 OFFCURVE",
"419 373 CURVE",
"366 492 OFFCURVE",
"339 585 OFFCURVE",
"332 652 CURVE SMOOTH",
"331 660 OFFCURVE",
"325 664 OFFCURVE",
"315 664 CURVE SMOOTH",
"311 664 LINE SMOOTH",
"291 662 OFFCURVE",
"244 645 OFFCURVE",
"225 644 CURVE SMOOTH",
"204 643 OFFCURVE",
"137 647 OFFCURVE",
"108 647 CURVE SMOOTH",
"88 647 OFFCURVE",
"70 640 OFFCURVE",
"67 623 CURVE SMOOTH",
"66 618 OFFCURVE",
"64 603 OFFCURVE",
"62 579 CURVE SMOOTH",
"62 577 OFFCURVE",
"58 534 OFFCURVE",
"53 451 CURVE SMOOTH",
"50 400 OFFCURVE",
"46 357 OFFCURVE",
"42 324 CURVE SMOOTH",
"39 299 OFFCURVE",
"34 251 OFFCURVE",
"33 179 CURVE SMOOTH",
"32 118 OFFCURVE",
"28 71 OFFCURVE",
"19 36 CURVE SMOOTH",
"17 26 OFFCURVE",
"15 18 OFFCURVE",
"15 12 CURVE SMOOTH",
"15 9 LINE SMOOTH",
"16 -6 OFFCURVE",
"25 -13 OFFCURVE",
"40 -13 CURVE SMOOTH"
);
},
{
closed = 1;
nodes = (
"758 102 OFFCURVE",
"744 114 OFFCURVE",
"740 165 CURVE SMOOTH",
"740 177 OFFCURVE",
"742 208 OFFCURVE",
"742 220 CURVE",
"739 248 OFFCURVE",
"718 271 OFFCURVE",
"690 271 CURVE SMOOTH",
"660 271 OFFCURVE",
"642 258 OFFCURVE",
"632 237 CURVE SMOOTH",
"630 233 OFFCURVE",
"626 211 OFFCURVE",
"620 172 CURVE",
"617 206 OFFCURVE",
"613 240 OFFCURVE",
"610 273 CURVE SMOOTH",
"606 314 OFFCURVE",
"600 347 OFFCURVE",
"593 373 CURVE",
"612 391 OFFCURVE",
"627 398 OFFCURVE",
"638 398 CURVE SMOOTH",
"651 398 OFFCURVE",
"668 393 OFFCURVE",
"689 384 CURVE SMOOTH",
"712 374 OFFCURVE",
"730 369 OFFCURVE",
"745 371 CURVE SMOOTH",
"757 373 LINE",
"790 247 LINE SMOOTH",
"802 197 OFFCURVE",
"809 155 OFFCURVE",
"812 120 CURVE SMOOTH",
"813 109 OFFCURVE",
"812 101 OFFCURVE",
"809 94 CURVE"
);
}
);
width = 848;
}
);
leftMetricsKey = H;
note = M;
unicode = 004D;
},
{
glyphname = N;
lastChange = "2021-11-24 21:24:38 +0000";
layers = (
{
anchors = (
{
name = bottom;
position = "{342, 0}";
},
{
name = top;
position = "{391, 650}";
}
);
layerId = "F72AA8BB-7F63-4F07-AEAC-030E55A5CABB";
paths = (
{
closed = 1;
nodes = (
"660 -8 OFFCURVE",
"665 2 OFFCURVE",
"667 24 CURVE SMOOTH",
"670 55 OFFCURVE",
"671 95 OFFCURVE",
"671 146 CURVE SMOOTH",
"671 186 LINE SMOOTH",
"671 237 OFFCURVE",
"672 279 OFFCURVE",
"674 311 CURVE SMOOTH",
"695 601 LINE SMOOTH",
"696 609 OFFCURVE",
"694 620 OFFCURVE",
"691 633 CURVE SMOOTH",
"687 649 OFFCURVE",
"682 657 OFFCURVE",
"675 658 CURVE SMOOTH",
"672 658 OFFCURVE",
"669 655 OFFCURVE",
"666 650 CURVE",
"666 648 LINE",
"630 660 OFFCURVE",
"565 666 OFFCURVE",
"525 666 CURVE SMOOTH",
"478 666 OFFCURVE",
"454 653 OFFCURVE",
"452 626 CURVE SMOOTH",
"452 619 OFFCURVE",
"449 580 OFFCURVE",
"446 510 CURVE SMOOTH",
"444 463 OFFCURVE",
"441 424 OFFCURVE",
"437 393 CURVE",
"395 474 LINE SMOOTH",
"372 515 OFFCURVE",
"354 536 OFFCURVE",
"342 537 CURVE SMOOTH",
"337 537 OFFCURVE",
"335 535 OFFCURVE",
"335 530 CURVE",
"334 527 OFFCURVE",
"340 515 OFFCURVE",
"351 495 CURVE",
"336 486 OFFCURVE",
"326 470 OFFCURVE",
"326 448 CURVE SMOOTH",
"326 429 OFFCURVE",
"342 406 OFFCURVE",
"342 393 CURVE SMOOTH",
"341 385 OFFCURVE",
"334 364 OFFCURVE",
"334 356 CURVE SMOOTH",
"331 322 OFFCURVE",
"362 298 OFFCURVE",
"398 298 CURVE SMOOTH",
"409 298 OFFCURVE",
"420 300 OFFCURVE",
"431 303 CURVE",
"427 264 OFFCURVE",
"436 245 OFFCURVE",
"457 245 CURVE SMOOTH",
"473 245 OFFCURVE",
"482 252 OFFCURVE",
"483 266 CURVE SMOOTH",
"484 284 OFFCURVE",
"483 307 OFFCURVE",
"480 334 CURVE SMOOTH",
"476 369 OFFCURVE",
"471 407 OFFCURVE",
"471 442 CURVE SMOOTH",
"471 449 OFFCURVE",
"471 504 OFFCURVE",
"482 607 CURVE SMOOTH",
"483 615 OFFCURVE",
"486 619 OFFCURVE",
"493 619 CURVE SMOOTH",
"496 619 LINE SMOOTH",
"510 617 OFFCURVE",
"534 614 OFFCURVE",
"567 607 CURVE SMOOTH",
"598 600 OFFCURVE",
"621 597 OFFCURVE",
"638 597 CURVE SMOOTH",
"651 597 LINE",
"648 578 OFFCURVE",
"647 565 OFFCURVE",
"647 557 CURVE",
"569 556 OFFCURVE",
"527 528 OFFCURVE",
"527 471 CURVE SMOOTH",
"527 451 OFFCURVE",
"535 426 OFFCURVE",
"552 397 CURVE SMOOTH",
"569 368 OFFCURVE",
"576 345 OFFCURVE",
"576 327 CURVE SMOOTH",
"576 304 OFFCURVE",
"567 284 OFFCURVE",
"548 269 CURVE SMOOTH",
"500 230 LINE",
"480 209 OFFCURVE",
"470 182 OFFCURVE",
"470 147 CURVE SMOOTH",
"470 111 OFFCURVE",
"485 78 OFFCURVE",
"513 48 CURVE",
"464 51 LINE SMOOTH",
"445 52 OFFCURVE",
"416 89 OFFCURVE",
"385 165 CURVE SMOOTH",
"339 279 LINE",
"331 282 OFFCURVE",
"325 283 OFFCURVE",
"322 283 CURVE SMOOTH",
"310 283 OFFCURVE",
"296 266 OFFCURVE",
"295 253 CURVE SMOOTH",
"295 249 OFFCURVE",
"303 235 OFFCURVE",
"319 212 CURVE SMOOTH",
"337 186 OFFCURVE",
"348 170 OFFCURVE",
"351 163 CURVE SMOOTH",
"368 123 OFFCURVE",
"377 92 OFFCURVE",
"384 72 CURVE",
"393 30 LINE",
"398 14 OFFCURVE",
"407 5 OFFCURVE",
"422 4 CURVE SMOOTH",
"432 4 OFFCURVE",
"444 3 OFFCURVE",
"458 3 CURVE SMOOTH",
"472 3 OFFCURVE",
"489 4 OFFCURVE",
"508 4 CURVE SMOOTH",
"524 4 OFFCURVE",
"538 5 OFFCURVE",
"551 5 CURVE SMOOTH",
"568 5 OFFCURVE",
"583 4 OFFCURVE",
"594 3 CURVE SMOOTH",
"607 2 OFFCURVE",
"639 -8 OFFCURVE",
"649 -8 CURVE SMOOTH"
);
},
{
closed = 1;
nodes = (
"256 31 OFFCURVE",
"271 42 OFFCURVE",
"273 64 CURVE SMOOTH",
"274 80 OFFCURVE",
"275 104 OFFCURVE",
"274 135 CURVE SMOOTH",
"274 151 OFFCURVE",
"273 164 OFFCURVE",
"273 176 CURVE SMOOTH",
"273 188 OFFCURVE",
"274 198 OFFCURVE",
"274 205 CURVE SMOOTH",
"275 224 OFFCURVE",
"282 250 OFFCURVE",
"294 283 CURVE SMOOTH",
"307 318 OFFCURVE",
"312 343 OFFCURVE",
"312 357 CURVE SMOOTH",
"312 376 OFFCURVE",
"295 389 OFFCURVE",
"275 392 CURVE",
"251 393 OFFCURVE",
"241 381 OFFCURVE",
"241 352 CURVE SMOOTH",
"241 341 OFFCURVE",
"242 326 OFFCURVE",
"244 309 CURVE SMOOTH",
"246 291 OFFCURVE",
"248 273 OFFCURVE",
"251 255 CURVE SMOOTH",
"252 237 OFFCURVE",
"252 194 OFFCURVE",
"246 125 CURVE SMOOTH",
"245 114 OFFCURVE",
"244 104 OFFCURVE",
"242 96 CURVE",
"203 113 OFFCURVE",
"180 141 OFFCURVE",
"175 178 CURVE SMOOTH",
"172 210 OFFCURVE",
"170 242 OFFCURVE",
"168 273 CURVE",
"159 307 OFFCURVE",
"130 330 OFFCURVE",
"82 343 CURVE",
"86 417 OFFCURVE",
"89 473 OFFCURVE",
"90 510 CURVE",
"98 487 OFFCURVE",
"106 463 OFFCURVE",
"113 440 CURVE",
"125 418 OFFCURVE",
"147 405 OFFCURVE",
"182 405 CURVE SMOOTH",
"223 405 OFFCURVE",
"269 439 OFFCURVE",
"269 477 CURVE SMOOTH",
"269 497 OFFCURVE",
"251 526 OFFCURVE",
"251 543 CURVE SMOOTH",
"251 556 OFFCURVE",
"256 571 OFFCURVE",
"267 585 CURVE SMOOTH",
"295 621 LINE",
"300 618 OFFCURVE",
"310 608 OFFCURVE",
"325 591 CURVE SMOOTH",
"341 573 OFFCURVE",
"348 565 OFFCURVE",
"351 565 CURVE SMOOTH",
"357 564 OFFCURVE",
"361 568 OFFCURVE",
"361 577 CURVE SMOOTH",
"361 585 OFFCURVE",
"351 601 OFFCURVE",
"333 625 CURVE SMOOTH",
"313 651 OFFCURVE",
"298 663 OFFCURVE",
"287 664 CURVE SMOOTH",
"266 666 OFFCURVE",
"234 667 OFFCURVE",
"191 669 CURVE SMOOTH",
"146 671 OFFCURVE",
"114 673 OFFCURVE",
"93 673 CURVE SMOOTH",
"78 673 OFFCURVE",
"70 665 OFFCURVE",
"69 650 CURVE SMOOTH",
"67 622 OFFCURVE",
"66 534 OFFCURVE",
"64 507 CURVE SMOOTH",
"51 337 OFFCURVE",
"43 231 OFFCURVE",
"37 188 CURVE SMOOTH",
"28 138 OFFCURVE",
"20 100 OFFCURVE",
"15 75 CURVE",
"14 58 OFFCURVE",
"27 49 OFFCURVE",
"53 47 CURVE SMOOTH",
"66 46 OFFCURVE",
"95 44 OFFCURVE",
"140 38 CURVE SMOOTH",
"176 33 OFFCURVE",
"205 31 OFFCURVE",
"227 31 CURVE SMOOTH"
);
}
);
width = 710;
}
);
leftKerningGroup = H;
leftMetricsKey = H;
note = N;
rightKerningGroup = H;
rightMetricsKey = H;
unicode = 004E;
},
{
glyphname = Eng;
lastChange = "2021-11-24 21:25:10 +0000";
layers = (
{
layerId = "F72AA8BB-7F63-4F07-AEAC-030E55A5CABB";
paths = (
{
closed = 1;
nodes = (
"521 -342 OFFCURVE",
"543 -340 OFFCURVE",
"567 -336 CURVE SMOOTH",
"651 -321 OFFCURVE",
"656 -267 OFFCURVE",
"659 -209 CURVE SMOOTH",
"663 -97 OFFCURVE",
"668 -41 OFFCURVE",
"668 -41 CURVE",
"666 -26 OFFCURVE",
"665 -12 OFFCURVE",
"664 5 CURVE",
"667 24 LINE SMOOTH",
"671 46 OFFCURVE",
"671 73 OFFCURVE",
"671 105 CURVE SMOOTH",
"671 186 LINE SMOOTH",
"671 237 OFFCURVE",
"672 279 OFFCURVE",
"674 311 CURVE SMOOTH",
"695 601 LINE SMOOTH",
"696 621 OFFCURVE",
"692 648 OFFCURVE",
"668 655 CURVE SMOOTH",
"628 667 OFFCURVE",
"565 666 OFFCURVE",
"525 666 CURVE SMOOTH",
"478 666 OFFCURVE",
"454 653 OFFCURVE",
"452 626 CURVE SMOOTH",
"452 619 OFFCURVE",
"449 580 OFFCURVE",
"446 510 CURVE SMOOTH",
"444 463 OFFCURVE",
"441 424 OFFCURVE",
"437 393 CURVE",
"395 474 LINE SMOOTH",
"373 516 OFFCURVE",
"354 536 OFFCURVE",
"342 537 CURVE SMOOTH",
"337 537 OFFCURVE",
"335 535 OFFCURVE",
"335 530 CURVE",
"334 527 OFFCURVE",
"340 515 OFFCURVE",
"351 495 CURVE",
"336 486 OFFCURVE",
"326 470 OFFCURVE",
"326 448 CURVE SMOOTH",
"326 429 OFFCURVE",
"342 406 OFFCURVE",
"342 393 CURVE SMOOTH",
"341 385 OFFCURVE",
"334 364 OFFCURVE",
"334 356 CURVE SMOOTH",
"331 322 OFFCURVE",
"362 298 OFFCURVE",
"398 298 CURVE SMOOTH",
"409 298 OFFCURVE",
"420 300 OFFCURVE",
"431 303 CURVE",
"427 264 OFFCURVE",
"436 245 OFFCURVE",
"457 245 CURVE SMOOTH",
"473 245 OFFCURVE",
"482 252 OFFCURVE",
"483 266 CURVE SMOOTH",
"484 284 OFFCURVE",
"483 307 OFFCURVE",
"480 334 CURVE SMOOTH",
"476 369 OFFCURVE",
"471 407 OFFCURVE",
"471 442 CURVE SMOOTH",
"471 449 OFFCURVE",
"471 504 OFFCURVE",
"482 607 CURVE SMOOTH",
"483 615 OFFCURVE",
"486 619 OFFCURVE",
"493 619 CURVE SMOOTH",
"496 619 LINE SMOOTH",
"510 617 OFFCURVE",
"534 614 OFFCURVE",
"567 607 CURVE SMOOTH",
"598 600 OFFCURVE",
"621 597 OFFCURVE",
"638 597 CURVE SMOOTH",
"651 597 LINE",
"648 578 OFFCURVE",
"647 565 OFFCURVE",
"647 557 CURVE",
"569 556 OFFCURVE",
"527 528 OFFCURVE",
"527 471 CURVE SMOOTH",
"527 451 OFFCURVE",
"535 426 OFFCURVE",
"552 397 CURVE SMOOTH",
"569 368 OFFCURVE",
"576 345 OFFCURVE",
"576 327 CURVE SMOOTH",
"576 304 OFFCURVE",
"567 284 OFFCURVE",
"548 269 CURVE SMOOTH",
"500 230 LINE",
"495 195 OFFCURVE",
"516 182 OFFCURVE",
"540 182 CURVE SMOOTH",
"568 182 OFFCURVE",
"601 200 OFFCURVE",
"602 224 CURVE SMOOTH",
"602 228 OFFCURVE",
"610 232 OFFCURVE",
"619 232 CURVE SMOOTH",
"627 232 OFFCURVE",
"635 228 OFFCURVE",
"636 216 CURVE SMOOTH",
"637 210 OFFCURVE",
"637 203 OFFCURVE",
"637 195 CURVE SMOOTH",
"637 139 OFFCURVE",
"620 46 OFFCURVE",
"621 17 CURVE SMOOTH",
"626 -66 LINE SMOOTH",
"628 -93 OFFCURVE",
"620 -112 OFFCURVE",
"602 -121 CURVE SMOOTH",
"584 -128 OFFCURVE",
"567 -134 OFFCURVE",
"549 -140 CURVE",
"528 -150 OFFCURVE",
"514 -168 OFFCURVE",
"507 -195 CURVE SMOOTH",
"505 -208 OFFCURVE",
"523 -222 OFFCURVE",
"559 -236 CURVE SMOOTH",
"596 -250 OFFCURVE",
"613 -257 OFFCURVE",
"613 -258 CURVE",
"602 -298 OFFCURVE",
"535 -311 OFFCURVE",
"491 -311 CURVE SMOOTH",
"465 -311 OFFCURVE",
"448 -308 OFFCURVE",
"430 -291 CURVE SMOOTH",
"415 -277 OFFCURVE",
"407 -264 OFFCURVE",
"407 -249 CURVE",
"438 -249 OFFCURVE",
"458 -248 OFFCURVE",
"467 -245 CURVE SMOOTH",
"483 -240 OFFCURVE",
"493 -226 OFFCURVE",
"494 -205 CURVE SMOOTH",
"495 -188 LINE SMOOTH",
"496 -171 OFFCURVE",
"490 -143 OFFCURVE",
"476 -103 CURVE SMOOTH",
"470 -87 OFFCURVE",
"469 -68 OFFCURVE",
"469 -50 CURVE SMOOTH",
"469 -25 OFFCURVE",
"472 -2 OFFCURVE",
"472 10 CURVE SMOOTH",
"472 20 OFFCURVE",
"476 25 OFFCURVE",
"476 31 CURVE SMOOTH",
"476 36 OFFCURVE",
"473 42 OFFCURVE",
"464 51 CURVE SMOOTH",
"450 65 OFFCURVE",
"416 89 OFFCURVE",
"385 165 CURVE SMOOTH",
"339 279 LINE",
"331 282 OFFCURVE",
"325 283 OFFCURVE",
"322 283 CURVE SMOOTH",
"310 283 OFFCURVE",
"296 266 OFFCURVE",
"295 253 CURVE SMOOTH",
"295 249 OFFCURVE",
"303 235 OFFCURVE",
"319 212 CURVE SMOOTH",
"337 186 OFFCURVE",
"348 170 OFFCURVE",
"351 163 CURVE SMOOTH",
"368 123 OFFCURVE",
"377 92 OFFCURVE",
"384 72 CURVE",
"393 30 LINE",
"398 14 OFFCURVE",
"407 5 OFFCURVE",
"422 4 CURVE SMOOTH",
"427 4 OFFCURVE",
"433 4 OFFCURVE",
"440 3 CURVE",
"438 -43 OFFCURVE",
"435 -134 OFFCURVE",
"434 -207 CURVE",
"415 -214 OFFCURVE",
"362 -218 OFFCURVE",
"350 -217 CURVE SMOOTH",
"337 -216 OFFCURVE",
"332 -221 OFFCURVE",
"331 -232 CURVE SMOOTH",
"327 -313 LINE SMOOTH",
"327 -322 OFFCURVE",
"332 -329 OFFCURVE",
"346 -330 CURVE SMOOTH",
"461 -340 LINE SMOOTH",
"473 -341 OFFCURVE",
"486 -342 OFFCURVE",
"500 -342 CURVE SMOOTH"
);
},
{
closed = 1;
nodes = (
"256 31 OFFCURVE",
"271 42 OFFCURVE",
"273 64 CURVE SMOOTH",
"274 80 OFFCURVE",
"275 104 OFFCURVE",
"274 135 CURVE SMOOTH",
"274 151 OFFCURVE",
"273 164 OFFCURVE",
"273 176 CURVE SMOOTH",
"273 188 OFFCURVE",
"274 198 OFFCURVE",
"274 205 CURVE SMOOTH",
"275 224 OFFCURVE",
"282 250 OFFCURVE",
"294 283 CURVE SMOOTH",
"307 318 OFFCURVE",
"312 343 OFFCURVE",
"312 357 CURVE SMOOTH",
"312 376 OFFCURVE",
"295 389 OFFCURVE",
"275 392 CURVE",
"251 393 OFFCURVE",
"241 381 OFFCURVE",
"241 352 CURVE SMOOTH",
"241 341 OFFCURVE",
"242 326 OFFCURVE",
"244 309 CURVE SMOOTH",
"246 291 OFFCURVE",
"248 273 OFFCURVE",
"251 255 CURVE SMOOTH",
"252 237 OFFCURVE",
"252 194 OFFCURVE",
"246 125 CURVE SMOOTH",
"245 114 OFFCURVE",
"244 104 OFFCURVE",
"242 96 CURVE",
"203 113 OFFCURVE",
"180 141 OFFCURVE",
"175 178 CURVE SMOOTH",
"172 210 OFFCURVE",
"170 242 OFFCURVE",
"168 273 CURVE",
"159 307 OFFCURVE",
"130 330 OFFCURVE",
"82 343 CURVE",
"86 417 OFFCURVE",
"89 473 OFFCURVE",
"90 510 CURVE",
"98 487 OFFCURVE",
"106 463 OFFCURVE",
"113 440 CURVE",
"125 418 OFFCURVE",
"147 405 OFFCURVE",
"182 405 CURVE SMOOTH",
"223 405 OFFCURVE",
"269 439 OFFCURVE",
"269 477 CURVE SMOOTH",
"269 497 OFFCURVE",
"251 526 OFFCURVE",
"251 543 CURVE SMOOTH",
"251 556 OFFCURVE",
"256 571 OFFCURVE",
"267 585 CURVE SMOOTH",
"295 621 LINE",
"300 618 OFFCURVE",
"310 608 OFFCURVE",
"325 591 CURVE SMOOTH",
"341 573 OFFCURVE",
"348 565 OFFCURVE",
"351 565 CURVE SMOOTH",
"357 564 OFFCURVE",
"361 568 OFFCURVE",
"361 577 CURVE SMOOTH",
"361 585 OFFCURVE",
"351 601 OFFCURVE",
"333 625 CURVE SMOOTH",
"313 651 OFFCURVE",
"298 663 OFFCURVE",
"287 664 CURVE SMOOTH",
"266 666 OFFCURVE",
"234 667 OFFCURVE",
"191 669 CURVE SMOOTH",
"96 673 LINE SMOOTH",
"79 674 OFFCURVE",
"70 666 OFFCURVE",
"69 650 CURVE SMOOTH",
"67 622 OFFCURVE",
"66 534 OFFCURVE",
"64 507 CURVE SMOOTH",
"51 337 OFFCURVE",
"43 231 OFFCURVE",
"37 188 CURVE SMOOTH",
"28 138 OFFCURVE",
"20 100 OFFCURVE",
"15 75 CURVE",
"14 58 OFFCURVE",
"27 49 OFFCURVE",
"53 47 CURVE SMOOTH",
"66 46 OFFCURVE",
"95 44 OFFCURVE",
"140 38 CURVE SMOOTH",
"176 33 OFFCURVE",
"205 31 OFFCURVE",
"227 31 CURVE SMOOTH"
);
}
);
width = 710;
}
);
leftKerningGroup = H;
leftMetricsKey = H;
rightKerningGroup = H;
rightMetricsKey = H;
unicode = 014A;
},
{
glyphname = O;
lastChange = "2021-11-24 18:31:04 +0000";
layers = (
{
anchors = (
{
name = bottom;
position = "{359, 0}";
},
{
name = center;
position = "{359, 325}";
},
{
name = ogonek;
position = "{507, 10}";
},
{
name = top;
position = "{359, 650}";
},
{
name = topleft;
position = "{32, 650}";
},
{
name = topright;
position = "{439, 650}";
}
);
layerId = "F72AA8BB-7F63-4F07-AEAC-030E55A5CABB";
paths = (
{
closed = 1;
nodes = (
"384 -13 OFFCURVE",
"457 11 OFFCURVE",
"547 59 CURVE SMOOTH",
"650 114 OFFCURVE",
"696 230 OFFCURVE",
"696 342 CURVE SMOOTH",
"696 551 OFFCURVE",
"556 671 OFFCURVE",
"353 671 CURVE SMOOTH",
"317 671 OFFCURVE",
"184 660 OFFCURVE",
"182 614 CURVE",
"72 567 OFFCURVE",
"12 442 OFFCURVE",
"12 327 CURVE SMOOTH",
"12 154 OFFCURVE",
"149 -13 OFFCURVE",
"328 -13 CURVE SMOOTH"
);
},
{
closed = 1;
nodes = (
"307 26 OFFCURVE",
"264 35 OFFCURVE",
"220 53 CURVE",
"227 71 OFFCURVE",
"230 92 OFFCURVE",
"230 115 CURVE SMOOTH",
"230 143 OFFCURVE",
"221 181 OFFCURVE",
"203 228 CURVE SMOOTH",
"185 274 OFFCURVE",
"176 309 OFFCURVE",
"176 330 CURVE SMOOTH",
"176 348 OFFCURVE",
"190 416 OFFCURVE",
"190 436 CURVE SMOOTH",
"190 490 OFFCURVE",
"169 529 OFFCURVE",
"126 552 CURVE",
"153 573 OFFCURVE",
"173 587 OFFCURVE",
"188 596 CURVE",
"191 595 OFFCURVE",
"194 594 OFFCURVE",
"197 594 CURVE SMOOTH",
"208 594 OFFCURVE",
"271 623 OFFCURVE",
"277 629 CURVE",
"282 558 OFFCURVE",
"310 523 OFFCURVE",
"360 523 CURVE SMOOTH",
"380 523 OFFCURVE",
"404 533 OFFCURVE",
"431 553 CURVE SMOOTH",
"457 573 OFFCURVE",
"480 583 OFFCURVE",
"498 583 CURVE SMOOTH",
"517 583 OFFCURVE",
"537 573 OFFCURVE",
"558 552 CURVE SMOOTH",
"582 528 OFFCURVE",
"600 514 OFFCURVE",
"614 510 CURVE",
"653 446 OFFCURVE",
"673 381 OFFCURVE",
"673 315 CURVE SMOOTH",
"673 292 OFFCURVE",
"672 271 OFFCURVE",
"669 252 CURVE SMOOTH",
"654 160 OFFCURVE",
"528 72 OFFCURVE",
"445 44 CURVE",
"447 48 OFFCURVE",
"453 58 OFFCURVE",
"464 74 CURVE SMOOTH",
"473 87 OFFCURVE",
"477 97 OFFCURVE",
"477 103 CURVE SMOOTH",
"477 122 OFFCURVE",
"466 132 OFFCURVE",
"444 132 CURVE SMOOTH",
"439 132 OFFCURVE",
"433 131 OFFCURVE",
"426 128 CURVE SMOOTH",
"417 124 OFFCURVE",
"411 123 OFFCURVE",
"408 122 CURVE SMOOTH",
"374 111 OFFCURVE",
"337 108 OFFCURVE",
"337 65 CURVE SMOOTH",
"337 49 OFFCURVE",
"341 36 OFFCURVE",
"350 26 CURVE"
);
},
{
closed = 1;
nodes = (
"497 169 OFFCURVE",
"537 199 OFFCURVE",
"553 201 CURVE SMOOTH",
"598 207 OFFCURVE",
"642 217 OFFCURVE",
"642 272 CURVE SMOOTH",
"642 347 LINE SMOOTH",
"642 390 OFFCURVE",
"607 422 OFFCURVE",
"563 422 CURVE SMOOTH",
"538 422 OFFCURVE",
"499 400 OFFCURVE",
"496 400 CURVE SMOOTH",
"487 400 LINE",
"483 429 OFFCURVE",
"458 462 OFFCURVE",
"431 462 CURVE SMOOTH",
"423 462 OFFCURVE",
"419 458 OFFCURVE",
"419 450 CURVE SMOOTH",
"419 440 OFFCURVE",
"423 431 OFFCURVE",
"432 423 CURVE SMOOTH",
"462 397 OFFCURVE",
"469 381 OFFCURVE",
"469 339 CURVE SMOOTH",
"469 288 OFFCURVE",
"419 246 OFFCURVE",
"367 246 CURVE SMOOTH",
"299 246 OFFCURVE",
"268 300 OFFCURVE",
"268 362 CURVE SMOOTH",
"268 409 OFFCURVE",
"300 459 OFFCURVE",
"345 463 CURVE SMOOTH",
"386 467 OFFCURVE",
"406 471 OFFCURVE",
"406 474 CURVE SMOOTH",
"406 482 OFFCURVE",
"372 490 OFFCURVE",
"360 490 CURVE SMOOTH",
"284 490 OFFCURVE",
"247 403 OFFCURVE",
"247 338 CURVE SMOOTH",
"247 295 OFFCURVE",
"253 265 OFFCURVE",
"266 247 CURVE SMOOTH",
"281 226 OFFCURVE",
"309 217 OFFCURVE",
"350 217 CURVE SMOOTH",
"358 217 LINE",
"366 209 OFFCURVE",
"457 169 OFFCURVE",
"468 169 CURVE SMOOTH"
);
}
);
width = 708;
}
);
leftKerningGroup = O;
note = O;
rightKerningGroup = O;
unicode = 004F;
},
{
glyphname = Oslash;
lastChange = "2021-11-24 21:26:07 +0000";
layers = (
{
anchors = (
{
name = bottom;
position = "{346, 0}";
},
{
name = top;
position = "{346, 700}";
}
);
layerId = "F72AA8BB-7F63-4F07-AEAC-030E55A5CABB";
paths = (
{
closed = 1;
nodes = (
"254 -63 LINE SMOOTH",
"263 -63 OFFCURVE",
"268 -57 OFFCURVE",
"270 -44 CURVE SMOOTH",
"276 -10 LINE",
"289 -12 OFFCURVE",
"302 -13 OFFCURVE",
"315 -13 CURVE SMOOTH",
"371 -13 OFFCURVE",
"444 11 OFFCURVE",
"534 59 CURVE SMOOTH",
"637 114 OFFCURVE",
"683 230 OFFCURVE",
"683 342 CURVE SMOOTH",
"683 486 OFFCURVE",
"624 585 OFFCURVE",
"507 638 CURVE",
"546 735 LINE",
"547 739 OFFCURVE",
"548 742 OFFCURVE",
"548 746 CURVE SMOOTH",
"548 749 LINE SMOOTH",
"548 753 OFFCURVE",
"547 755 OFFCURVE",
"544 754 CURVE SMOOTH",
"518 745 OFFCURVE",
"501 747 OFFCURVE",
"497 747 CURVE SMOOTH",
"493 747 OFFCURVE",
"474 749 OFFCURVE",
"439 754 CURVE SMOOTH",
"432 755 OFFCURVE",
"426 745 OFFCURVE",
"423 724 CURVE SMOOTH",
"418 691 OFFCURVE",
"414 671 OFFCURVE",
"412 666 CURVE",
"389 669 OFFCURVE",
"365 671 OFFCURVE",
"340 671 CURVE SMOOTH",
"304 671 OFFCURVE",
"171 660 OFFCURVE",
"169 614 CURVE",
"59 567 OFFCURVE",
"-1 442 OFFCURVE",
"-1 327 CURVE SMOOTH",
"-1 207 OFFCURVE",
"67 88 OFFCURVE",
"170 28 CURVE",
"164 14 LINE SMOOTH",
"153 -11 OFFCURVE",
"142 -31 OFFCURVE",
"135 -44 CURVE",
"133 -50 OFFCURVE",
"131 -55 OFFCURVE",
"131 -58 CURVE SMOOTH",
"131 -61 OFFCURVE",
"133 -63 OFFCURVE",
"136 -63 CURVE SMOOTH"
);
},
{
closed = 1;
nodes = (
"185 -25 OFFCURVE",
"180 -17 OFFCURVE",
"180 -1 CURVE SMOOTH",
"180 6 OFFCURVE",
"181 13 OFFCURVE",
"184 20 CURVE",
"205 9 OFFCURVE",
"228 0 OFFCURVE",
"251 -5 CURVE",
"251 -14 OFFCURVE",
"251 -20 OFFCURVE",
"250 -25 CURVE",
"196 -25 LINE SMOOTH"
);
},
{
closed = 1;
nodes = (
"245 39 OFFCURVE",
"226 45 OFFCURVE",
"207 53 CURVE",
"213 69 OFFCURVE",
"216 87 OFFCURVE",
"217 108 CURVE",
"265 234 LINE",
"270 231 OFFCURVE",
"275 228 OFFCURVE",
"281 225 CURVE",
"274 203 OFFCURVE",
"267 179 OFFCURVE",
"267 153 CURVE SMOOTH",
"267 120 OFFCURVE",
"296 125 OFFCURVE",
"294 117 CURVE",
"275 66 OFFCURVE",
"264 38 OFFCURVE",
"263 34 CURVE"
);
},
{
closed = 1;
nodes = (
"212 165 OFFCURVE",
"202 197 OFFCURVE",
"185 241 CURVE SMOOTH",
"170 280 OFFCURVE",
"163 309 OFFCURVE",
"163 330 CURVE SMOOTH",
"163 348 OFFCURVE",
"177 416 OFFCURVE",
"177 436 CURVE SMOOTH",
"177 490 OFFCURVE",
"156 529 OFFCURVE",
"113 552 CURVE",
"140 573 OFFCURVE",
"160 587 OFFCURVE",
"175 596 CURVE",
"178 595 OFFCURVE",
"181 594 OFFCURVE",
"184 594 CURVE SMOOTH",
"195 594 OFFCURVE",
"258 623 OFFCURVE",
"264 629 CURVE",
"269 558 OFFCURVE",
"297 523 OFFCURVE",
"347 523 CURVE SMOOTH",
"352 523 OFFCURVE",
"356 523 OFFCURVE",
"360 524 CURVE",
"347 490 LINE",
"271 490 OFFCURVE",
"234 403 OFFCURVE",
"234 338 CURVE SMOOTH",
"234 294 OFFCURVE",
"241 263 OFFCURVE",
"254 246 CURVE",
"215 144 LINE"
);
},
{
closed = 1;
nodes = (
"261 311 OFFCURVE",
"255 335 OFFCURVE",
"255 362 CURVE SMOOTH",
"255 405 OFFCURVE",
"285 463 OFFCURVE",
"332 463 CURVE SMOOTH",
"337 463 LINE",
"272 292 LINE"
);
},
{
closed = 1;
nodes = (
"367 274 OFFCURVE",
"377 303 OFFCURVE",
"389 334 CURVE SMOOTH",
"422 421 LINE",
"445 402 OFFCURVE",
"456 374 OFFCURVE",
"456 339 CURVE SMOOTH",
"456 290 OFFCURVE",
"408 247 OFFCURVE",
"356 246 CURVE"
);
},
{
closed = 1;
nodes = (
"318 26 OFFCURVE",
"300 27 OFFCURVE",
"283 30 CURVE",
"296 76 OFFCURVE",
"308 110 OFFCURVE",
"316 132 CURVE SMOOTH",
"329 167 OFFCURVE",
"339 195 OFFCURVE",
"346 216 CURVE",
"356 207 OFFCURVE",
"443 169 OFFCURVE",
"455 169 CURVE SMOOTH",
"484 169 OFFCURVE",
"524 199 OFFCURVE",
"540 201 CURVE SMOOTH",
"585 207 OFFCURVE",
"629 217 OFFCURVE",
"629 272 CURVE SMOOTH",
"629 347 LINE SMOOTH",
"629 390 OFFCURVE",
"594 422 OFFCURVE",
"550 422 CURVE SMOOTH",
"525 422 OFFCURVE",
"486 400 OFFCURVE",
"483 400 CURVE SMOOTH",
"474 400 LINE",
"470 427 OFFCURVE",
"457 446 OFFCURVE",
"436 457 CURVE",
"486 583 LINE",
"505 583 OFFCURVE",
"524 573 OFFCURVE",
"545 552 CURVE SMOOTH",
"569 528 OFFCURVE",
"587 514 OFFCURVE",
"601 510 CURVE",
"640 446 OFFCURVE",
"660 381 OFFCURVE",
"660 315 CURVE SMOOTH",
"660 292 OFFCURVE",
"659 271 OFFCURVE",
"656 252 CURVE SMOOTH",
"641 160 OFFCURVE",
"515 72 OFFCURVE",
"432 44 CURVE",
"433 47 OFFCURVE",
"440 57 OFFCURVE",
"451 74 CURVE SMOOTH",
"460 87 OFFCURVE",
"464 97 OFFCURVE",
"464 103 CURVE SMOOTH",
"464 122 OFFCURVE",
"453 132 OFFCURVE",
"431 132 CURVE SMOOTH",
"426 132 OFFCURVE",
"420 131 OFFCURVE",
"413 128 CURVE SMOOTH",
"404 124 OFFCURVE",
"398 123 OFFCURVE",
"395 122 CURVE SMOOTH",
"361 111 OFFCURVE",
"324 108 OFFCURVE",
"324 65 CURVE SMOOTH",
"324 49 OFFCURVE",
"328 36 OFFCURVE",
"337 26 CURVE"
);
},
{
closed = 1;
nodes = (
"291 267 OFFCURVE",
"286 272 OFFCURVE",
"281 277 CURVE",
"321 381 LINE",
"336 398 OFFCURVE",
"346 410 OFFCURVE",
"353 415 CURVE",
"366 435 OFFCURVE",
"378 453 OFFCURVE",
"388 470 CURVE",
"391 471 OFFCURVE",
"392 473 OFFCURVE",
"393 474 CURVE",
"393 475 OFFCURVE",
"393 476 OFFCURVE",
"392 477 CURVE",
"412 512 OFFCURVE",
"426 541 OFFCURVE",
"435 565 CURVE",
"447 573 OFFCURVE",
"458 578 OFFCURVE",
"468 581 CURVE",
"422 461 LINE",
"421 462 OFFCURVE",
"419 462 OFFCURVE",
"418 462 CURVE SMOOTH",
"410 462 OFFCURVE",
"406 458 OFFCURVE",
"406 450 CURVE SMOOTH",
"406 443 OFFCURVE",
"408 438 OFFCURVE",
"411 433 CURVE",
"387 371 LINE SMOOTH",
"386 369 OFFCURVE",
"374 357 OFFCURVE",
"351 336 CURVE SMOOTH",
"327 315 OFFCURVE",
"309 290 OFFCURVE",
"296 264 CURVE"
);
},
{
closed = 1;
nodes = (
"476 651 OFFCURVE",
"459 656 OFFCURVE",
"441 660 CURVE",
"436 692 OFFCURVE",
"434 711 OFFCURVE",
"433 716 CURVE",
"456 710 OFFCURVE",
"473 707 OFFCURVE",
"483 707 CURVE SMOOTH",
"488 707 OFFCURVE",
"494 708 OFFCURVE",
"500 710 CURVE SMOOTH",
"509 713 OFFCURVE",
"516 715 OFFCURVE",
"521 716 CURVE",
"493 644 LINE"
);
}
);
width = 692;
}
);
leftKerningGroup = O;
note = Oslash;
rightKerningGroup = O;
unicode = 00D8;
},
{
glyphname = OE;
lastChange = "2021-11-24 21:26:12 +0000";
layers = (
{
layerId = "F72AA8BB-7F63-4F07-AEAC-030E55A5CABB";
paths = (
{
closed = 1;
nodes = (
"368 -13 OFFCURVE",
"433 7 OFFCURVE",
"510 47 CURVE",
"507 43 OFFCURVE",
"505 37 OFFCURVE",
"505 29 CURVE SMOOTH",
"505 13 OFFCURVE",
"515 5 OFFCURVE",
"536 5 CURVE SMOOTH",
"569 5 OFFCURVE",
"618 7 OFFCURVE",
"684 10 CURVE SMOOTH",
"750 13 OFFCURVE",
"800 15 OFFCURVE",
"833 15 CURVE SMOOTH",
"848 15 OFFCURVE",
"868 12 OFFCURVE",
"893 7 CURVE SMOOTH",
"918 2 OFFCURVE",
"936 -1 OFFCURVE",
"945 -1 CURVE SMOOTH",
"963 -1 OFFCURVE",
"972 26 OFFCURVE",
"972 79 CURVE SMOOTH",
"972 99 OFFCURVE",
"957 168 OFFCURVE",
"957 189 CURVE SMOOTH",
"957 208 LINE",
"956 213 OFFCURVE",
"950 216 OFFCURVE",
"941 216 CURVE SMOOTH",
"921 216 OFFCURVE",
"851 205 OFFCURVE",
"830 205 CURVE SMOOTH",
"764 205 LINE",
"763 224 OFFCURVE",
"759 240 OFFCURVE",
"753 253 CURVE",
"764 253 LINE",
"773 237 OFFCURVE",
"819 229 OFFCURVE",
"902 229 CURVE SMOOTH",
"922 229 OFFCURVE",
"932 237 OFFCURVE",
"932 254 CURVE SMOOTH",
"932 261 OFFCURVE",
"930 267 OFFCURVE",
"925 270 CURVE",
"926 275 OFFCURVE",
"931 298 OFFCURVE",
"938 337 CURVE SMOOTH",
"945 376 OFFCURVE",
"949 398 OFFCURVE",
"949 402 CURVE SMOOTH",
"949 416 OFFCURVE",
"936 423 OFFCURVE",
"910 423 CURVE SMOOTH",
"893 423 OFFCURVE",
"868 423 OFFCURVE",
"835 421 CURVE SMOOTH",
"802 419 OFFCURVE",
"777 418 OFFCURVE",
"760 418 CURVE",
"761 449 LINE SMOOTH",
"761 453 OFFCURVE",
"790 455 OFFCURVE",
"848 455 CURVE SMOOTH",
"867 455 OFFCURVE",
"914 450 OFFCURVE",
"934 450 CURVE SMOOTH",
"945 450 OFFCURVE",
"951 456 OFFCURVE",
"951 468 CURVE SMOOTH",
"951 473 OFFCURVE",
"949 477 OFFCURVE",
"946 481 CURVE",
"946 571 LINE SMOOTH",
"946 578 OFFCURVE",
"949 604 OFFCURVE",
"949 616 CURVE SMOOTH",
"949 638 OFFCURVE",
"942 649 OFFCURVE",
"927 649 CURVE SMOOTH",
"902 649 OFFCURVE",
"813 640 OFFCURVE",
"787 640 CURVE SMOOTH",
"768 640 OFFCURVE",
"740 641 OFFCURVE",
"702 642 CURVE SMOOTH",
"663 643 OFFCURVE",
"634 643 OFFCURVE",
"615 643 CURVE SMOOTH",
"599 643 OFFCURVE",
"562 652 OFFCURVE",
"546 652 CURVE SMOOTH",
"533 652 OFFCURVE",
"522 646 OFFCURVE",
"514 635 CURVE",
"463 659 OFFCURVE",
"405 671 OFFCURVE",
"340 671 CURVE SMOOTH",
"304 671 OFFCURVE",
"171 660 OFFCURVE",
"169 614 CURVE",
"59 567 OFFCURVE",
"-1 442 OFFCURVE",
"-1 327 CURVE SMOOTH",
"-1 154 OFFCURVE",
"136 -13 OFFCURVE",
"315 -13 CURVE SMOOTH"
);
},
{
closed = 1;
nodes = (
"605 43 OFFCURVE",
"549 51 OFFCURVE",
"525 51 CURVE SMOOTH",
"518 51 LINE",
"534 59 LINE SMOOTH",
"539 62 OFFCURVE",
"543 63 OFFCURVE",
"546 66 CURVE",
"563 76 OFFCURVE",
"578 88 OFFCURVE",
"591 101 CURVE",
"597 76 OFFCURVE",
"608 56 OFFCURVE",
"625 42 CURVE"
);
},
{
closed = 1;
nodes = (
"294 26 OFFCURVE",
"251 35 OFFCURVE",
"207 53 CURVE",
"214 71 OFFCURVE",
"217 92 OFFCURVE",
"217 115 CURVE SMOOTH",
"217 143 OFFCURVE",
"208 181 OFFCURVE",
"190 228 CURVE SMOOTH",
"172 274 OFFCURVE",
"163 309 OFFCURVE",
"163 330 CURVE SMOOTH",
"163 348 OFFCURVE",
"177 416 OFFCURVE",
"177 436 CURVE SMOOTH",
"177 490 OFFCURVE",
"156 529 OFFCURVE",
"113 552 CURVE",
"140 573 OFFCURVE",
"160 587 OFFCURVE",
"175 596 CURVE",
"178 595 OFFCURVE",
"181 594 OFFCURVE",
"184 594 CURVE SMOOTH",
"195 594 OFFCURVE",
"258 623 OFFCURVE",
"264 629 CURVE",
"269 558 OFFCURVE",
"297 523 OFFCURVE",
"347 523 CURVE SMOOTH",
"367 523 OFFCURVE",
"391 533 OFFCURVE",
"418 553 CURVE SMOOTH",
"444 573 OFFCURVE",
"467 583 OFFCURVE",
"485 583 CURVE SMOOTH",
"492 583 OFFCURVE",
"500 582 OFFCURVE",
"507 579 CURVE",
"507 572 OFFCURVE",
"510 552 OFFCURVE",
"514 520 CURVE SMOOTH",
"517 495 OFFCURVE",
"519 475 OFFCURVE",
"519 459 CURVE SMOOTH",
"519 446 OFFCURVE",
"519 431 OFFCURVE",
"518 415 CURVE",
"492 405 OFFCURVE",
"480 400 OFFCURVE",
"483 400 CURVE SMOOTH",
"474 400 LINE",
"470 429 OFFCURVE",
"445 462 OFFCURVE",
"418 462 CURVE SMOOTH",
"410 462 OFFCURVE",
"406 458 OFFCURVE",
"406 450 CURVE SMOOTH",
"406 440 OFFCURVE",
"410 431 OFFCURVE",
"419 423 CURVE SMOOTH",
"449 397 OFFCURVE",
"456 381 OFFCURVE",
"456 339 CURVE SMOOTH",
"456 288 OFFCURVE",
"406 246 OFFCURVE",
"354 246 CURVE SMOOTH",
"286 246 OFFCURVE",
"255 300 OFFCURVE",
"255 362 CURVE SMOOTH",
"255 409 OFFCURVE",
"287 459 OFFCURVE",
"332 463 CURVE SMOOTH",
"373 467 OFFCURVE",
"393 471 OFFCURVE",
"393 474 CURVE SMOOTH",
"393 482 OFFCURVE",
"359 490 OFFCURVE",
"347 490 CURVE SMOOTH",
"271 490 OFFCURVE",
"234 403 OFFCURVE",
"234 338 CURVE SMOOTH",
"234 295 OFFCURVE",
"240 265 OFFCURVE",
"253 247 CURVE SMOOTH",
"268 226 OFFCURVE",
"296 216 OFFCURVE",
"337 217 CURVE SMOOTH",
"345 217 LINE",
"353 209 OFFCURVE",
"444 169 OFFCURVE",
"455 169 CURVE SMOOTH",
"468 169 OFFCURVE",
"488 177 OFFCURVE",
"516 192 CURVE",
"519 151 OFFCURVE",
"521 125 OFFCURVE",
"521 113 CURVE",
"518 87 LINE",
"488 68 OFFCURVE",
"459 53 OFFCURVE",
"432 44 CURVE",
"433 47 OFFCURVE",
"440 57 OFFCURVE",
"451 74 CURVE SMOOTH",
"460 87 OFFCURVE",
"464 97 OFFCURVE",
"464 103 CURVE SMOOTH",
"464 122 OFFCURVE",
"453 132 OFFCURVE",
"431 132 CURVE SMOOTH",
"426 132 OFFCURVE",
"420 131 OFFCURVE",
"413 128 CURVE SMOOTH",
"404 124 OFFCURVE",
"398 123 OFFCURVE",
"395 122 CURVE SMOOTH",
"361 111 OFFCURVE",
"324 108 OFFCURVE",
"324 65 CURVE SMOOTH",
"324 49 OFFCURVE",
"328 36 OFFCURVE",
"337 26 CURVE"
);
},
{
closed = 1;
nodes = (
"552 156 LINE SMOOTH",
"553 175 OFFCURVE",
"553 191 OFFCURVE",
"553 203 CURVE",
"604 211 OFFCURVE",
"629 234 OFFCURVE",
"629 272 CURVE SMOOTH",
"629 347 LINE SMOOTH",
"629 361 OFFCURVE",
"625 374 OFFCURVE",
"618 386 CURVE",
"633 400 OFFCURVE",
"641 415 OFFCURVE",
"641 431 CURVE SMOOTH",
"641 433 LINE",
"654 398 OFFCURVE",
"660 359 OFFCURVE",
"660 315 CURVE SMOOTH",
"660 274 OFFCURVE",
"656 244 OFFCURVE",
"648 223 CURVE",
"645 220 OFFCURVE",
"643 218 OFFCURVE",
"640 217 CURVE SMOOTH",
"609 207 OFFCURVE",
"593 179 OFFCURVE",
"589 143 CURVE",
"577 131 OFFCURVE",
"564 120 OFFCURVE",
"550 109 CURVE"
);
},
{
closed = 1;
nodes = (
"802 306 LINE SMOOTH",
"789 319 OFFCURVE",
"770 323 OFFCURVE",
"751 323 CURVE SMOOTH",
"719 323 OFFCURVE",
"696 314 OFFCURVE",
"681 295 CURVE",
"682 311 OFFCURVE",
"683 327 OFFCURVE",
"683 342 CURVE SMOOTH",
"683 407 OFFCURVE",
"670 464 OFFCURVE",
"643 513 CURVE",
"646 518 OFFCURVE",
"659 533 OFFCURVE",
"685 557 CURVE SMOOTH",
"704 575 OFFCURVE",
"715 592 OFFCURVE",
"720 608 CURVE",
"731 608 OFFCURVE",
"752 607 OFFCURVE",
"785 606 CURVE SMOOTH",
"800 606 OFFCURVE",
"812 605 OFFCURVE",
"824 605 CURVE SMOOTH",
"835 605 OFFCURVE",
"845 606 OFFCURVE",
"853 606 CURVE SMOOTH",
"877 606 OFFCURVE",
"898 608 OFFCURVE",
"917 612 CURVE",
"912 585 OFFCURVE",
"909 566 OFFCURVE",
"909 553 CURVE SMOOTH",
"909 541 OFFCURVE",
"917 516 OFFCURVE",
"917 504 CURVE SMOOTH",
"917 495 LINE",
"895 492 LINE",
"898 501 OFFCURVE",
"899 509 OFFCURVE",
"899 517 CURVE SMOOTH",
"899 552 OFFCURVE",
"881 569 OFFCURVE",
"846 569 CURVE SMOOTH",
"798 569 OFFCURVE",
"763 530 OFFCURVE",
"762 481 CURVE",
"739 482 OFFCURVE",
"727 474 OFFCURVE",
"727 456 CURVE SMOOTH",
"727 451 OFFCURVE",
"731 437 OFFCURVE",
"740 414 CURVE",
"732 405 LINE",
"732 399 OFFCURVE",
"757 396 OFFCURVE",
"806 396 CURVE",
"814 371 OFFCURVE",
"816 339 OFFCURVE",
"856 339 CURVE SMOOTH",
"879 339 OFFCURVE",
"894 350 OFFCURVE",
"901 373 CURVE",
"900 358 OFFCURVE",
"899 343 OFFCURVE",
"899 330 CURVE SMOOTH",
"899 308 OFFCURVE",
"901 289 OFFCURVE",
"904 272 CURVE",
"893 272 OFFCURVE",
"859 266 OFFCURVE",
"846 267 CURVE SMOOTH",
"840 267 LINE"
);
}
);
width = 984;
}
);
leftKerningGroup = O;
note = OE;
rightKerningGroup = E;
unicode = 0152;
},
{
glyphname = P;
lastChange = "2021-11-24 18:20:17 +0000";
layers = (
{
layerId = "F72AA8BB-7F63-4F07-AEAC-030E55A5CABB";
paths = (
{
closed = 1;
nodes = (
"68 -9 OFFCURVE",
"107 6 OFFCURVE",
"124 7 CURVE SMOOTH",
"146 8 OFFCURVE",
"218 0 OFFCURVE",
"244 0 CURVE SMOOTH",
"271 0 OFFCURVE",
"285 7 OFFCURVE",
"285 23 CURVE SMOOTH",
"285 31 OFFCURVE",
"278 56 OFFCURVE",
"278 68 CURVE SMOOTH",
"277 86 OFFCURVE",
"280 112 OFFCURVE",
"284 145 CURVE SMOOTH",
"288 178 OFFCURVE",
"290 200 OFFCURVE",
"290 211 CURVE SMOOTH",
"289 235 OFFCURVE",
"278 247 OFFCURVE",
"257 247 CURVE SMOOTH",
"241 247 OFFCURVE",
"233 242 OFFCURVE",
"233 231 CURVE SMOOTH",
"233 229 LINE",
"238 210 OFFCURVE",
"242 195 OFFCURVE",
"246 186 CURVE SMOOTH",
"228 223 OFFCURVE",
"201 242 OFFCURVE",
"164 242 CURVE SMOOTH",
"138 242 OFFCURVE",
"116 233 OFFCURVE",
"100 212 CURVE SMOOTH",
"83 191 OFFCURVE",
"73 180 OFFCURVE",
"70 179 CURVE",
"68 228 LINE SMOOTH",
"67 263 OFFCURVE",
"66 289 OFFCURVE",
"66 306 CURVE",
"87 309 LINE",
"99 309 OFFCURVE",
"128 298 OFFCURVE",
"141 298 CURVE SMOOTH",
"180 301 OFFCURVE",
"217 334 OFFCURVE",
"217 372 CURVE SMOOTH",
"217 388 OFFCURVE",
"210 406 OFFCURVE",
"196 425 CURVE SMOOTH",
"183 443 OFFCURVE",
"174 458 OFFCURVE",
"174 469 CURVE SMOOTH",
"174 506 OFFCURVE",
"168 531 OFFCURVE",
"160 543 CURVE SMOOTH",
"150 559 OFFCURVE",
"131 568 OFFCURVE",
"103 568 CURVE SMOOTH",
"97 568 OFFCURVE",
"92 568 OFFCURVE",
"86 567 CURVE SMOOTH",
"76 566 LINE",
"82 594 LINE",
"89 593 OFFCURVE",
"97 593 OFFCURVE",
"106 593 CURVE SMOOTH",
"119 593 OFFCURVE",
"137 595 OFFCURVE",
"162 598 CURVE SMOOTH",
"217 604 LINE",
"248 555 OFFCURVE",
"292 532 OFFCURVE",
"350 534 CURVE SMOOTH",
"363 535 OFFCURVE",
"391 542 OFFCURVE",
"403 543 CURVE SMOOTH",
"431 543 OFFCURVE",
"445 514 OFFCURVE",
"461 491 CURVE",
"473 480 OFFCURVE",
"489 474 OFFCURVE",
"509 474 CURVE SMOOTH",
"521 474 OFFCURVE",
"531 476 OFFCURVE",
"537 477 CURVE",
"546 453 OFFCURVE",
"550 429 OFFCURVE",
"550 405 CURVE SMOOTH",
"550 362 OFFCURVE",
"536 324 OFFCURVE",
"507 289 CURVE SMOOTH",
"476 252 OFFCURVE",
"438 231 OFFCURVE",
"392 227 CURVE SMOOTH",
"344 223 LINE SMOOTH",
"319 220 OFFCURVE",
"306 215 OFFCURVE",
"306 209 CURVE SMOOTH",
"306 201 OFFCURVE",
"326 189 OFFCURVE",
"334 189 CURVE SMOOTH",
"456 194 OFFCURVE",
"524 226 OFFCURVE",
"570 344 CURVE SMOOTH",
"577 362 OFFCURVE",
"580 380 OFFCURVE",
"579 399 CURVE SMOOTH",
"571 552 OFFCURVE",
"479 646 OFFCURVE",
"326 641 CURVE",
"268 636 OFFCURVE",
"225 631 OFFCURVE",
"196 626 CURVE",
"142 623 OFFCURVE",
"102 622 OFFCURVE",
"75 621 CURVE",
"69 628 OFFCURVE",
"59 632 OFFCURVE",
"47 632 CURVE SMOOTH",
"43 632 LINE SMOOTH",
"30 631 OFFCURVE",
"24 622 OFFCURVE",
"25 604 CURVE SMOOTH",
"27 544 OFFCURVE",
"30 454 OFFCURVE",
"33 334 CURVE SMOOTH",
"36 214 OFFCURVE",
"37 124 OFFCURVE",
"40 63 CURVE SMOOTH",
"42 15 OFFCURVE",
"46 -9 OFFCURVE",
"53 -9 CURVE SMOOTH"
);
},
{
closed = 1;
nodes = (
"437 258 OFFCURVE",
"472 285 OFFCURVE",
"472 329 CURVE SMOOTH",
"472 356 OFFCURVE",
"460 376 OFFCURVE",
"436 386 CURVE SMOOTH",
"412 396 OFFCURVE",
"400 407 OFFCURVE",
"400 419 CURVE SMOOTH",
"399 449 OFFCURVE",
"386 463 OFFCURVE",
"361 460 CURVE SMOOTH",
"356 460 LINE",
"351 463 OFFCURVE",
"333 468 OFFCURVE",
"301 475 CURVE SMOOTH",
"269 482 OFFCURVE",
"250 485 OFFCURVE",
"244 484 CURVE SMOOTH",
"235 484 OFFCURVE",
"224 468 OFFCURVE",
"224 459 CURVE SMOOTH",
"224 452 OFFCURVE",
"228 445 OFFCURVE",
"239 442 CURVE",
"241 442 LINE",
"244 429 LINE",
"244 398 LINE SMOOTH",
"245 384 OFFCURVE",
"248 375 OFFCURVE",
"255 371 CURVE",
"264 394 OFFCURVE",
"270 416 OFFCURVE",
"275 439 CURVE",
"321 440 OFFCURVE",
"345 429 OFFCURVE",
"346 405 CURVE SMOOTH",
"346 384 OFFCURVE",
"326 360 OFFCURVE",
"303 360 CURVE",
"302 359 OFFCURVE",
"267 362 OFFCURVE",
"255 362 CURVE SMOOTH",
"245 361 OFFCURVE",
"240 360 OFFCURVE",
"240 357 CURVE SMOOTH",
"241 344 OFFCURVE",
"257 338 OFFCURVE",
"288 338 CURVE SMOOTH",
"308 338 OFFCURVE",
"324 340 OFFCURVE",
"335 346 CURVE",
"334 329 OFFCURVE",
"333 317 OFFCURVE",
"331 309 CURVE",
"332 278 OFFCURVE",
"360 258 OFFCURVE",
"392 258 CURVE SMOOTH"
);
}
);
width = 583;
}
);
leftMetricsKey = F;
note = P;
unicode = 0050;
},
{
glyphname = Thorn;
lastChange = "2021-11-18 15:18:57 +0000";
layers = (
{
layerId = "F72AA8BB-7F63-4F07-AEAC-030E55A5CABB";
paths = (
{
closed = 1;
nodes = (
"63 -6 OFFCURVE",
"102 9 OFFCURVE",
"119 10 CURVE SMOOTH",
"141 11 OFFCURVE",
"213 3 OFFCURVE",
"239 3 CURVE SMOOTH",
"267 3 OFFCURVE",
"280 11 OFFCURVE",
"280 28 CURVE SMOOTH",
"280 48 OFFCURVE",
"274 68 OFFCURVE",
"274 86 CURVE SMOOTH",
"274 92 OFFCURVE",
"275 98 OFFCURVE",
"277 104 CURVE SMOOTH",
"283 120 OFFCURVE",
"285 133 OFFCURVE",
"285 144 CURVE SMOOTH",
"285 156 OFFCURVE",
"283 164 OFFCURVE",
"283 170 CURVE SMOOTH",
"282 194 OFFCURVE",
"271 206 OFFCURVE",
"250 206 CURVE SMOOTH",
"234 206 OFFCURVE",
"226 201 OFFCURVE",
"226 190 CURVE SMOOTH",
"226 188 LINE",
"231 169 OFFCURVE",
"235 154 OFFCURVE",
"239 145 CURVE SMOOTH",
"221 182 OFFCURVE",
"194 201 OFFCURVE",
"157 201 CURVE SMOOTH",
"131 201 OFFCURVE",
"109 192 OFFCURVE",
"93 171 CURVE SMOOTH",
"76 150 OFFCURVE",
"66 139 OFFCURVE",
"63 138 CURVE",
"61 187 LINE SMOOTH",
"60 222 OFFCURVE",
"59 248 OFFCURVE",
"59 265 CURVE",
"80 268 LINE",
"92 268 OFFCURVE",
"121 257 OFFCURVE",
"134 257 CURVE SMOOTH",
"173 260 OFFCURVE",
"210 293 OFFCURVE",
"210 331 CURVE SMOOTH",
"210 347 OFFCURVE",
"203 365 OFFCURVE",
"189 384 CURVE SMOOTH",
"176 402 OFFCURVE",
"167 417 OFFCURVE",
"167 428 CURVE SMOOTH",
"167 465 OFFCURVE",
"161 490 OFFCURVE",
"153 502 CURVE SMOOTH",
"143 518 OFFCURVE",
"124 527 OFFCURVE",
"96 527 CURVE SMOOTH",
"90 527 OFFCURVE",
"85 527 OFFCURVE",
"79 526 CURVE SMOOTH",
"69 525 LINE",
"72 538 OFFCURVE",
"65 585 OFFCURVE",
"66 591 CURVE",
"61 607 OFFCURVE",
"59 618 OFFCURVE",
"59 627 CURVE SMOOTH",
"59 642 OFFCURVE",
"65 648 OFFCURVE",
"76 648 CURVE SMOOTH",
"85 648 OFFCURVE",
"97 643 OFFCURVE",
"111 636 CURVE",
"123 634 OFFCURVE",
"157 697 OFFCURVE",
"175 680 CURVE SMOOTH",
"176 679 OFFCURVE",
"177 671 OFFCURVE",
"177 659 CURVE SMOOTH",
"177 630 OFFCURVE",
"174 578 OFFCURVE",
"174 550 CURVE SMOOTH",
"174 540 OFFCURVE",
"174 533 OFFCURVE",
"175 532 CURVE SMOOTH",
"178 529 OFFCURVE",
"180 528 OFFCURVE",
"182 528 CURVE SMOOTH",
"196 528 OFFCURVE",
"207 563 OFFCURVE",
"210 563 CURVE",
"241 514 OFFCURVE",
"285 491 OFFCURVE",
"343 493 CURVE SMOOTH",
"356 494 OFFCURVE",
"384 501 OFFCURVE",
"396 502 CURVE SMOOTH",
"424 502 OFFCURVE",
"438 473 OFFCURVE",
"454 450 CURVE",
"466 439 OFFCURVE",
"482 433 OFFCURVE",
"502 433 CURVE SMOOTH",
"514 433 OFFCURVE",
"524 435 OFFCURVE",
"530 436 CURVE",
"539 412 OFFCURVE",
"543 388 OFFCURVE",
"543 364 CURVE SMOOTH",
"543 321 OFFCURVE",
"529 283 OFFCURVE",
"500 248 CURVE SMOOTH",
"469 211 OFFCURVE",
"431 190 OFFCURVE",
"385 186 CURVE SMOOTH",
"337 182 LINE SMOOTH",
"312 180 OFFCURVE",
"299 174 OFFCURVE",
"299 168 CURVE SMOOTH",
"299 160 OFFCURVE",
"319 148 OFFCURVE",
"327 148 CURVE SMOOTH",
"449 153 OFFCURVE",
"517 185 OFFCURVE",
"563 303 CURVE SMOOTH",
"570 321 OFFCURVE",
"573 339 OFFCURVE",
"572 358 CURVE SMOOTH",
"564 511 OFFCURVE",
"472 605 OFFCURVE",
"319 600 CURVE SMOOTH",
"279 597 OFFCURVE",
"246 593 OFFCURVE",
"220 590 CURVE",
"220 653 OFFCURVE",
"219 717 OFFCURVE",
"210 715 CURVE",
"193 722 OFFCURVE",
"160 725 OFFCURVE",
"125 725 CURVE SMOOTH",
"83 725 OFFCURVE",
"38 721 OFFCURVE",
"13 715 CURVE",
"10 694 OFFCURVE",
"8 676 OFFCURVE",
"8 659 CURVE SMOOTH",
"8 618 OFFCURVE",
"17 590 OFFCURVE",
"18 563 CURVE SMOOTH",
"21 501 OFFCURVE",
"23 413 OFFCURVE",
"26 293 CURVE SMOOTH",
"29 173 OFFCURVE",
"32 127 OFFCURVE",
"35 66 CURVE SMOOTH",
"37 18 OFFCURVE",
"41 -6 OFFCURVE",
"48 -6 CURVE SMOOTH"
);
},
{
closed = 1;
nodes = (
"430 217 OFFCURVE",
"465 244 OFFCURVE",
"465 288 CURVE SMOOTH",
"465 315 OFFCURVE",
"453 335 OFFCURVE",
"429 345 CURVE SMOOTH",
"405 355 OFFCURVE",
"393 366 OFFCURVE",
"393 378 CURVE SMOOTH",
"392 408 OFFCURVE",
"379 419 OFFCURVE",
"354 419 CURVE SMOOTH",
"349 419 LINE",
"344 422 OFFCURVE",
"326 427 OFFCURVE",
"294 434 CURVE SMOOTH",
"262 441 OFFCURVE",
"243 444 OFFCURVE",
"237 443 CURVE SMOOTH",
"228 443 OFFCURVE",
"217 427 OFFCURVE",
"217 418 CURVE SMOOTH",
"217 411 OFFCURVE",
"221 404 OFFCURVE",
"232 401 CURVE",
"234 401 LINE",
"237 388 LINE",
"237 357 LINE SMOOTH",
"237 343 OFFCURVE",
"241 334 OFFCURVE",
"248 330 CURVE",
"257 353 OFFCURVE",
"263 375 OFFCURVE",
"268 398 CURVE",
"314 399 OFFCURVE",
"338 388 OFFCURVE",
"339 364 CURVE SMOOTH",
"339 343 OFFCURVE",
"319 319 OFFCURVE",
"296 319 CURVE",
"295 318 OFFCURVE",
"260 321 OFFCURVE",
"248 321 CURVE SMOOTH",
"238 320 OFFCURVE",
"233 319 OFFCURVE",
"233 316 CURVE SMOOTH",
"234 303 OFFCURVE",
"250 297 OFFCURVE",
"281 297 CURVE SMOOTH",
"301 297 OFFCURVE",
"317 299 OFFCURVE",
"328 305 CURVE",
"327 288 OFFCURVE",
"326 276 OFFCURVE",
"324 268 CURVE",
"325 237 OFFCURVE",
"353 217 OFFCURVE",
"385 217 CURVE SMOOTH"
);
}
);
width = 576;
}
);
unicode = 00DE;
},
{
glyphname = Q;
lastChange = "2021-11-24 21:26:19 +0000";
layers = (
{
layerId = "F72AA8BB-7F63-4F07-AEAC-030E55A5CABB";
paths = (
{
closed = 1;
nodes = (
"576 -31 OFFCURVE",
"733 51 OFFCURVE",
"733 65 CURVE SMOOTH",
"733 93 OFFCURVE",
"660 147 OFFCURVE",
"635 158 CURVE",
"674 219 OFFCURVE",
"693 281 OFFCURVE",
"693 342 CURVE SMOOTH",
"693 453 OFFCURVE",
"663 532 OFFCURVE",
"603 577 CURVE SMOOTH",
"536 628 OFFCURVE",
"420 661 OFFCURVE",
"336 661 CURVE SMOOTH",
"275 661 OFFCURVE",
"177 640 OFFCURVE",
"131 598 CURVE SMOOTH",
"68 541 OFFCURVE",
"12 443 OFFCURVE",
"12 356 CURVE SMOOTH",
"12 349 OFFCURVE",
"14 342 OFFCURVE",
"19 337 CURVE",
"23 337 OFFCURVE",
"27 344 OFFCURVE",
"30 359 CURVE SMOOTH",
"34 387 LINE",
"44 391 OFFCURVE",
"54 393 OFFCURVE",
"63 393 CURVE SMOOTH",
"76 393 OFFCURVE",
"93 388 OFFCURVE",
"114 377 CURVE SMOOTH",
"135 366 OFFCURVE",
"153 361 OFFCURVE",
"166 361 CURVE SMOOTH",
"199 361 OFFCURVE",
"222 373 OFFCURVE",
"233 398 CURVE",
"240 421 OFFCURVE",
"246 444 OFFCURVE",
"253 468 CURVE SMOOTH",
"260 492 OFFCURVE",
"275 504 OFFCURVE",
"300 504 CURVE SMOOTH",
"368 504 OFFCURVE",
"458 531 OFFCURVE",
"468 609 CURVE",
"547 584 OFFCURVE",
"563 575 OFFCURVE",
"609 506 CURVE",
"581 497 OFFCURVE",
"561 489 OFFCURVE",
"548 482 CURVE",
"517 479 OFFCURVE",
"485 483 OFFCURVE",
"461 452 CURVE",
"446 459 OFFCURVE",
"427 463 OFFCURVE",
"404 463 CURVE SMOOTH",
"385 463 OFFCURVE",
"368 461 OFFCURVE",
"355 456 CURVE",
"324 460 OFFCURVE",
"300 448 OFFCURVE",
"281 421 CURVE SMOOTH",
"265 398 OFFCURVE",
"256 370 OFFCURVE",
"256 339 CURVE SMOOTH",
"256 305 OFFCURVE",
"264 276 OFFCURVE",
"279 251 CURVE",
"263 252 OFFCURVE",
"217 267 OFFCURVE",
"197 267 CURVE SMOOTH",
"141 267 OFFCURVE",
"107 234 OFFCURVE",
"94 167 CURVE",
"61 210 OFFCURVE",
"44 246 OFFCURVE",
"44 275 CURVE SMOOTH",
"44 294 OFFCURVE",
"42 306 OFFCURVE",
"38 313 CURVE",
"30 312 OFFCURVE",
"26 300 OFFCURVE",
"26 275 CURVE SMOOTH",
"26 104 OFFCURVE",
"226 21 OFFCURVE",
"372 21 CURVE SMOOTH",
"395 21 OFFCURVE",
"468 43 OFFCURVE",
"489 43 CURVE SMOOTH",
"493 43 OFFCURVE",
"502 31 OFFCURVE",
"517 6 CURVE SMOOTH",
"531 -18 OFFCURVE",
"542 -31 OFFCURVE",
"550 -31 CURVE SMOOTH"
);
},
{
closed = 1;
nodes = (
"541 18 OFFCURVE",
"534 30 OFFCURVE",
"534 53 CURVE SMOOTH",
"534 74 OFFCURVE",
"533 87 OFFCURVE",
"530 92 CURVE SMOOTH",
"526 99 OFFCURVE",
"513 103 OFFCURVE",
"492 103 CURVE SMOOTH",
"475 103 OFFCURVE",
"455 97 OFFCURVE",
"432 86 CURVE SMOOTH",
"399 70 OFFCURVE",
"380 61 OFFCURVE",
"375 59 CURVE",
"382 86 OFFCURVE",
"395 105 OFFCURVE",
"414 115 CURVE SMOOTH",
"460 135 LINE",
"475 144 OFFCURVE",
"482 162 OFFCURVE",
"482 189 CURVE SMOOTH",
"482 240 OFFCURVE",
"446 281 OFFCURVE",
"397 281 CURVE SMOOTH",
"389 281 OFFCURVE",
"381 280 OFFCURVE",
"374 278 CURVE",
"371 280 OFFCURVE",
"369 283 OFFCURVE",
"369 288 CURVE",
"383 294 LINE SMOOTH",
"429 314 OFFCURVE",
"453 325 OFFCURVE",
"455 325 CURVE SMOOTH",
"461 325 OFFCURVE",
"472 314 OFFCURVE",
"487 291 CURVE SMOOTH",
"504 266 OFFCURVE",
"515 253 OFFCURVE",
"520 251 CURVE",
"528 251 OFFCURVE",
"537 263 OFFCURVE",
"537 271 CURVE SMOOTH",
"537 274 OFFCURVE",
"535 277 OFFCURVE",
"532 282 CURVE",
"541 299 OFFCURVE",
"546 318 OFFCURVE",
"545 339 CURVE SMOOTH",
"545 349 LINE",
"582 349 OFFCURVE",
"605 341 OFFCURVE",
"617 329 CURVE SMOOTH",
"620 326 OFFCURVE",
"629 303 OFFCURVE",
"643 262 CURVE",
"638 236 OFFCURVE",
"627 212 OFFCURVE",
"608 191 CURVE SMOOTH",
"588 169 OFFCURVE",
"579 156 OFFCURVE",
"579 152 CURVE SMOOTH",
"579 143 OFFCURVE",
"586 137 OFFCURVE",
"600 132 CURVE",
"607 132 OFFCURVE",
"614 136 OFFCURVE",
"622 143 CURVE",
"654 105 LINE SMOOTH",
"666 90 OFFCURVE",
"678 79 OFFCURVE",
"689 70 CURVE",
"686 67 OFFCURVE",
"683 65 OFFCURVE",
"682 65 CURVE",
"661 54 OFFCURVE",
"575 18 OFFCURVE",
"555 18 CURVE SMOOTH"
);
},
{
closed = 1;
nodes = (
"321 228 OFFCURVE",
"279 260 OFFCURVE",
"279 330 CURVE SMOOTH",
"279 368 OFFCURVE",
"293 399 OFFCURVE",
"320 422 CURVE",
"317 414 OFFCURVE",
"318 410 OFFCURVE",
"322 410 CURVE SMOOTH",
"320 410 OFFCURVE",
"329 414 OFFCURVE",
"350 423 CURVE SMOOTH",
"370 431 OFFCURVE",
"387 435 OFFCURVE",
"402 435 CURVE SMOOTH",
"465 435 OFFCURVE",
"520 390 OFFCURVE",
"520 327 CURVE SMOOTH",
"520 320 OFFCURVE",
"518 312 OFFCURVE",
"515 301 CURVE",
"493 322 OFFCURVE",
"480 339 OFFCURVE",
"475 352 CURVE",
"467 356 LINE",
"449 356 OFFCURVE",
"340 309 OFFCURVE",
"340 298 CURVE SMOOTH",
"340 296 OFFCURVE",
"346 282 OFFCURVE",
"359 256 CURVE SMOOTH",
"383 208 LINE"
);
}
);
width = 737;
}
);
leftKerningGroup = O;
leftMetricsKey = O;
note = Q;
rightKerningGroup = Q;
unicode = 0051;
},
{
glyphname = R;
lastChange = "2021-11-24 18:53:50 +0000";
layers = (
{
anchors = (
{
name = bottom;
position = "{324, 0}";
},
{
name = top;
position = "{324, 650}";
}
);
layerId = "F72AA8BB-7F63-4F07-AEAC-030E55A5CABB";
paths = (
{
closed = 1;
nodes = (
"618 -1 OFFCURVE",
"626 8 OFFCURVE",
"627 26 CURVE SMOOTH",
"629 55 OFFCURVE",
"498 219 OFFCURVE",
"470 252 CURVE",
"545 272 OFFCURVE",
"583 340 OFFCURVE",
"583 417 CURVE SMOOTH",
"583 491 OFFCURVE",
"558 547 OFFCURVE",
"506 586 CURVE SMOOTH",
"463 618 OFFCURVE",
"397 631 OFFCURVE",
"312 648 CURVE SMOOTH",
"307 649 OFFCURVE",
"237 652 OFFCURVE",
"102 660 CURVE SMOOTH",
"85 661 OFFCURVE",
"73 659 OFFCURVE",
"68 657 CURVE SMOOTH",
"59 653 OFFCURVE",
"54 643 OFFCURVE",
"53 627 CURVE SMOOTH",
"51 591 OFFCURVE",
"49 537 OFFCURVE",
"47 464 CURVE SMOOTH",
"44 371 OFFCURVE",
"41 279 OFFCURVE",
"28 187 CURVE SMOOTH",
"21 135 OFFCURVE",
"15 95 OFFCURVE",
"15 70 CURVE SMOOTH",
"15 42 OFFCURVE",
"39 25 OFFCURVE",
"87 18 CURVE",
"124 17 OFFCURVE",
"161 14 OFFCURVE",
"198 13 CURVE SMOOTH",
"230 12 OFFCURVE",
"243 11 OFFCURVE",
"237 11 CURVE SMOOTH",
"255 11 OFFCURVE",
"265 15 OFFCURVE",
"265 24 CURVE SMOOTH",
"265 47 OFFCURVE",
"261 102 OFFCURVE",
"262 125 CURVE SMOOTH",
"263 143 OFFCURVE",
"280 208 OFFCURVE",
"281 225 CURVE SMOOTH",
"282 249 OFFCURVE",
"273 261 OFFCURVE",
"252 261 CURVE SMOOTH",
"236 261 OFFCURVE",
"228 252 OFFCURVE",
"228 235 CURVE SMOOTH",
"228 212 OFFCURVE",
"237 150 OFFCURVE",
"236 130 CURVE",
"223 139 OFFCURVE",
"209 140 OFFCURVE",
"196 140 CURVE SMOOTH",
"179 140 OFFCURVE",
"161 137 OFFCURVE",
"142 132 CURVE SMOOTH",
"113 124 OFFCURVE",
"99 113 OFFCURVE",
"99 97 CURVE SMOOTH",
"99 82 OFFCURVE",
"109 68 OFFCURVE",
"128 58 CURVE",
"64 62 LINE SMOOTH",
"55 62 OFFCURVE",
"50 66 OFFCURVE",
"50 73 CURVE SMOOTH",
"55 130 OFFCURVE",
"59 174 OFFCURVE",
"62 203 CURVE",
"73 201 OFFCURVE",
"83 200 OFFCURVE",
"94 200 CURVE SMOOTH",
"154 200 OFFCURVE",
"202 233 OFFCURVE",
"206 294 CURVE SMOOTH",
"207 308 OFFCURVE",
"202 325 OFFCURVE",
"193 345 CURVE SMOOTH",
"184 366 OFFCURVE",
"179 380 OFFCURVE",
"179 390 CURVE SMOOTH",
"179 423 OFFCURVE",
"217 429 OFFCURVE",
"245 438 CURVE",
"247 420 OFFCURVE",
"249 402 OFFCURVE",
"250 384 CURVE SMOOTH",
"253 362 OFFCURVE",
"263 351 OFFCURVE",
"279 350 CURVE SMOOTH",
"293 349 OFFCURVE",
"304 349 OFFCURVE",
"313 349 CURVE SMOOTH",
"319 349 OFFCURVE",
"324 349 OFFCURVE",
"327 350 CURVE SMOOTH",
"342 354 OFFCURVE",
"354 363 OFFCURVE",
"363 378 CURVE",
"371 383 OFFCURVE",
"376 390 OFFCURVE",
"376 400 CURVE SMOOTH",
"376 403 LINE",
"382 414 OFFCURVE",
"383 425 OFFCURVE",
"383 434 CURVE SMOOTH",
"383 447 OFFCURVE",
"379 453 OFFCURVE",
"373 453 CURVE SMOOTH",
"370 453 LINE",
"357 474 OFFCURVE",
"331 486 OFFCURVE",
"290 488 CURVE",
"302 511 OFFCURVE",
"327 527 OFFCURVE",
"365 537 CURVE SMOOTH",
"408 548 OFFCURVE",
"438 563 OFFCURVE",
"455 584 CURVE",
"484 571 OFFCURVE",
"505 554 OFFCURVE",
"518 535 CURVE",
"513 522 OFFCURVE",
"497 507 OFFCURVE",
"472 489 CURVE SMOOTH",
"450 473 OFFCURVE",
"438 452 OFFCURVE",
"438 423 CURVE SMOOTH",
"438 395 OFFCURVE",
"447 376 OFFCURVE",
"467 366 CURVE SMOOTH",
"471 364 OFFCURVE",
"494 358 OFFCURVE",
"536 348 CURVE",
"519 317 OFFCURVE",
"490 294 OFFCURVE",
"449 281 CURVE",
"443 292 OFFCURVE",
"437 297 OFFCURVE",
"432 297 CURVE SMOOTH",
"428 297 LINE",
"416 314 OFFCURVE",
"401 320 OFFCURVE",
"385 320 CURVE SMOOTH",
"345 320 OFFCURVE",
"317 287 OFFCURVE",
"317 243 CURVE SMOOTH",
"317 231 OFFCURVE",
"320 220 OFFCURVE",
"326 210 CURVE SMOOTH",
"338 191 OFFCURVE",
"344 180 OFFCURVE",
"345 178 CURVE SMOOTH",
"357 154 OFFCURVE",
"361 126 OFFCURVE",
"368 100 CURVE",
"380 76 OFFCURVE",
"406 63 OFFCURVE",
"447 61 CURVE SMOOTH",
"468 60 OFFCURVE",
"480 59 OFFCURVE",
"483 58 CURVE SMOOTH",
"494 54 OFFCURVE",
"504 47 OFFCURVE",
"512 34 CURVE",
"482 35 LINE SMOOTH",
"418 37 OFFCURVE",
"380 40 OFFCURVE",
"367 45 CURVE SMOOTH",
"353 50 OFFCURVE",
"344 63 OFFCURVE",
"338 85 CURVE SMOOTH",
"329 118 OFFCURVE",
"314 150 OFFCURVE",
"293 180 CURVE",
"285 176 LINE",
"280 167 LINE",
"280 161 OFFCURVE",
"287 137 OFFCURVE",
"301 95 CURVE SMOOTH",
"314 56 OFFCURVE",
"325 30 OFFCURVE",
"329 18 CURVE SMOOTH",
"332 9 OFFCURVE",
"340 4 OFFCURVE",
"351 3 CURVE SMOOTH",
"364 3 OFFCURVE",
"397 8 OFFCURVE",
"410 7 CURVE SMOOTH",
"517 2 OFFCURVE",
"578 0 OFFCURVE",
"594 1 CURVE",
"597 0 OFFCURVE",
"600 -1 OFFCURVE",
"603 -1 CURVE SMOOTH"
);
},
{
closed = 1;
nodes = (
"287 376 OFFCURVE",
"277 384 OFFCURVE",
"277 404 CURVE SMOOTH",
"277 412 OFFCURVE",
"279 433 OFFCURVE",
"279 440 CURVE SMOOTH",
"280 449 OFFCURVE",
"282 452 OFFCURVE",
"287 452 CURVE SMOOTH",
"324 452 OFFCURVE",
"336 451 OFFCURVE",
"351 415 CURVE",
"344 390 OFFCURVE",
"328 376 OFFCURVE",
"305 376 CURVE SMOOTH"
);
}
);
width = 629;
}
);
leftKerningGroup = R;
leftMetricsKey = H;
note = R;
rightKerningGroup = R;
unicode = 0052;
},
{
glyphname = S;
lastChange = "2021-11-24 21:26:59 +0000";
layers = (
{
anchors = (
{
name = bottom;
position = "{293, 0}";
},
{
name = top;
position = "{295, 650}";
}
);
layerId = "F72AA8BB-7F63-4F07-AEAC-030E55A5CABB";
paths = (
{
closed = 1;
nodes = (
"411 6 OFFCURVE",
"533 85 OFFCURVE",
"533 239 CURVE SMOOTH",
"533 323 OFFCURVE",
"495 361 OFFCURVE",
"421 391 CURVE",
"387 402 OFFCURVE",
"353 413 OFFCURVE",
"320 425 CURVE SMOOTH",
"291 436 OFFCURVE",
"277 444 OFFCURVE",
"277 450 CURVE SMOOTH",
"277 458 OFFCURVE",
"293 462 OFFCURVE",
"326 462 CURVE SMOOTH",
"357 462 OFFCURVE",
"384 456 OFFCURVE",
"408 444 CURVE",
"412 427 OFFCURVE",
"421 419 OFFCURVE",
"434 419 CURVE SMOOTH",
"446 419 OFFCURVE",
"453 427 OFFCURVE",
"456 444 CURVE SMOOTH",
"462 479 OFFCURVE",
"470 507 OFFCURVE",
"483 529 CURVE",
"483 530 OFFCURVE",
"491 539 OFFCURVE",
"503 556 CURVE SMOOTH",
"512 569 OFFCURVE",
"517 578 OFFCURVE",
"517 584 CURVE SMOOTH",
"517 621 OFFCURVE",
"332 659 OFFCURVE",
"295 659 CURVE SMOOTH",
"155 659 OFFCURVE",
"27 564 OFFCURVE",
"27 416 CURVE SMOOTH",
"27 320 OFFCURVE",
"118 248 OFFCURVE",
"210 248 CURVE SMOOTH",
"224 248 OFFCURVE",
"231 250 OFFCURVE",
"231 254 CURVE SMOOTH",
"231 255 OFFCURVE",
"229 257 OFFCURVE",
"226 258 CURVE SMOOTH",
"212 263 OFFCURVE",
"169 272 OFFCURVE",
"153 281 CURVE SMOOTH",
"96 313 OFFCURVE",
"57 340 OFFCURVE",
"57 413 CURVE SMOOTH",
"57 421 OFFCURVE",
"58 429 OFFCURVE",
"59 438 CURVE",
"77 417 OFFCURVE",
"99 407 OFFCURVE",
"125 407 CURVE SMOOTH",
"159 407 OFFCURVE",
"200 422 OFFCURVE",
"204 461 CURVE SMOOTH",
"207 487 OFFCURVE",
"209 503 OFFCURVE",
"212 508 CURVE SMOOTH",
"220 521 OFFCURVE",
"241 536 OFFCURVE",
"277 551 CURVE SMOOTH",
"311 565 OFFCURVE",
"334 587 OFFCURVE",
"345 616 CURVE",
"369 614 OFFCURVE",
"393 610 OFFCURVE",
"416 603 CURVE",
"403 586 OFFCURVE",
"396 571 OFFCURVE",
"396 556 CURVE SMOOTH",
"396 531 OFFCURVE",
"408 510 OFFCURVE",
"433 493 CURVE",
"422 479 OFFCURVE",
"414 468 OFFCURVE",
"411 460 CURVE",
"382 481 OFFCURVE",
"350 492 OFFCURVE",
"315 492 CURVE SMOOTH",
"268 492 OFFCURVE",
"244 475 OFFCURVE",
"244 442 CURVE SMOOTH",
"244 434 OFFCURVE",
"247 425 OFFCURVE",
"252 414 CURVE",
"242 401 LINE",
"237 382 OFFCURVE",
"228 368 OFFCURVE",
"213 358 CURVE SMOOTH",
"197 348 OFFCURVE",
"190 336 OFFCURVE",
"190 323 CURVE SMOOTH",
"190 295 OFFCURVE",
"210 273 OFFCURVE",
"238 273 CURVE SMOOTH",
"251 273 OFFCURVE",
"262 281 OFFCURVE",
"273 298 CURVE SMOOTH",
"284 315 OFFCURVE",
"295 323 OFFCURVE",
"306 323 CURVE SMOOTH",
"315 323 OFFCURVE",
"342 315 OFFCURVE",
"353 315 CURVE SMOOTH",
"385 315 OFFCURVE",
"410 334 OFFCURVE",
"410 366 CURVE",
"436 356 OFFCURVE",
"455 342 OFFCURVE",
"466 325 CURVE",
"427 307 OFFCURVE",
"408 280 OFFCURVE",
"408 243 CURVE SMOOTH",
"408 232 OFFCURVE",
"410 207 OFFCURVE",
"410 198 CURVE SMOOTH",
"410 166 OFFCURVE",
"394 150 OFFCURVE",
"362 150 CURVE SMOOTH",
"322 150 OFFCURVE",
"291 141 OFFCURVE",
"270 124 CURVE SMOOTH",
"248 107 OFFCURVE",
"227 98 OFFCURVE",
"206 98 CURVE SMOOTH",
"193 98 OFFCURVE",
"159 104 OFFCURVE",
"144 104 CURVE SMOOTH",
"111 104 OFFCURVE",
"83 94 OFFCURVE",
"60 73 CURVE",
"51 76 OFFCURVE",
"47 83 OFFCURVE",
"47 92 CURVE SMOOTH",
"47 103 OFFCURVE",
"53 124 OFFCURVE",
"66 157 CURVE SMOOTH",
"83 199 OFFCURVE",
"92 222 OFFCURVE",
"93 225 CURVE",
"147 188 OFFCURVE",
"195 170 OFFCURVE",
"237 170 CURVE SMOOTH",
"265 170 OFFCURVE",
"303 192 OFFCURVE",
"303 219 CURVE SMOOTH",
"303 234 OFFCURVE",
"287 253 OFFCURVE",
"272 253 CURVE SMOOTH",
"261 253 OFFCURVE",
"255 251 OFFCURVE",
"255 246 CURVE SMOOTH",
"255 243 OFFCURVE",
"281 234 OFFCURVE",
"281 219 CURVE SMOOTH",
"281 202 OFFCURVE",
"265 194 OFFCURVE",
"232 194 CURVE SMOOTH",
"185 194 OFFCURVE",
"141 219 OFFCURVE",
"108 250 CURVE SMOOTH",
"94 263 OFFCURVE",
"85 269 OFFCURVE",
"81 269 CURVE SMOOTH",
"69 269 OFFCURVE",
"56 255 OFFCURVE",
"56 243 CURVE SMOOTH",
"56 236 OFFCURVE",
"62 221 OFFCURVE",
"62 216 CURVE SMOOTH",
"62 199 OFFCURVE",
"52 174 OFFCURVE",
"32 139 CURVE SMOOTH",
"12 103 OFFCURVE",
"2 85 OFFCURVE",
"2 83 CURVE SMOOTH",
"2 79 OFFCURVE",
"3 74 OFFCURVE",
"5 69 CURVE SMOOTH",
"20 31 OFFCURVE",
"224 6 OFFCURVE",
"268 6 CURVE SMOOTH"
);
}
);
width = 539;
}
);
leftKerningGroup = S;
note = S;
rightKerningGroup = S;
unicode = 0053;
},
{
glyphname = Germandbls;
lastChange = "2021-11-18 15:18:57 +0000";
layers = (
{
layerId = "F72AA8BB-7F63-4F07-AEAC-030E55A5CABB";
paths = (
{
closed = 1;
nodes = (
"41 -188 OFFCURVE",
"46 -187 OFFCURVE",
"52 -187 CURVE SMOOTH",
"68 -186 OFFCURVE",
"84 -182 OFFCURVE",
"101 -171 CURVE SMOOTH",
"115 -161 OFFCURVE",
"130 -153 OFFCURVE",
"144 -143 CURVE",
"203 -112 OFFCURVE",
"264 -73 OFFCURVE",
"264 3 CURVE SMOOTH",
"264 26 OFFCURVE",
"263 48 OFFCURVE",
"263 71 CURVE SMOOTH",
"265 110 OFFCURVE",
"268 150 OFFCURVE",
"270 190 CURVE SMOOTH",
"271 211 OFFCURVE",
"272 230 OFFCURVE",
"272 248 CURVE SMOOTH",
"272 270 OFFCURVE",
"271 290 OFFCURVE",
"270 308 CURVE SMOOTH",
"267 356 OFFCURVE",
"261 406 OFFCURVE",
"253 454 CURVE",
"259 463 OFFCURVE",
"264 470 OFFCURVE",
"264 475 CURVE SMOOTH",
"264 477 LINE",
"272 487 OFFCURVE",
"301 495 OFFCURVE",
"316 495 CURVE SMOOTH",
"340 495 OFFCURVE",
"351 474 OFFCURVE",
"351 441 CURVE SMOOTH",
"351 418 OFFCURVE",
"344 404 OFFCURVE",
"329 398 CURVE SMOOTH",
"308 389 OFFCURVE",
"297 372 OFFCURVE",
"297 345 CURVE SMOOTH",
"297 310 OFFCURVE",
"309 291 OFFCURVE",
"336 283 CURVE SMOOTH",
"356 277 OFFCURVE",
"371 271 OFFCURVE",
"378 264 CURVE SMOOTH",
"385 258 OFFCURVE",
"388 250 OFFCURVE",
"388 240 CURVE SMOOTH",
"388 234 OFFCURVE",
"387 227 OFFCURVE",
"384 219 CURVE SMOOTH",
"378 201 OFFCURVE",
"328 186 OFFCURVE",
"310 185 CURVE SMOOTH",
"307 185 OFFCURVE",
"303 150 OFFCURVE",
"303 114 CURVE SMOOTH",
"303 58 OFFCURVE",
"311 28 OFFCURVE",
"323 26 CURVE SMOOTH",
"338 24 OFFCURVE",
"354 23 OFFCURVE",
"370 23 CURVE SMOOTH",
"429 23 OFFCURVE",
"482 39 OFFCURVE",
"527 67 CURVE SMOOTH",
"589 105 OFFCURVE",
"611 153 OFFCURVE",
"611 220 CURVE SMOOTH",
"611 228 OFFCURVE",
"610 235 OFFCURVE",
"610 243 CURVE SMOOTH",
"606 295 OFFCURVE",
"574 363 OFFCURVE",
"527 385 CURVE",
"531 388 OFFCURVE",
"556 427 OFFCURVE",
"556 432 CURVE",
"565 454 OFFCURVE",
"568 480 OFFCURVE",
"566 511 CURVE SMOOTH",
"564 552 OFFCURVE",
"543 610 OFFCURVE",
"504 625 CURVE",
"453 662 OFFCURVE",
"399 670 OFFCURVE",
"341 670 CURVE SMOOTH",
"321 670 OFFCURVE",
"300 669 OFFCURVE",
"279 668 CURVE SMOOTH",
"213 663 OFFCURVE",
"176 657 OFFCURVE",
"118 616 CURVE SMOOTH",
"66 579 OFFCURVE",
"42 551 OFFCURVE",
"34 476 CURVE",
"33 474 OFFCURVE",
"31 471 OFFCURVE",
"32 467 CURVE",
"35 425 OFFCURVE",
"36 381 OFFCURVE",
"36 337 CURVE SMOOTH",
"36 292 OFFCURVE",
"35 247 OFFCURVE",
"35 201 CURVE SMOOTH",
"35 146 OFFCURVE",
"36 90 OFFCURVE",
"40 33 CURVE SMOOTH",
"41 23 OFFCURVE",
"41 13 OFFCURVE",
"41 4 CURVE SMOOTH",
"41 -11 OFFCURVE",
"40 -23 OFFCURVE",
"39 -34 CURVE SMOOTH",
"30 -100 LINE SMOOTH",
"27 -122 OFFCURVE",
"26 -135 OFFCURVE",
"24 -140 CURVE",
"22 -142 LINE",
"0 -145 OFFCURVE",
"-12 -152 OFFCURVE",
"-12 -164 CURVE SMOOTH",
"-12 -180 OFFCURVE",
"4 -188 OFFCURVE",
"36 -188 CURVE SMOOTH"
);
},
{
closed = 1;
nodes = (
"43 -158 OFFCURVE",
"49 -147 OFFCURVE",
"51 -134 CURVE",
"53 -96 LINE",
"61 -77 OFFCURVE",
"65 -49 OFFCURVE",
"65 -13 CURVE SMOOTH",
"65 2 OFFCURVE",
"64 17 OFFCURVE",
"63 34 CURVE SMOOTH",
"58 102 OFFCURVE",
"55 170 OFFCURVE",
"53 240 CURVE",
"80 227 OFFCURVE",
"104 220 OFFCURVE",
"125 220 CURVE SMOOTH",
"173 220 OFFCURVE",
"208 252 OFFCURVE",
"229 314 CURVE",
"241 313 OFFCURVE",
"247 311 OFFCURVE",
"247 307 CURVE SMOOTH",
"248 288 OFFCURVE",
"249 267 OFFCURVE",
"249 244 CURVE SMOOTH",
"249 227 OFFCURVE",
"249 208 OFFCURVE",
"247 189 CURVE SMOOTH",
"244 150 OFFCURVE",
"242 110 OFFCURVE",
"240 71 CURVE",
"225 78 OFFCURVE",
"210 80 OFFCURVE",
"196 80 CURVE SMOOTH",
"141 80 OFFCURVE",
"107 33 OFFCURVE",
"107 -28 CURVE SMOOTH",
"107 -60 OFFCURVE",
"117 -93 OFFCURVE",
"133 -122 CURVE",
"93 -147 LINE SMOOTH",
"73 -158 OFFCURVE",
"56 -162 OFFCURVE",
"40 -162 CURVE SMOOTH",
"35 -162 LINE"
);
},
{
closed = 1;
nodes = (
"564 166 OFFCURVE",
"555 171 OFFCURVE",
"550 178 CURVE",
"543 196 OFFCURVE",
"538 210 OFFCURVE",
"537 219 CURVE SMOOTH",
"531 246 OFFCURVE",
"516 264 OFFCURVE",
"494 273 CURVE SMOOTH",
"477 280 OFFCURVE",
"461 284 OFFCURVE",
"445 284 CURVE SMOOTH",
"432 284 OFFCURVE",
"420 282 OFFCURVE",
"409 277 CURVE",
"400 293 OFFCURVE",
"392 305 OFFCURVE",
"384 315 CURVE",
"394 321 OFFCURVE",
"405 330 OFFCURVE",
"416 343 CURVE SMOOTH",
"426 355 OFFCURVE",
"430 368 OFFCURVE",
"430 381 CURVE SMOOTH",
"430 386 OFFCURVE",
"429 391 OFFCURVE",
"428 397 CURVE SMOOTH",
"427 402 OFFCURVE",
"427 406 OFFCURVE",
"427 409 CURVE SMOOTH",
"427 434 OFFCURVE",
"446 440 OFFCURVE",
"457 450 CURVE SMOOTH",
"464 456 OFFCURVE",
"467 464 OFFCURVE",
"467 472 CURVE SMOOTH",
"467 475 OFFCURVE",
"466 477 OFFCURVE",
"466 480 CURVE SMOOTH",
"464 495 OFFCURVE",
"456 506 OFFCURVE",
"443 513 CURVE SMOOTH",
"434 518 OFFCURVE",
"425 521 OFFCURVE",
"416 521 CURVE SMOOTH",
"409 521 OFFCURVE",
"403 519 OFFCURVE",
"397 516 CURVE SMOOTH",
"382 509 OFFCURVE",
"372 500 OFFCURVE",
"366 488 CURVE",
"365 487 OFFCURVE",
"365 486 OFFCURVE",
"365 485 CURVE",
"354 512 OFFCURVE",
"338 525 OFFCURVE",
"317 522 CURVE SMOOTH",
"271 516 OFFCURVE",
"246 501 OFFCURVE",
"242 482 CURVE",
"238 482 LINE",
"233 484 OFFCURVE",
"226 485 OFFCURVE",
"218 485 CURVE",
"224 515 OFFCURVE",
"238 535 OFFCURVE",
"259 545 CURVE",
"261 545 OFFCURVE",
"272 547 OFFCURVE",
"295 553 CURVE SMOOTH",
"334 562 OFFCURVE",
"348 575 OFFCURVE",
"359 616 CURVE SMOOTH",
"361 624 OFFCURVE",
"363 631 OFFCURVE",
"363 637 CURVE SMOOTH",
"363 642 OFFCURVE",
"362 647 OFFCURVE",
"360 652 CURVE",
"449 645 OFFCURVE",
"544 612 OFFCURVE",
"544 494 CURVE SMOOTH",
"544 462 OFFCURVE",
"535 434 OFFCURVE",
"519 409 CURVE",
"509 401 OFFCURVE",
"502 395 OFFCURVE",
"498 391 CURVE",
"477 389 OFFCURVE",
"466 383 OFFCURVE",
"466 371 CURVE SMOOTH",
"466 352 OFFCURVE",
"482 346 OFFCURVE",
"512 346 CURVE SMOOTH",
"534 346 OFFCURVE",
"550 337 OFFCURVE",
"559 320 CURVE SMOOTH",
"582 277 OFFCURVE",
"593 247 OFFCURVE",
"593 231 CURVE SMOOTH",
"593 211 OFFCURVE",
"588 188 OFFCURVE",
"574 163 CURVE"
);
}
);
width = 613;
}
);
unicode = 1E9E;
},
{
glyphname = Schwa;
lastChange = "2021-11-18 15:18:57 +0000";
layers = (
{
layerId = "F72AA8BB-7F63-4F07-AEAC-030E55A5CABB";
paths = (
{
closed = 1;
nodes = (
"381 -7 OFFCURVE",
"447 21 OFFCURVE",
"507 81 CURVE SMOOTH",
"582 156 OFFCURVE",
"619 244 OFFCURVE",
"619 343 CURVE SMOOTH",
"619 519 OFFCURVE",
"497 680 OFFCURVE",
"311 680 CURVE SMOOTH",
"231 680 OFFCURVE",
"161 653 OFFCURVE",
"103 599 CURVE SMOOTH",
"55 555 OFFCURVE",
"31 511 OFFCURVE",
"31 472 CURVE SMOOTH",
"31 455 OFFCURVE",
"37 447 OFFCURVE",
"50 446 CURVE",
"70 442 OFFCURVE",
"98 429 OFFCURVE",
"118 428 CURVE",
"167 421 OFFCURVE",
"203 415 OFFCURVE",
"228 410 CURVE SMOOTH",
"234 409 OFFCURVE",
"245 419 OFFCURVE",
"259 442 CURVE SMOOTH",
"272 462 OFFCURVE",
"289 472 OFFCURVE",
"312 472 CURVE SMOOTH",
"367 472 OFFCURVE",
"394 439 OFFCURVE",
"394 372 CURVE SMOOTH",
"394 365 OFFCURVE",
"394 358 OFFCURVE",
"393 350 CURVE",
"301 354 OFFCURVE",
"249 355 OFFCURVE",
"235 356 CURVE SMOOTH",
"222 357 OFFCURVE",
"151 364 OFFCURVE",
"23 382 CURVE SMOOTH",
"-2 386 OFFCURVE",
"0 351 OFFCURVE",
"0 326 CURVE SMOOTH",
"0 157 OFFCURVE",
"103 9 OFFCURVE",
"281 -6 CURVE SMOOTH",
"290 -7 OFFCURVE",
"299 -7 OFFCURVE",
"308 -7 CURVE SMOOTH"
);
},
{
closed = 1;
nodes = (
"272 209 OFFCURVE",
"256 223 OFFCURVE",
"247 251 CURVE",
"359 241 LINE",
"342 219 OFFCURVE",
"322 209 OFFCURVE",
"296 209 CURVE SMOOTH"
);
},
{
closed = 1;
nodes = (
"226 35 OFFCURVE",
"162 73 OFFCURVE",
"139 113 CURVE SMOOTH",
"136 119 OFFCURVE",
"135 126 OFFCURVE",
"135 135 CURVE SMOOTH",
"135 139 OFFCURVE",
"135 143 OFFCURVE",
"136 148 CURVE SMOOTH",
"139 169 OFFCURVE",
"141 181 OFFCURVE",
"141 184 CURVE SMOOTH",
"141 204 OFFCURVE",
"120 230 OFFCURVE",
"82 269 CURVE",
"78 272 OFFCURVE",
"77 276 OFFCURVE",
"77 281 CURVE SMOOTH",
"77 301 OFFCURVE",
"121 331 OFFCURVE",
"145 327 CURVE SMOOTH",
"223 315 OFFCURVE",
"294 311 OFFCURVE",
"356 311 CURVE SMOOTH",
"374 311 OFFCURVE",
"391 311 OFFCURVE",
"408 312 CURVE",
"421 311 OFFCURVE",
"436 325 OFFCURVE",
"453 357 CURVE SMOOTH",
"469 389 OFFCURVE",
"478 421 OFFCURVE",
"478 452 CURVE SMOOTH",
"478 496 OFFCURVE",
"461 517 OFFCURVE",
"429 517 CURVE SMOOTH",
"414 517 OFFCURVE",
"335 508 OFFCURVE",
"325 509 CURVE SMOOTH",
"276 515 OFFCURVE",
"241 492 OFFCURVE",
"219 448 CURVE",
"209 449 OFFCURVE",
"133 460 OFFCURVE",
"133 473 CURVE SMOOTH",
"133 477 OFFCURVE",
"156 484 OFFCURVE",
"203 495 CURVE SMOOTH",
"286 514 OFFCURVE",
"312 525 OFFCURVE",
"357 595 CURVE SMOOTH",
"370 616 OFFCURVE",
"382 625 OFFCURVE",
"395 625 CURVE SMOOTH",
"406 625 OFFCURVE",
"419 620 OFFCURVE",
"435 612 CURVE SMOOTH",
"525 563 OFFCURVE",
"582 459 OFFCURVE",
"582 344 CURVE SMOOTH",
"582 287 OFFCURVE",
"570 256 OFFCURVE",
"502 256 CURVE SMOOTH",
"465 256 OFFCURVE",
"427 264 OFFCURVE",
"393 276 CURVE",
"225 290 LINE SMOOTH",
"205 291 OFFCURVE",
"180 262 OFFCURVE",
"180 234 CURVE SMOOTH",
"180 212 OFFCURVE",
"196 197 OFFCURVE",
"226 185 CURVE SMOOTH",
"250 175 OFFCURVE",
"274 171 OFFCURVE",
"298 172 CURVE SMOOTH",
"324 172 OFFCURVE",
"358 150 OFFCURVE",
"358 122 CURVE SMOOTH",
"358 116 OFFCURVE",
"357 111 OFFCURVE",
"355 105 CURVE",
"333 70 OFFCURVE",
"312 28 OFFCURVE",
"283 31 CURVE SMOOTH"
);
}
);
width = 629;
}
);
unicode = 018F;
},
{
glyphname = T;
lastChange = "2021-11-24 21:27:15 +0000";
layers = (
{
anchors = (
{
name = bottom;
position = "{253, 21}";
},
{
name = center;
position = "{268, 327}";
},
{
name = top;
position = "{293, 659}";
}
);
layerId = "F72AA8BB-7F63-4F07-AEAC-030E55A5CABB";
paths = (
{
closed = 1;
nodes = (
"349 21 OFFCURVE",
"376 26 OFFCURVE",
"377 37 CURVE SMOOTH",
"379 58 OFFCURVE",
"374 113 OFFCURVE",
"375 136 CURVE SMOOTH",
"375 137 OFFCURVE",
"375 146 OFFCURVE",
"377 165 CURVE SMOOTH",
"379 182 OFFCURVE",
"380 195 OFFCURVE",
"380 205 CURVE SMOOTH",
"380 222 OFFCURVE",
"378 232 OFFCURVE",
"373 236 CURVE",
"364 236 OFFCURVE",
"356 191 OFFCURVE",
"356 182 CURVE SMOOTH",
"353 123 OFFCURVE",
"351 92 OFFCURVE",
"349 87 CURVE SMOOTH",
"343 72 OFFCURVE",
"327 65 OFFCURVE",
"299 65 CURVE SMOOTH",
"291 65 OFFCURVE",
"280 65 OFFCURVE",
"267 66 CURVE",
"298 90 OFFCURVE",
"315 120 OFFCURVE",
"315 154 CURVE SMOOTH",
"315 168 OFFCURVE",
"304 197 OFFCURVE",
"304 210 CURVE SMOOTH",
"304 218 OFFCURVE",
"306 226 OFFCURVE",
"307 234 CURVE SMOOTH",
"308 242 OFFCURVE",
"308 249 OFFCURVE",
"305 256 CURVE SMOOTH",
"297 275 OFFCURVE",
"285 291 OFFCURVE",
"266 302 CURVE SMOOTH",
"243 315 OFFCURVE",
"228 326 OFFCURVE",
"223 333 CURVE SMOOTH",
"202 362 OFFCURVE",
"184 378 OFFCURVE",
"172 384 CURVE",
"175 413 OFFCURVE",
"178 435 OFFCURVE",
"180 450 CURVE",
"189 450 OFFCURVE",
"194 451 OFFCURVE",
"197 454 CURVE",
"196 476 OFFCURVE",
"186 484 OFFCURVE",
"168 484 CURVE SMOOTH",
"144 484 OFFCURVE",
"86 480 OFFCURVE",
"70 480 CURVE",
"64 481 OFFCURVE",
"61 483 OFFCURVE",
"61 488 CURVE SMOOTH",
"61 496 OFFCURVE",
"70 518 OFFCURVE",
"70 527 CURVE SMOOTH",
"70 555 LINE",
"101 532 OFFCURVE",
"131 520 OFFCURVE",
"160 519 CURVE SMOOTH",
"184 518 OFFCURVE",
"198 516 OFFCURVE",
"203 515 CURVE SMOOTH",
"220 512 OFFCURVE",
"229 501 OFFCURVE",
"230 485 CURVE SMOOTH",
"233 429 OFFCURVE",
"242 375 OFFCURVE",
"309 370 CURVE SMOOTH",
"322 369 OFFCURVE",
"341 374 OFFCURVE",
"366 385 CURVE",
"366 361 LINE",
"363 341 OFFCURVE",
"361 319 OFFCURVE",
"361 299 CURVE SMOOTH",
"361 284 OFFCURVE",
"363 276 OFFCURVE",
"367 276 CURVE SMOOTH",
"377 275 OFFCURVE",
"382 284 OFFCURVE",
"383 302 CURVE SMOOTH",
"383 328 OFFCURVE",
"383 354 OFFCURVE",
"384 379 CURVE SMOOTH",
"386 417 OFFCURVE",
"393 436 OFFCURVE",
"405 436 CURVE SMOOTH",
"425 436 OFFCURVE",
"478 420 OFFCURVE",
"496 420 CURVE SMOOTH",
"512 420 OFFCURVE",
"520 430 OFFCURVE",
"521 448 CURVE SMOOTH",
"530 616 LINE SMOOTH",
"532 645 OFFCURVE",
"519 660 OFFCURVE",
"494 661 CURVE SMOOTH",
"485 661 OFFCURVE",
"474 662 OFFCURVE",
"461 662 CURVE SMOOTH",
"443 662 OFFCURVE",
"420 661 OFFCURVE",
"394 660 CURVE SMOOTH",
"368 659 OFFCURVE",
"345 658 OFFCURVE",
"327 658 CURVE SMOOTH",
"314 658 OFFCURVE",
"303 659 OFFCURVE",
"293 659 CURVE SMOOTH",
"268 660 OFFCURVE",
"230 665 OFFCURVE",
"179 673 CURVE SMOOTH",
"127 681 OFFCURVE",
"89 685 OFFCURVE",
"64 687 CURVE SMOOTH",
"50 688 OFFCURVE",
"42 681 OFFCURVE",
"39 667 CURVE",
"31 587 OFFCURVE",
"25 522 OFFCURVE",
"25 474 CURVE SMOOTH",
"25 453 OFFCURVE",
"30 442 OFFCURVE",
"42 441 CURVE",
"85 444 OFFCURVE",
"124 447 OFFCURVE",
"159 450 CURVE",
"146 426 OFFCURVE",
"143 397 OFFCURVE",
"142 370 CURVE SMOOTH",
"141 339 OFFCURVE",
"138 292 OFFCURVE",
"133 230 CURVE SMOOTH",
"128 168 OFFCURVE",
"124 121 OFFCURVE",
"123 90 CURVE SMOOTH",
"122 77 OFFCURVE",
"121 68 OFFCURVE",
"121 64 CURVE SMOOTH",
"121 30 OFFCURVE",
"139 28 OFFCURVE",
"167 27 CURVE SMOOTH",
"242 24 OFFCURVE",
"285 21 OFFCURVE",
"295 21 CURVE SMOOTH"
);
}
);
width = 530;
}
);
leftKerningGroup = T;
note = T;
rightKerningGroup = T;
unicode = 0054;
},
{
glyphname = U;
lastChange = "2021-11-24 21:27:31 +0000";
layers = (
{
anchors = (
{
name = bottom;
position = "{353, 7}";
},
{
name = ogonek;
position = "{529, 31}";
},
{
name = top;
position = "{323, 650}";
},
{
name = topright;
position = "{461, 661}";
}
);
layerId = "F72AA8BB-7F63-4F07-AEAC-030E55A5CABB";
paths = (
{
closed = 1;
nodes = (
"330 6 OFFCURVE",
"341 6 OFFCURVE",
"353 7 CURVE SMOOTH",
"402 10 OFFCURVE",
"529 31 OFFCURVE",
"553 77 CURVE",
"604 97 OFFCURVE",
"630 154 OFFCURVE",
"630 247 CURVE SMOOTH",
"630 259 OFFCURVE",
"629 284 OFFCURVE",
"627 321 CURVE SMOOTH",
"623 411 LINE SMOOTH",
"620 481 OFFCURVE",
"610 533 OFFCURVE",
"610 567 CURVE SMOOTH",
"610 589 OFFCURVE",
"618 629 OFFCURVE",
"618 644 CURVE SMOOTH",
"617 655 OFFCURVE",
"611 660 OFFCURVE",
"599 661 CURVE SMOOTH",
"572 663 OFFCURVE",
"540 665 OFFCURVE",
"503 665 CURVE SMOOTH",
"477 665 OFFCURVE",
"448 664 OFFCURVE",
"416 662 CURVE SMOOTH",
"383 660 OFFCURVE",
"368 635 OFFCURVE",
"371 586 CURVE SMOOTH",
"382 375 LINE SMOOTH",
"383 351 OFFCURVE",
"395 293 OFFCURVE",
"395 272 CURVE SMOOTH",
"395 246 OFFCURVE",
"381 221 OFFCURVE",
"357 220 CURVE SMOOTH",
"331 219 OFFCURVE",
"311 225 OFFCURVE",
"301 241 CURVE SMOOTH",
"293 254 OFFCURVE",
"288 274 OFFCURVE",
"286 301 CURVE SMOOTH",
"285 316 OFFCURVE",
"284 324 OFFCURVE",
"282 325 CURVE",
"276 324 OFFCURVE",
"275 315 OFFCURVE",
"275 298 CURVE SMOOTH",
"275 283 LINE SMOOTH",
"276 256 OFFCURVE",
"279 236 OFFCURVE",
"284 221 CURVE",
"278 200 OFFCURVE",
"263 185 OFFCURVE",
"240 178 CURVE SMOOTH",
"181 160 LINE",
"161 149 OFFCURVE",
"150 128 OFFCURVE",
"149 98 CURVE",
"115 130 OFFCURVE",
"93 177 OFFCURVE",
"82 238 CURVE",
"100 231 OFFCURVE",
"119 228 OFFCURVE",
"139 228 CURVE SMOOTH",
"185 228 OFFCURVE",
"209 244 OFFCURVE",
"207 276 CURVE SMOOTH",
"206 295 OFFCURVE",
"182 335 OFFCURVE",
"181 355 CURVE SMOOTH",
"180 378 OFFCURVE",
"189 400 OFFCURVE",
"210 420 CURVE SMOOTH",
"229 438 OFFCURVE",
"238 459 OFFCURVE",
"238 482 CURVE SMOOTH",
"238 528 OFFCURVE",
"208 555 OFFCURVE",
"165 555 CURVE SMOOTH",
"130 555 OFFCURVE",
"108 556 OFFCURVE",
"101 562 CURVE SMOOTH",
"86 575 OFFCURVE",
"74 582 OFFCURVE",
"64 585 CURVE",
"62 594 LINE",
"113 599 OFFCURVE",
"152 601 OFFCURVE",
"178 604 CURVE SMOOTH",
"187 605 OFFCURVE",
"199 604 OFFCURVE",
"214 602 CURVE SMOOTH",
"231 600 OFFCURVE",
"243 599 OFFCURVE",
"250 599 CURVE",
"249 590 OFFCURVE",
"252 559 OFFCURVE",
"260 504 CURVE SMOOTH",
"268 452 OFFCURVE",
"274 420 OFFCURVE",
"279 408 CURVE",
"282 409 OFFCURVE",
"284 420 OFFCURVE",
"284 441 CURVE SMOOTH",
"284 453 OFFCURVE",
"283 468 OFFCURVE",
"282 487 CURVE SMOOTH",
"281 499 OFFCURVE",
"281 517 OFFCURVE",
"282 541 CURVE SMOOTH",
"283 565 OFFCURVE",
"283 583 OFFCURVE",
"283 594 CURVE",
"281 601 LINE",
"291 603 OFFCURVE",
"296 606 OFFCURVE",
"296 612 CURVE SMOOTH",
"296 614 LINE SMOOTH",
"294 630 OFFCURVE",
"275 648 OFFCURVE",
"259 648 CURVE SMOOTH",
"241 647 OFFCURVE",
"171 632 OFFCURVE",
"150 631 CURVE SMOOTH",
"127 630 OFFCURVE",
"74 632 OFFCURVE",
"53 631 CURVE SMOOTH",
"33 630 OFFCURVE",
"23 620 OFFCURVE",
"24 601 CURVE SMOOTH",
"30 551 OFFCURVE",
"35 513 OFFCURVE",
"39 487 CURVE",
"54 246 LINE",
"63 163 OFFCURVE",
"86 103 OFFCURVE",
"124 67 CURVE SMOOTH",
"166 27 OFFCURVE",
"231 6 OFFCURVE",
"319 6 CURVE SMOOTH"
);
},
{
closed = 1;
nodes = (
"403 46 OFFCURVE",
"401 62 OFFCURVE",
"401 95 CURVE SMOOTH",
"401 123 OFFCURVE",
"414 143 OFFCURVE",
"440 155 CURVE",
"517 179 LINE",
"545 190 OFFCURVE",
"558 210 OFFCURVE",
"556 237 CURVE SMOOTH",
"555 272 OFFCURVE",
"513 305 OFFCURVE",
"478 305 CURVE SMOOTH",
"468 305 OFFCURVE",
"439 294 OFFCURVE",
"426 294 CURVE SMOOTH",
"423 294 LINE",
"416 335 OFFCURVE",
"410 367 OFFCURVE",
"407 388 CURVE",
"396 585 LINE SMOOTH",
"395 598 OFFCURVE",
"395 606 OFFCURVE",
"396 609 CURVE SMOOTH",
"398 616 OFFCURVE",
"403 620 OFFCURVE",
"412 621 CURVE SMOOTH",
"435 621 OFFCURVE",
"453 621 OFFCURVE",
"465 620 CURVE",
"465 615 LINE SMOOTH",
"465 599 OFFCURVE",
"462 577 OFFCURVE",
"451 550 CURVE SMOOTH",
"440 522 OFFCURVE",
"433 502 OFFCURVE",
"434 487 CURVE SMOOTH",
"437 436 OFFCURVE",
"474 397 OFFCURVE",
"523 400 CURVE SMOOTH",
"532 400 OFFCURVE",
"553 409 OFFCURVE",
"561 409 CURVE SMOOTH",
"574 409 OFFCURVE",
"586 398 OFFCURVE",
"597 390 CURVE",
"601 310 OFFCURVE",
"603 265 OFFCURVE",
"603 254 CURVE SMOOTH",
"603 173 OFFCURVE",
"592 125 OFFCURVE",
"569 109 CURVE",
"574 123 OFFCURVE",
"577 136 OFFCURVE",
"576 147 CURVE",
"571 143 OFFCURVE",
"568 139 OFFCURVE",
"566 136 CURVE SMOOTH",
"555 119 OFFCURVE",
"540 105 OFFCURVE",
"523 93 CURVE",
"488 87 OFFCURVE",
"470 80 OFFCURVE",
"470 72 CURVE",
"471 70 OFFCURVE",
"473 68 OFFCURVE",
"477 67 CURVE",
"454 58 OFFCURVE",
"429 51 OFFCURVE",
"403 47 CURVE"
);
}
);
width = 640;
}
);
leftKerningGroup = U;
leftMetricsKey = E;
note = U;
rightKerningGroup = U;
rightMetricsKey = E;
unicode = 0055;
},
{
glyphname = V;
lastChange = "2021-11-24 18:56:06 +0000";
layers = (
{
layerId = "F72AA8BB-7F63-4F07-AEAC-030E55A5CABB";
paths = (
{
closed = 1;
nodes = (
"246 13 OFFCURVE",
"279 14 OFFCURVE",
"333 15 CURVE SMOOTH",
"390 16 OFFCURVE",
"420 17 OFFCURVE",
"425 19 CURVE SMOOTH",
"429 21 OFFCURVE",
"434 27 OFFCURVE",
"438 40 CURVE SMOOTH",
"446 66 LINE SMOOTH",
"512 249 OFFCURVE",
"576 420 OFFCURVE",
"659 569 CURVE SMOOTH",
"676 598 LINE SMOOTH",
"685 612 OFFCURVE",
"688 621 OFFCURVE",
"688 628 CURVE SMOOTH",
"688 635 OFFCURVE",
"681 638 OFFCURVE",
"668 638 CURVE SMOOTH",
"658 638 OFFCURVE",
"650 634 OFFCURVE",
"646 628 CURVE",
"556 636 OFFCURVE",
"493 639 OFFCURVE",
"456 638 CURVE SMOOTH",
"443 638 OFFCURVE",
"435 634 OFFCURVE",
"430 627 CURVE SMOOTH",
"427 623 OFFCURVE",
"425 614 OFFCURVE",
"420 599 CURVE SMOOTH",
"384 491 OFFCURVE",
"359 408 OFFCURVE",
"340 353 CURVE",
"309 466 OFFCURVE",
"287 550 OFFCURVE",
"272 607 CURVE SMOOTH",
"265 635 OFFCURVE",
"247 649 OFFCURVE",
"220 650 CURVE SMOOTH",
"203 651 OFFCURVE",
"177 653 OFFCURVE",
"143 658 CURVE SMOOTH",
"102 664 OFFCURVE",
"74 665 OFFCURVE",
"58 665 CURVE SMOOTH",
"20 665 OFFCURVE",
"1 652 OFFCURVE",
"0 627 CURVE SMOOTH",
"0 603 OFFCURVE",
"69 432 OFFCURVE",
"86 400 CURVE SMOOTH",
"99 375 OFFCURVE",
"112 336 OFFCURVE",
"127 285 CURVE SMOOTH",
"143 232 OFFCURVE",
"157 193 OFFCURVE",
"167 170 CURVE SMOOTH",
"176 149 OFFCURVE",
"187 139 OFFCURVE",
"199 138 CURVE SMOOTH",
"206 138 OFFCURVE",
"209 143 OFFCURVE",
"210 153 CURVE SMOOTH",
"210 165 OFFCURVE",
"205 183 OFFCURVE",
"196 206 CURVE",
"239 216 OFFCURVE",
"261 242 OFFCURVE",
"261 285 CURVE SMOOTH",
"261 307 OFFCURVE",
"250 333 OFFCURVE",
"230 364 CURVE SMOOTH",
"210 395 OFFCURVE",
"198 415 OFFCURVE",
"198 427 CURVE SMOOTH",
"198 438 OFFCURVE",
"209 465 OFFCURVE",
"209 477 CURVE SMOOTH",
"210 500 OFFCURVE",
"204 519 OFFCURVE",
"190 534 CURVE SMOOTH",
"182 543 OFFCURVE",
"166 554 OFFCURVE",
"143 569 CURVE SMOOTH",
"120 584 OFFCURVE",
"104 595 OFFCURVE",
"95 606 CURVE",
"119 605 OFFCURVE",
"177 609 OFFCURVE",
"201 609 CURVE SMOOTH",
"233 607 OFFCURVE",
"240 581 OFFCURVE",
"242 553 CURVE SMOOTH",
"246 527 OFFCURVE",
"257 488 OFFCURVE",
"273 436 CURVE SMOOTH",
"289 384 OFFCURVE",
"299 344 OFFCURVE",
"303 316 CURVE SMOOTH",
"312 254 OFFCURVE",
"321 223 OFFCURVE",
"332 222 CURVE SMOOTH",
"343 222 OFFCURVE",
"349 266 OFFCURVE",
"350 276 CURVE SMOOTH",
"350 286 OFFCURVE",
"349 297 OFFCURVE",
"348 310 CURVE",
"367 361 OFFCURVE",
"381 398 OFFCURVE",
"391 423 CURVE",
"407 399 OFFCURVE",
"430 386 OFFCURVE",
"460 386 CURVE SMOOTH",
"493 386 OFFCURVE",
"521 409 OFFCURVE",
"521 443 CURVE SMOOTH",
"521 455 OFFCURVE",
"517 471 OFFCURVE",
"508 493 CURVE SMOOTH",
"498 517 OFFCURVE",
"494 536 OFFCURVE",
"494 549 CURVE SMOOTH",
"494 576 OFFCURVE",
"507 596 OFFCURVE",
"532 609 CURVE",
"635 605 LINE",
"637 585 OFFCURVE",
"601 488 OFFCURVE",
"527 314 CURVE",
"514 316 OFFCURVE",
"503 317 OFFCURVE",
"492 317 CURVE SMOOTH",
"429 317 OFFCURVE",
"415 275 OFFCURVE",
"399 223 CURVE SMOOTH",
"390 192 OFFCURVE",
"374 173 OFFCURVE",
"366 157 CURVE SMOOTH",
"365 155 OFFCURVE",
"349 143 OFFCURVE",
"320 124 CURVE SMOOTH",
"305 114 OFFCURVE",
"295 96 OFFCURVE",
"290 69 CURVE",
"266 75 OFFCURVE",
"247 78 OFFCURVE",
"232 78 CURVE SMOOTH",
"212 78 OFFCURVE",
"202 69 OFFCURVE",
"201 49 CURVE SMOOTH",
"201 30 OFFCURVE",
"217 14 OFFCURVE",
"234 14 CURVE SMOOTH"
);
}
);
width = 663;
}
);
note = V;
unicode = 0056;
},
{
glyphname = W;
lastChange = "2021-11-24 18:48:06 +0000";
layers = (
{
anchors = (
{
name = bottom;
position = "{491, 0}";
},
{
name = top;
position = "{513, 650}";
}
);
layerId = "F72AA8BB-7F63-4F07-AEAC-030E55A5CABB";
paths = (
{
closed = 1;
nodes = (
"676 10 OFFCURVE",
"712 12 OFFCURVE",
"715 12 CURVE SMOOTH",
"766 12 OFFCURVE",
"796 27 OFFCURVE",
"803 46 CURVE SMOOTH",
"822 97 OFFCURVE",
"853 189 OFFCURVE",
"891 323 CURVE SMOOTH",
"925 442 OFFCURVE",
"958 533 OFFCURVE",
"986 596 CURVE SMOOTH",
"993 612 OFFCURVE",
"997 623 OFFCURVE",
"997 630 CURVE SMOOTH",
"996 643 OFFCURVE",
"984 651 OFFCURVE",
"959 652 CURVE SMOOTH",
"924 653 OFFCURVE",
"886 654 OFFCURVE",
"844 654 CURVE SMOOTH",
"815 654 OFFCURVE",
"784 653 OFFCURVE",
"751 653 CURVE SMOOTH",
"728 653 OFFCURVE",
"713 633 OFFCURVE",
"710 593 CURVE SMOOTH",
"702 491 LINE",
"689 424 OFFCURVE",
"680 373 OFFCURVE",
"675 340 CURVE",
"667 368 OFFCURVE",
"656 413 OFFCURVE",
"645 475 CURVE SMOOTH",
"641 500 OFFCURVE",
"618 621 OFFCURVE",
"603 641 CURVE SMOOTH",
"596 650 OFFCURVE",
"586 654 OFFCURVE",
"573 654 CURVE SMOOTH",
"552 654 OFFCURVE",
"481 641 OFFCURVE",
"460 641 CURVE SMOOTH",
"441 640 OFFCURVE",
"429 640 OFFCURVE",
"424 638 CURVE SMOOTH",
"412 633 OFFCURVE",
"405 625 OFFCURVE",
"402 612 CURVE SMOOTH",
"372 483 LINE SMOOTH",
"367 462 OFFCURVE",
"363 441 OFFCURVE",
"358 420 CURVE SMOOTH",
"350 387 OFFCURVE",
"344 368 OFFCURVE",
"341 364 CURVE",
"340 364 OFFCURVE",
"332 380 OFFCURVE",
"325 383 CURVE",
"319 383 OFFCURVE",
"316 377 OFFCURVE",
"316 364 CURVE SMOOTH",
"317 345 OFFCURVE",
"330 244 OFFCURVE",
"350 244 CURVE SMOOTH",
"375 245 OFFCURVE",
"388 256 OFFCURVE",
"387 277 CURVE SMOOTH",
"387 289 OFFCURVE",
"373 317 OFFCURVE",
"373 329 CURVE SMOOTH",
"373 328 OFFCURVE",
"377 347 OFFCURVE",
"385 388 CURVE",
"394 387 OFFCURVE",
"402 386 OFFCURVE",
"409 386 CURVE SMOOTH",
"455 386 OFFCURVE",
"469 400 OFFCURVE",
"476 443 CURVE SMOOTH",
"483 487 OFFCURVE",
"491 505 OFFCURVE",
"533 525 CURVE SMOOTH",
"564 540 OFFCURVE",
"582 549 OFFCURVE",
"588 554 CURVE",
"600 486 OFFCURVE",
"610 441 OFFCURVE",
"618 419 CURVE",
"601 403 OFFCURVE",
"592 382 OFFCURVE",
"592 358 CURVE SMOOTH",
"592 326 OFFCURVE",
"619 284 OFFCURVE",
"620 271 CURVE SMOOTH",
"620 255 OFFCURVE",
"607 216 OFFCURVE",
"607 198 CURVE SMOOTH",
"607 133 OFFCURVE",
"665 87 OFFCURVE",
"730 87 CURVE SMOOTH",
"745 88 OFFCURVE",
"759 90 OFFCURVE",
"774 95 CURVE",
"766 70 OFFCURVE",
"761 55 OFFCURVE",
"732 53 CURVE",
"688 54 OFFCURVE",
"655 58 OFFCURVE",
"633 58 CURVE SMOOTH",
"622 58 LINE SMOOTH",
"607 58 OFFCURVE",
"590 115 OFFCURVE",
"572 232 CURVE SMOOTH",
"554 348 OFFCURVE",
"537 406 OFFCURVE",
"522 406 CURVE SMOOTH",
"501 405 OFFCURVE",
"482 387 OFFCURVE",
"482 367 CURVE",
"493 330 OFFCURVE",
"505 301 OFFCURVE",
"516 278 CURVE",
"555 124 OFFCURVE",
"574 41 OFFCURVE",
"575 28 CURVE SMOOTH",
"576 15 OFFCURVE",
"587 9 OFFCURVE",
"608 9 CURVE SMOOTH"
);
},
{
closed = 1;
nodes = (
"410 2 LINE SMOOTH",
"441 2 OFFCURVE",
"461 15 OFFCURVE",
"469 40 CURVE SMOOTH",
"473 53 OFFCURVE",
"481 89 OFFCURVE",
"491 148 CURVE SMOOTH",
"500 202 OFFCURVE",
"505 236 OFFCURVE",
"505 251 CURVE SMOOTH",
"505 279 OFFCURVE",
"501 292 OFFCURVE",
"493 292 CURVE SMOOTH",
"490 292 OFFCURVE",
"484 281 OFFCURVE",
"479 258 CURVE SMOOTH",
"476 244 OFFCURVE",
"472 230 OFFCURVE",
"469 217 CURVE",
"457 226 OFFCURVE",
"443 240 OFFCURVE",
"431 240 CURVE SMOOTH",
"407 239 OFFCURVE",
"395 228 OFFCURVE",
"395 207 CURVE SMOOTH",
"395 184 OFFCURVE",
"416 108 OFFCURVE",
"440 97 CURVE",
"437 80 OFFCURVE",
"436 70 OFFCURVE",
"434 66 CURVE SMOOTH",
"429 55 OFFCURVE",
"422 50 OFFCURVE",
"411 50 CURVE SMOOTH",
"325 50 LINE",
"345 78 OFFCURVE",
"355 108 OFFCURVE",
"355 140 CURVE SMOOTH",
"355 169 OFFCURVE",
"344 195 OFFCURVE",
"320 218 CURVE",
"257 268 LINE SMOOTH",
"234 288 OFFCURVE",
"223 310 OFFCURVE",
"222 333 CURVE SMOOTH",
"222 340 OFFCURVE",
"227 356 OFFCURVE",
"236 380 CURVE SMOOTH",
"245 403 OFFCURVE",
"248 423 OFFCURVE",
"248 438 CURVE SMOOTH",
"248 474 OFFCURVE",
"233 504 OFFCURVE",
"204 528 CURVE SMOOTH",
"179 549 OFFCURVE",
"152 560 OFFCURVE",
"122 560 CURVE SMOOTH",
"117 560 OFFCURVE",
"113 560 OFFCURVE",
"108 559 CURVE SMOOTH",
"90 557 LINE",
"76 586 LINE",
"76 590 OFFCURVE",
"77 592 OFFCURVE",
"79 593 CURVE",
"102 593 OFFCURVE",
"129 593 OFFCURVE",
"160 594 CURVE SMOOTH",
"242 596 LINE SMOOTH",
"249 596 OFFCURVE",
"257 580 OFFCURVE",
"265 548 CURVE SMOOTH",
"273 516 OFFCURVE",
"281 500 OFFCURVE",
"289 500 CURVE SMOOTH",
"293 500 OFFCURVE",
"295 505 OFFCURVE",
"295 515 CURVE SMOOTH",
"295 535 OFFCURVE",
"275 597 OFFCURVE",
"275 616 CURVE SMOOTH",
"274 646 OFFCURVE",
"275 650 OFFCURVE",
"254 650 CURVE SMOOTH",
"234 650 OFFCURVE",
"199 649 OFFCURVE",
"145 643 CURVE SMOOTH",
"103 638 OFFCURVE",
"71 636 OFFCURVE",
"50 636 CURVE SMOOTH",
"26 635 OFFCURVE",
"14 626 OFFCURVE",
"14 608 CURVE SMOOTH",
"14 596 OFFCURVE",
"21 579 OFFCURVE",
"35 558 CURVE SMOOTH",
"51 533 OFFCURVE",
"60 516 OFFCURVE",
"63 508 CURVE SMOOTH",
"119 358 OFFCURVE",
"158 246 OFFCURVE",
"184 170 CURVE SMOOTH",
"187 161 OFFCURVE",
"194 140 OFFCURVE",
"208 105 CURVE SMOOTH",
"219 78 OFFCURVE",
"226 57 OFFCURVE",
"230 40 CURVE SMOOTH",
"236 13 OFFCURVE",
"251 0 OFFCURVE",
"274 0 CURVE SMOOTH"
);
},
{
closed = 1;
nodes = (
"313 431 OFFCURVE",
"319 446 OFFCURVE",
"319 451 CURVE SMOOTH",
"319 457 OFFCURVE",
"317 461 OFFCURVE",
"313 464 CURVE",
"300 469 LINE",
"295 469 OFFCURVE",
"292 466 OFFCURVE",
"292 459 CURVE SMOOTH",
"292 440 OFFCURVE",
"297 430 OFFCURVE",
"308 430 CURVE"
);
},
{
closed = 1;
nodes = (
"845 327 OFFCURVE",
"838 345 OFFCURVE",
"832 372 CURVE SMOOTH",
"822 419 OFFCURVE",
"808 445 OFFCURVE",
"754 445 CURVE",
"724 442 LINE",
"727 465 OFFCURVE",
"751 590 OFFCURVE",
"759 605 CURVE SMOOTH",
"760 607 LINE",
"764 607 OFFCURVE",
"772 583 OFFCURVE",
"772 578 CURVE SMOOTH",
"772 570 OFFCURVE",
"768 549 OFFCURVE",
"768 541 CURVE SMOOTH",
"768 509 OFFCURVE",
"796 488 OFFCURVE",
"829 488 CURVE SMOOTH",
"874 489 OFFCURVE",
"909 519 OFFCURVE",
"909 563 CURVE SMOOTH",
"908 592 OFFCURVE",
"895 610 OFFCURVE",
"869 617 CURVE",
"920 619 LINE SMOOTH",
"935 620 OFFCURVE",
"944 618 OFFCURVE",
"949 613 CURVE",
"948 610 OFFCURVE",
"916 511 OFFCURVE",
"852 317 CURVE"
);
}
);
width = 981;
}
);
leftKerningGroup = W;
note = W;
rightKerningGroup = W;
unicode = 0057;
},
{
glyphname = X;
lastChange = "2021-11-24 18:28:23 +0000";
layers = (
{
layerId = "F72AA8BB-7F63-4F07-AEAC-030E55A5CABB";
paths = (
{
closed = 1;
nodes = (
"695 -2 OFFCURVE",
"701 4 OFFCURVE",
"703 16 CURVE SMOOTH",
"705 30 OFFCURVE",
"531 274 OFFCURVE",
"516 276 CURVE SMOOTH",
"514 276 OFFCURVE",
"513 275 OFFCURVE",
"512 272 CURVE",
"512 266 OFFCURVE",
"533 228 OFFCURVE",
"575 159 CURVE SMOOTH",
"620 85 OFFCURVE",
"645 42 OFFCURVE",
"650 30 CURVE",
"539 34 LINE",
"511 36 LINE",
"525 49 OFFCURVE",
"534 65 OFFCURVE",
"534 84 CURVE SMOOTH",
"534 108 OFFCURVE",
"506 135 OFFCURVE",
"507 147 CURVE SMOOTH",
"507 158 OFFCURVE",
"520 178 OFFCURVE",
"520 189 CURVE SMOOTH",
"520 209 OFFCURVE",
"497 225 OFFCURVE",
"476 225 CURVE SMOOTH",
"463 225 OFFCURVE",
"450 220 OFFCURVE",
"440 210 CURVE SMOOTH",
"418 188 OFFCURVE",
"422 148 OFFCURVE",
"420 143 CURVE SMOOTH",
"418 138 OFFCURVE",
"412 130 OFFCURVE",
"403 120 CURVE",
"382 161 OFFCURVE",
"371 182 OFFCURVE",
"370 183 CURVE",
"381 193 OFFCURVE",
"388 203 OFFCURVE",
"392 212 CURVE",
"393 223 OFFCURVE",
"374 236 OFFCURVE",
"362 236 CURVE",
"357 237 OFFCURVE",
"339 205 OFFCURVE",
"308 142 CURVE SMOOTH",
"277 79 OFFCURVE",
"253 47 OFFCURVE",
"236 48 CURVE SMOOTH",
"171 52 LINE",
"184 73 OFFCURVE",
"191 97 OFFCURVE",
"192 125 CURVE SMOOTH",
"192 139 LINE SMOOTH",
"193 170 OFFCURVE",
"208 194 OFFCURVE",
"237 209 CURVE SMOOTH",
"320 248 LINE",
"352 271 OFFCURVE",
"368 307 OFFCURVE",
"368 357 CURVE SMOOTH",
"368 386 OFFCURVE",
"360 410 OFFCURVE",
"345 429 CURVE SMOOTH",
"334 442 OFFCURVE",
"314 455 OFFCURVE",
"287 468 CURVE SMOOTH",
"258 482 OFFCURVE",
"239 493 OFFCURVE",
"232 500 CURVE SMOOTH",
"224 508 OFFCURVE",
"217 525 OFFCURVE",
"209 554 CURVE SMOOTH",
"201 582 OFFCURVE",
"188 605 OFFCURVE",
"169 624 CURVE",
"212 623 OFFCURVE",
"245 623 OFFCURVE",
"268 622 CURVE SMOOTH",
"290 621 OFFCURVE",
"309 608 OFFCURVE",
"323 583 CURVE",
"353 513 LINE",
"343 498 OFFCURVE",
"340 486 OFFCURVE",
"340 479 CURVE SMOOTH",
"340 470 OFFCURVE",
"347 466 OFFCURVE",
"359 465 CURVE SMOOTH",
"374 464 OFFCURVE",
"403 500 OFFCURVE",
"433 579 CURVE SMOOTH",
"439 594 OFFCURVE",
"455 603 OFFCURVE",
"480 603 CURVE SMOOTH",
"490 603 OFFCURVE",
"503 603 OFFCURVE",
"521 602 CURVE",
"519 588 OFFCURVE",
"506 571 OFFCURVE",
"483 552 CURVE SMOOTH",
"457 531 OFFCURVE",
"445 506 OFFCURVE",
"445 478 CURVE SMOOTH",
"445 441 OFFCURVE",
"464 416 OFFCURVE",
"501 400 CURVE",
"473 372 LINE SMOOTH",
"459 358 OFFCURVE",
"453 347 OFFCURVE",
"452 340 CURVE SMOOTH",
"452 329 OFFCURVE",
"458 323 OFFCURVE",
"472 323 CURVE SMOOTH",
"487 323 OFFCURVE",
"506 339 OFFCURVE",
"528 371 CURVE SMOOTH",
"542 394 OFFCURVE",
"557 417 OFFCURVE",
"571 441 CURVE SMOOTH",
"574 446 OFFCURVE",
"596 476 OFFCURVE",
"638 531 CURVE SMOOTH",
"676 581 OFFCURVE",
"696 608 OFFCURVE",
"696 613 CURVE SMOOTH",
"696 631 OFFCURVE",
"676 634 OFFCURVE",
"636 634 CURVE SMOOTH",
"615 634 OFFCURVE",
"588 633 OFFCURVE",
"555 633 CURVE SMOOTH",
"501 633 OFFCURVE",
"475 635 OFFCURVE",
"459 635 CURVE SMOOTH",
"431 635 OFFCURVE",
"414 628 OFFCURVE",
"408 614 CURVE SMOOTH",
"389 571 OFFCURVE",
"375 543 OFFCURVE",
"365 529 CURVE",
"348 576 OFFCURVE",
"334 611 OFFCURVE",
"326 635 CURVE SMOOTH",
"324 641 OFFCURVE",
"317 645 OFFCURVE",
"306 645 CURVE SMOOTH",
"282 645 OFFCURVE",
"198 648 OFFCURVE",
"174 649 CURVE SMOOTH",
"156 650 OFFCURVE",
"100 673 OFFCURVE",
"85 674 CURVE SMOOTH",
"59 676 OFFCURVE",
"47 666 OFFCURVE",
"44 645 CURVE SMOOTH",
"43 638 OFFCURVE",
"48 629 OFFCURVE",
"57 620 CURVE SMOOTH",
"70 607 OFFCURVE",
"76 600 OFFCURVE",
"78 597 CURVE SMOOTH",
"121 532 OFFCURVE",
"165 453 OFFCURVE",
"222 364 CURVE",
"195 335 OFFCURVE",
"21 94 OFFCURVE",
"12 69 CURVE",
"-5 68 OFFCURVE",
"-13 58 OFFCURVE",
"-13 40 CURVE SMOOTH",
"-13 27 OFFCURVE",
"-4 20 OFFCURVE",
"13 20 CURVE SMOOTH",
"46 19 OFFCURVE",
"76 19 OFFCURVE",
"103 19 CURVE SMOOTH",
"138 19 OFFCURVE",
"168 19 OFFCURVE",
"191 20 CURVE",
"256 16 LINE SMOOTH",
"273 15 OFFCURVE",
"292 36 OFFCURVE",
"312 77 CURVE SMOOTH",
"354 164 LINE",
"357 153 OFFCURVE",
"389 101 OFFCURVE",
"391 86 CURVE",
"398 57 OFFCURVE",
"403 35 OFFCURVE",
"409 21 CURVE SMOOTH",
"412 14 OFFCURVE",
"438 14 OFFCURVE",
"485 5 CURVE SMOOTH",
"490 4 OFFCURVE",
"519 3 OFFCURVE",
"572 0 CURVE SMOOTH",
"583 -1 OFFCURVE",
"593 -1 OFFCURVE",
"603 -1 CURVE SMOOTH",
"625 -1 OFFCURVE",
"646 1 OFFCURVE",
"664 4 CURVE",
"669 -1 OFFCURVE",
"674 -2 OFFCURVE",
"680 -2 CURVE SMOOTH"
);
}
);
width = 699;
}
);
leftKerningGroup = X;
note = X;
rightKerningGroup = X;
unicode = 0058;
},
{
glyphname = Y;
lastChange = "2021-11-24 18:54:39 +0000";
layers = (
{
anchors = (
{
name = bottom;
position = "{360, -9}";
},
{
name = top;
position = "{351, 650}";
},
{
name = topleft;
position = "{17, 650}";
}
);
layerId = "F72AA8BB-7F63-4F07-AEAC-030E55A5CABB";
paths = (
{
closed = 1;
nodes = (
"304 -15 OFFCURVE",
"360 -9 OFFCURVE",
"381 -9 CURVE SMOOTH",
"396 -9 OFFCURVE",
"430 -13 OFFCURVE",
"442 -13 CURVE SMOOTH",
"474 -13 OFFCURVE",
"490 5 OFFCURVE",
"490 42 CURVE SMOOTH",
"490 66 OFFCURVE",
"487 103 OFFCURVE",
"481 152 CURVE SMOOTH",
"475 200 OFFCURVE",
"472 237 OFFCURVE",
"472 262 CURVE SMOOTH",
"472 267 OFFCURVE",
"507 326 OFFCURVE",
"577 439 CURVE SMOOTH",
"647 552 OFFCURVE",
"681 616 OFFCURVE",
"681 632 CURVE SMOOTH",
"681 651 OFFCURVE",
"661 660 OFFCURVE",
"620 660 CURVE SMOOTH",
"600 660 OFFCURVE",
"572 656 OFFCURVE",
"535 648 CURVE SMOOTH",
"497 640 OFFCURVE",
"470 636 OFFCURVE",
"451 636 CURVE SMOOTH",
"419 636 OFFCURVE",
"400 628 OFFCURVE",
"395 611 CURVE",
"379 571 LINE SMOOTH",
"372 553 OFFCURVE",
"368 540 OFFCURVE",
"368 532 CURVE SMOOTH",
"368 522 OFFCURVE",
"371 517 OFFCURVE",
"377 517 CURVE SMOOTH",
"391 517 OFFCURVE",
"403 529 OFFCURVE",
"412 554 CURVE SMOOTH",
"421 579 OFFCURVE",
"431 591 OFFCURVE",
"440 591 CURVE SMOOTH",
"450 591 LINE",
"450 575 OFFCURVE",
"459 537 OFFCURVE",
"459 522 CURVE SMOOTH",
"459 509 OFFCURVE",
"453 493 OFFCURVE",
"440 473 CURVE SMOOTH",
"427 453 OFFCURVE",
"420 433 OFFCURVE",
"420 413 CURVE SMOOTH",
"420 380 OFFCURVE",
"427 350 OFFCURVE",
"442 323 CURVE",
"434 306 OFFCURVE",
"430 281 OFFCURVE",
"430 249 CURVE SMOOTH",
"430 230 OFFCURVE",
"431 201 OFFCURVE",
"433 162 CURVE SMOOTH",
"435 122 OFFCURVE",
"435 93 OFFCURVE",
"435 74 CURVE SMOOTH",
"435 59 OFFCURVE",
"434 50 OFFCURVE",
"432 46 CURVE SMOOTH",
"429 40 OFFCURVE",
"423 36 OFFCURVE",
"412 36 CURVE SMOOTH",
"408 36 LINE SMOOTH",
"392 37 OFFCURVE",
"371 36 OFFCURVE",
"344 35 CURVE SMOOTH",
"311 34 OFFCURVE",
"290 34 OFFCURVE",
"280 34 CURVE SMOOTH",
"269 34 OFFCURVE",
"263 39 OFFCURVE",
"263 50 CURVE SMOOTH",
"263 53 LINE",
"264 73 LINE",
"351 73 OFFCURVE",
"395 111 OFFCURVE",
"395 187 CURVE SMOOTH",
"395 213 OFFCURVE",
"390 234 OFFCURVE",
"377 248 CURVE SMOOTH",
"372 253 OFFCURVE",
"361 262 OFFCURVE",
"343 275 CURVE SMOOTH",
"331 284 OFFCURVE",
"325 293 OFFCURVE",
"325 304 CURVE SMOOTH",
"325 347 OFFCURVE",
"286 381 OFFCURVE",
"243 381 CURVE SMOOTH",
"232 381 OFFCURVE",
"222 380 OFFCURVE",
"213 377 CURVE",
"177 449 OFFCURVE",
"133 519 OFFCURVE",
"80 588 CURVE",
"115 590 OFFCURVE",
"149 591 OFFCURVE",
"181 591 CURVE",
"178 568 OFFCURVE",
"200 544 OFFCURVE",
"200 529 CURVE SMOOTH",
"200 520 OFFCURVE",
"195 500 OFFCURVE",
"195 491 CURVE SMOOTH",
"195 459 OFFCURVE",
"222 439 OFFCURVE",
"255 439 CURVE SMOOTH",
"276 439 OFFCURVE",
"294 444 OFFCURVE",
"309 455 CURVE",
"320 416 OFFCURVE",
"334 396 OFFCURVE",
"352 396 CURVE SMOOTH",
"370 396 OFFCURVE",
"379 407 OFFCURVE",
"379 428 CURVE SMOOTH",
"379 429 OFFCURVE",
"367 457 OFFCURVE",
"343 514 CURVE SMOOTH",
"318 574 OFFCURVE",
"303 610 OFFCURVE",
"300 621 CURVE SMOOTH",
"297 632 OFFCURVE",
"286 637 OFFCURVE",
"270 637 CURVE SMOOTH",
"248 637 OFFCURVE",
"216 640 OFFCURVE",
"173 645 CURVE SMOOTH",
"129 650 OFFCURVE",
"97 653 OFFCURVE",
"76 653 CURVE SMOOTH",
"55 653 OFFCURVE",
"9 644 OFFCURVE",
"9 616 CURVE SMOOTH",
"9 603 OFFCURVE",
"16 594 OFFCURVE",
"31 591 CURVE",
"29 584 OFFCURVE",
"52 539 OFFCURVE",
"101 456 CURVE SMOOTH",
"139 391 OFFCURVE",
"167 344 OFFCURVE",
"185 316 CURVE",
"202 295 OFFCURVE",
"223 275 OFFCURVE",
"223 246 CURVE SMOOTH",
"223 225 OFFCURVE",
"222 193 OFFCURVE",
"219 150 CURVE SMOOTH",
"216 107 OFFCURVE",
"215 75 OFFCURVE",
"215 54 CURVE SMOOTH",
"215 -1 OFFCURVE",
"228 -15 OFFCURVE",
"283 -15 CURVE SMOOTH"
);
}
);
width = 678;
}
);
leftKerningGroup = Y;
note = Y;
rightKerningGroup = Y;
unicode = 0059;
},
{
glyphname = Z;
lastChange = "2021-11-24 21:28:57 +0000";
layers = (
{
anchors = (
{
name = bottom;
position = "{302, 0}";
},
{
name = center;
position = "{302, 325}";
},
{
name = top;
position = "{331, 650}";
}
);
layerId = "F72AA8BB-7F63-4F07-AEAC-030E55A5CABB";
paths = (
{
closed = 1;
nodes = (
"79 -5 OFFCURVE",
"150 -1 OFFCURVE",
"246 8 CURVE SMOOTH",
"341 16 OFFCURVE",
"412 22 OFFCURVE",
"459 24 CURVE SMOOTH",
"486 24 OFFCURVE",
"575 15 OFFCURVE",
"600 17 CURVE SMOOTH",
"620 17 OFFCURVE",
"629 27 OFFCURVE",
"629 46 CURVE SMOOTH",
"626 171 LINE SMOOTH",
"625 192 OFFCURVE",
"625 203 OFFCURVE",
"625 206 CURVE SMOOTH",
"622 237 OFFCURVE",
"614 253 OFFCURVE",
"597 253 CURVE SMOOTH",
"589 253 OFFCURVE",
"583 249 OFFCURVE",
"582 239 CURVE",
"551 244 OFFCURVE",
"518 247 OFFCURVE",
"484 247 CURVE SMOOTH",
"472 247 OFFCURVE",
"460 247 OFFCURVE",
"447 246 CURVE SMOOTH",
"403 243 LINE",
"461 355 LINE SMOOTH",
"502 435 OFFCURVE",
"525 464 OFFCURVE",
"584 528 CURVE SMOOTH",
"609 556 OFFCURVE",
"643 593 OFFCURVE",
"644 633 CURVE SMOOTH",
"644 641 OFFCURVE",
"640 646 OFFCURVE",
"633 646 CURVE SMOOTH",
"631 646 LINE SMOOTH",
"577 641 OFFCURVE",
"517 567 OFFCURVE",
"455 417 CURVE",
"454 417 OFFCURVE",
"450 426 OFFCURVE",
"444 442 CURVE SMOOTH",
"438 457 OFFCURVE",
"426 465 OFFCURVE",
"409 465 CURVE SMOOTH",
"381 465 OFFCURVE",
"358 447 OFFCURVE",
"358 419 CURVE SMOOTH",
"358 410 OFFCURVE",
"365 399 OFFCURVE",
"377 387 CURVE SMOOTH",
"389 375 OFFCURVE",
"396 366 OFFCURVE",
"395 357 CURVE",
"397 345 OFFCURVE",
"376 310 OFFCURVE",
"378 291 CURVE SMOOTH",
"379 281 LINE",
"356 244 OFFCURVE",
"346 220 OFFCURVE",
"345 210 CURVE",
"346 197 OFFCURVE",
"351 191 OFFCURVE",
"361 191 CURVE SMOOTH",
"366 191 OFFCURVE",
"374 198 OFFCURVE",
"383 211 CURVE",
"397 201 OFFCURVE",
"420 197 OFFCURVE",
"448 197 CURVE SMOOTH",
"485 197 OFFCURVE",
"515 199 OFFCURVE",
"539 199 CURVE SMOOTH",
"554 199 OFFCURVE",
"567 198 OFFCURVE",
"577 198 CURVE",
"577 173 OFFCURVE",
"575 147 OFFCURVE",
"573 122 CURVE SMOOTH",
"569 89 OFFCURVE",
"557 72 OFFCURVE",
"536 69 CURVE",
"479 134 OFFCURVE",
"420 167 OFFCURVE",
"363 167 CURVE SMOOTH",
"326 167 OFFCURVE",
"283 155 OFFCURVE",
"236 133 CURVE SMOOTH",
"190 111 OFFCURVE",
"154 86 OFFCURVE",
"129 59 CURVE",
"100 57 OFFCURVE",
"76 60 OFFCURVE",
"57 66 CURVE",
"95 120 OFFCURVE",
"124 163 OFFCURVE",
"141 194 CURVE",
"147 193 OFFCURVE",
"152 192 OFFCURVE",
"157 192 CURVE SMOOTH",
"161 192 OFFCURVE",
"164 193 OFFCURVE",
"167 193 CURVE SMOOTH",
"182 194 OFFCURVE",
"197 201 OFFCURVE",
"210 216 CURVE SMOOTH",
"233 239 OFFCURVE",
"245 252 OFFCURVE",
"247 253 CURVE SMOOTH",
"282 274 OFFCURVE",
"297 302 OFFCURVE",
"297 325 CURVE SMOOTH",
"297 344 OFFCURVE",
"287 367 OFFCURVE",
"267 391 CURVE",
"303 425 OFFCURVE",
"320 447 OFFCURVE",
"320 458 CURVE SMOOTH",
"320 474 OFFCURVE",
"299 492 OFFCURVE",
"282 492 CURVE SMOOTH",
"275 492 OFFCURVE",
"267 489 OFFCURVE",
"258 484 CURVE SMOOTH",
"235 472 LINE",
"221 497 OFFCURVE",
"202 510 OFFCURVE",
"175 512 CURVE SMOOTH",
"168 512 OFFCURVE",
"156 518 OFFCURVE",
"140 530 CURVE SMOOTH",
"124 541 OFFCURVE",
"106 544 OFFCURVE",
"89 543 CURVE SMOOTH",
"77 542 LINE",
"79 586 OFFCURVE",
"105 607 OFFCURVE",
"154 607 CURVE SMOOTH",
"160 607 OFFCURVE",
"167 607 OFFCURVE",
"174 606 CURVE",
"216 606 LINE SMOOTH",
"241 606 OFFCURVE",
"268 590 OFFCURVE",
"294 561 CURVE SMOOTH",
"321 531 OFFCURVE",
"346 515 OFFCURVE",
"371 515 CURVE SMOOTH",
"416 515 OFFCURVE",
"461 554 OFFCURVE",
"461 597 CURVE SMOOTH",
"461 601 OFFCURVE",
"461 605 OFFCURVE",
"460 609 CURVE SMOOTH",
"458 619 LINE",
"522 623 LINE SMOOTH",
"555 625 OFFCURVE",
"574 631 OFFCURVE",
"578 637 CURVE",
"577 645 OFFCURVE",
"567 650 OFFCURVE",
"547 651 CURVE SMOOTH",
"517 653 OFFCURVE",
"483 655 OFFCURVE",
"445 655 CURVE SMOOTH",
"416 655 OFFCURVE",
"384 654 OFFCURVE",
"349 652 CURVE SMOOTH",
"283 649 OFFCURVE",
"217 644 OFFCURVE",
"152 642 CURVE SMOOTH",
"137 642 OFFCURVE",
"104 644 OFFCURVE",
"85 644 CURVE SMOOTH",
"68 644 OFFCURVE",
"57 642 OFFCURVE",
"46 638 CURVE SMOOTH",
"37 634 OFFCURVE",
"32 608 OFFCURVE",
"33 561 CURVE SMOOTH",
"33 547 OFFCURVE",
"33 517 OFFCURVE",
"35 471 CURVE SMOOTH",
"36 431 OFFCURVE",
"46 411 OFFCURVE",
"63 411 CURVE SMOOTH",
"76 411 OFFCURVE",
"97 416 OFFCURVE",
"125 423 CURVE SMOOTH",
"154 429 OFFCURVE",
"177 433 OFFCURVE",
"192 434 CURVE SMOOTH",
"215 434 OFFCURVE",
"229 432 OFFCURVE",
"233 425 CURVE",
"233 417 OFFCURVE",
"59 109 OFFCURVE",
"35 72 CURVE",
"28 74 OFFCURVE",
"22 74 OFFCURVE",
"17 74 CURVE SMOOTH",
"-3 72 OFFCURVE",
"-13 57 OFFCURVE",
"-13 31 CURVE SMOOTH",
"-13 5 OFFCURVE",
"1 -8 OFFCURVE",
"32 -7 CURVE SMOOTH"
);
}
);
width = 649;
}
);
leftKerningGroup = Z;
note = Z;
rightKerningGroup = Z;
unicode = 005A;
},
{
glyphname = a;
lastChange = "2021-11-24 21:53:03 +0000";
layers = (
{
anchors = (
{
name = bottom;
position = "{248, 0}";
},
{
name = ogonek;
position = "{545, 26}";
},
{
name = top;
position = "{212, 565}";
}
);
layerId = "F72AA8BB-7F63-4F07-AEAC-030E55A5CABB";
paths = (
{
closed = 1;
nodes = (
"215 -20 OFFCURVE",
"252 -6 OFFCURVE",
"281 21 CURVE",
"297 42 OFFCURVE",
"307 56 OFFCURVE",
"310 65 CURVE SMOOTH",
"314 76 OFFCURVE",
"309 82 OFFCURVE",
"297 82 CURVE SMOOTH",
"289 82 OFFCURVE",
"283 78 OFFCURVE",
"280 71 CURVE SMOOTH",
"264 34 OFFCURVE",
"230 14 OFFCURVE",
"179 11 CURVE SMOOTH",
"168 10 OFFCURVE",
"153 15 OFFCURVE",
"136 26 CURVE SMOOTH",
"119 37 OFFCURVE",
"109 46 OFFCURVE",
"106 56 CURVE SMOOTH",
"105 61 OFFCURVE",
"110 65 OFFCURVE",
"122 67 CURVE SMOOTH",
"134 69 OFFCURVE",
"141 73 OFFCURVE",
"144 80 CURVE SMOOTH",
"154 104 OFFCURVE",
"158 125 OFFCURVE",
"158 142 CURVE SMOOTH",
"158 184 OFFCURVE",
"132 211 OFFCURVE",
"97 228 CURVE SMOOTH",
"82 235 OFFCURVE",
"75 242 OFFCURVE",
"75 247 CURVE SMOOTH",
"75 273 OFFCURVE",
"146 300 OFFCURVE",
"165 306 CURVE SMOOTH",
"172 308 OFFCURVE",
"190 312 OFFCURVE",
"220 318 CURVE SMOOTH",
"245 323 OFFCURVE",
"263 329 OFFCURVE",
"274 334 CURVE SMOOTH",
"285 339 OFFCURVE",
"290 355 OFFCURVE",
"290 384 CURVE SMOOTH",
"290 427 OFFCURVE",
"288 476 OFFCURVE",
"234 476 CURVE SMOOTH",
"201 476 OFFCURVE",
"183 455 OFFCURVE",
"181 413 CURVE",
"153 416 OFFCURVE",
"134 426 OFFCURVE",
"124 441 CURVE",
"103 452 OFFCURVE",
"93 463 OFFCURVE",
"93 474 CURVE SMOOTH",
"93 485 OFFCURVE",
"102 495 OFFCURVE",
"120 505 CURVE SMOOTH",
"152 523 OFFCURVE",
"194 533 OFFCURVE",
"245 536 CURVE SMOOTH",
"254 537 OFFCURVE",
"271 528 OFFCURVE",
"294 510 CURVE SMOOTH",
"321 489 OFFCURVE",
"334 470 OFFCURVE",
"334 452 CURVE SMOOTH",
"334 445 OFFCURVE",
"332 438 OFFCURVE",
"328 432 CURVE SMOOTH",
"315 413 OFFCURVE",
"309 394 OFFCURVE",
"309 373 CURVE SMOOTH",
"309 335 OFFCURVE",
"327 308 OFFCURVE",
"363 291 CURVE SMOOTH",
"365 290 OFFCURVE",
"368 290 OFFCURVE",
"371 290 CURVE SMOOTH",
"376 290 OFFCURVE",
"383 291 OFFCURVE",
"391 294 CURVE SMOOTH",
"404 299 OFFCURVE",
"411 300 OFFCURVE",
"414 300 CURVE SMOOTH",
"420 300 OFFCURVE",
"423 296 OFFCURVE",
"423 289 CURVE SMOOTH",
"423 244 OFFCURVE",
"423 200 OFFCURVE",
"424 156 CURVE SMOOTH",
"427 103 OFFCURVE",
"441 65 OFFCURVE",
"466 42 CURVE",
"346 52 LINE SMOOTH",
"332 53 OFFCURVE",
"325 47 OFFCURVE",
"325 34 CURVE SMOOTH",
"325 25 OFFCURVE",
"327 20 OFFCURVE",
"332 20 CURVE SMOOTH",
"489 12 LINE SMOOTH",
"494 12 OFFCURVE",
"498 13 OFFCURVE",
"502 17 CURVE SMOOTH",
"506 21 OFFCURVE",
"506 25 OFFCURVE",
"504 28 CURVE SMOOTH",
"465 87 OFFCURVE",
"457 220 OFFCURVE",
"454 291 CURVE SMOOTH",
"450 366 OFFCURVE",
"446 414 OFFCURVE",
"443 433 CURVE SMOOTH",
"436 480 OFFCURVE",
"417 514 OFFCURVE",
"390 535 CURVE SMOOTH",
"362 557 OFFCURVE",
"322 568 OFFCURVE",
"269 568 CURVE SMOOTH",
"260 568 OFFCURVE",
"252 568 OFFCURVE",
"243 567 CURVE SMOOTH",
"96 558 OFFCURVE",
"25 501 OFFCURVE",
"31 390 CURVE SMOOTH",
"32 380 OFFCURVE",
"36 375 OFFCURVE",
"45 375 CURVE SMOOTH",
"47 375 LINE",
"81 382 OFFCURVE",
"114 386 OFFCURVE",
"147 386 CURVE SMOOTH",
"164 386 OFFCURVE",
"180 385 OFFCURVE",
"197 383 CURVE SMOOTH",
"207 383 OFFCURVE",
"212 387 OFFCURVE",
"212 396 CURVE SMOOTH",
"212 399 LINE SMOOTH",
"209 430 OFFCURVE",
"218 446 OFFCURVE",
"233 446 CURVE SMOOTH",
"238 446 OFFCURVE",
"244 444 OFFCURVE",
"250 439 CURVE",
"253 434 OFFCURVE",
"255 422 OFFCURVE",
"257 402 CURVE SMOOTH",
"258 395 OFFCURVE",
"258 388 OFFCURVE",
"258 382 CURVE SMOOTH",
"258 373 OFFCURVE",
"257 366 OFFCURVE",
"256 360 CURVE",
"254 360 LINE",
"211 349 OFFCURVE",
"178 341 OFFCURVE",
"156 336 CURVE SMOOTH",
"105 321 OFFCURVE",
"68 297 OFFCURVE",
"43 264 CURVE SMOOTH",
"20 234 OFFCURVE",
"9 199 OFFCURVE",
"9 161 CURVE SMOOTH",
"9 62 OFFCURVE",
"67 -20 OFFCURVE",
"170 -20 CURVE SMOOTH"
);
},
{
closed = 1;
nodes = (
"220 122 OFFCURVE",
"213 126 OFFCURVE",
"207 134 CURVE SMOOTH",
"201 142 OFFCURVE",
"198 151 OFFCURVE",
"198 162 CURVE SMOOTH",
"198 167 LINE SMOOTH",
"199 200 OFFCURVE",
"221 226 OFFCURVE",
"265 246 CURVE",
"266 204 OFFCURVE",
"268 176 OFFCURVE",
"268 162 CURVE SMOOTH",
"268 136 OFFCURVE",
"255 122 OFFCURVE",
"230 122 CURVE SMOOTH"
);
},
{
closed = 1;
nodes = (
"267 90 OFFCURVE",
"287 106 OFFCURVE",
"296 138 CURVE",
"297 139 OFFCURVE",
"300 140 OFFCURVE",
"305 140 CURVE SMOOTH",
"323 140 LINE SMOOTH",
"356 140 OFFCURVE",
"383 155 OFFCURVE",
"383 191 CURVE SMOOTH",
"383 205 OFFCURVE",
"376 220 OFFCURVE",
"363 236 CURVE SMOOTH",
"350 252 OFFCURVE",
"342 262 OFFCURVE",
"342 267 CURVE SMOOTH",
"342 272 OFFCURVE",
"332 276 OFFCURVE",
"313 280 CURVE SMOOTH",
"300 283 OFFCURVE",
"290 284 OFFCURVE",
"283 284 CURVE SMOOTH",
"280 284 OFFCURVE",
"277 284 OFFCURVE",
"275 283 CURVE SMOOTH",
"223 266 OFFCURVE",
"168 227 OFFCURVE",
"166 167 CURVE SMOOTH",
"166 127 OFFCURVE",
"193 90 OFFCURVE",
"235 90 CURVE SMOOTH"
);
}
);
width = 497;
}
);
leftKerningGroup = a;
note = a;
rightKerningGroup = n;
rightMetricsKey = n;
unicode = 0061;
},
